<svg width="24" height="24" viewBox="0 0 24 24" fill="none" xmlns="http://www.w3.org/2000/svg">
<path d="M7.81561 9.24758L7.61647 9.70576C7.58535 9.78037 7.53284 9.8441 7.46557 9.88893C7.3983 9.93376 7.31927 9.95768 7.23843 9.95768C7.15759 9.95768 7.07856 9.93376 7.01129 9.88893C6.94402 9.8441 6.89151 9.78037 6.86039 9.70576L6.66125 9.24758C6.31113 8.43705 5.66992 7.78717 4.86415 7.4262L4.24974 7.15178C4.1752 7.11749 4.11205 7.06255 4.06779 6.99346C4.02353 6.92438 4 6.84405 4 6.762C4 6.67995 4.02353 6.59962 4.06779 6.53054C4.11205 6.46146 4.1752 6.40651 4.24974 6.37222L4.83015 6.11399C5.65618 5.74274 6.30836 5.06883 6.65235 4.23109L6.85796 3.73648C6.88804 3.65986 6.94051 3.59409 7.00852 3.54772C7.07653 3.50136 7.15693 3.47656 7.23924 3.47656C7.32155 3.47656 7.40195 3.50136 7.46996 3.54772C7.53797 3.59409 7.59044 3.65986 7.62052 3.73648L7.82532 4.23028C8.16895 5.06818 8.82084 5.74238 9.6467 6.11399L10.2279 6.37303C10.3022 6.40742 10.3652 6.46236 10.4093 6.53135C10.4534 6.60035 10.4768 6.68052 10.4768 6.76241C10.4768 6.84429 10.4534 6.92446 10.4093 6.99346C10.3652 7.06245 10.3022 7.11739 10.2279 7.15178L9.61271 7.42539C8.8071 7.78672 8.16618 8.43689 7.81642 9.24758M6.48073 20.9733C7.31129 15.9616 9.11 5.09402 21 5.09402C19.789 7.52253 18.9762 8.73679 18.1667 9.54629L17.3572 10.3558L18.5715 11.1653C17.762 13.5938 15.3335 16.4271 12.0955 16.8318C9.93516 17.1017 8.58544 18.5858 8.04631 21.2841H6.42893L6.48073 20.9733Z" fill="black"/>
</svg>
