<svg width="106" height="28" viewBox="0 0 106 28" fill="none" xmlns="http://www.w3.org/2000/svg">
<path d="M3.14062 19.8564C3.30085 18.0893 3.84451 16.4665 4.77163 14.9879C5.69874 13.5101 6.93385 12.3357 8.47696 11.4646L6.65462 8.31457C6.55274 8.15435 6.52707 7.99568 6.57763 7.83857C6.62896 7.68146 6.73668 7.55429 6.90079 7.45707C7.05635 7.37463 7.20918 7.35907 7.35929 7.41041C7.50863 7.46096 7.63268 7.56052 7.73146 7.70907L9.55729 10.8766C10.9728 10.2823 12.4537 9.98524 14 9.98524C15.5462 9.98524 17.0271 10.2823 18.4426 10.8766L20.2685 7.70907C20.3672 7.56129 20.4917 7.46174 20.6418 7.41041C20.7911 7.35907 20.9432 7.37463 21.098 7.45707C21.2628 7.55429 21.371 7.68146 21.4223 7.83857C21.4728 7.99568 21.4472 8.15435 21.3453 8.31457L19.5241 11.4646C21.0665 12.3357 22.3012 13.5101 23.2283 14.9879C24.1554 16.4665 24.6991 18.0889 24.8593 19.8552L3.14062 19.8564ZM9.06729 17.1404C9.4134 17.1404 9.70507 17.021 9.94229 16.7822C10.1795 16.5427 10.2981 16.2499 10.2981 15.9037C10.2981 15.5576 10.1783 15.266 9.93879 15.0287C9.69924 14.7915 9.40679 14.6729 9.06146 14.6729C8.71613 14.6729 8.42446 14.7927 8.18646 15.0322C7.94846 15.2718 7.82946 15.5642 7.82946 15.9096C7.82946 16.2565 7.94924 16.5481 8.18879 16.7846C8.42835 17.021 8.72118 17.1396 9.06729 17.1404ZM18.9396 17.1404C19.2857 17.1404 19.5774 17.021 19.8146 16.7822C20.0511 16.5427 20.1693 16.2499 20.1693 15.9037C20.1693 15.5576 20.0499 15.266 19.8111 15.0287C19.5723 14.7915 19.2795 14.6729 18.9326 14.6729C18.5857 14.6729 18.2941 14.7927 18.0576 15.0322C17.8212 15.2718 17.7026 15.5642 17.7018 15.9096C17.701 16.2549 17.8204 16.5466 18.06 16.7846C18.2995 17.0226 18.5935 17.1412 18.9396 17.1404Z" fill="#999999"/>
<path d="M35.1008 21H32.3798L37.366 6.85635H40.5014L45.4876 21H42.7735L41.5994 17.4986H36.2749L35.1008 21ZM36.9586 15.4544H40.9088L38.989 9.74309H38.8785L36.9586 15.4544ZM49.555 14.7845V21H47.0688V10.3923H49.4445V12.1948H49.5758C50.0592 11.0069 51.1434 10.2541 52.7318 10.2541C54.9211 10.2541 56.3644 11.7044 56.3644 14.2459V21H53.8782V14.6257C53.8782 13.2099 53.1048 12.3605 51.8064 12.3605C50.4874 12.3605 49.555 13.2445 49.555 14.7845ZM62.6919 21.1865C60.1919 21.1865 58.3134 19.1975 58.3134 15.7099C58.3134 12.174 60.2402 10.2541 62.6988 10.2541C64.5704 10.2541 65.3507 11.3798 65.7306 12.1395H65.8273V6.85635H68.3135V21H65.8756V19.3287H65.7306C65.33 20.1022 64.5151 21.1865 62.6919 21.1865ZM60.848 15.6961C60.848 17.692 61.7251 19.1492 63.3756 19.1492C64.9778 19.1492 65.8894 17.761 65.8894 15.6961C65.8894 13.6312 64.9916 12.2983 63.3756 12.2983C61.7043 12.2983 60.848 13.7141 60.848 15.6961ZM70.8384 21V10.3923H73.2486V12.1602H73.3591C73.7458 10.9309 74.7679 10.2403 75.9765 10.2403C76.2527 10.2403 76.6464 10.268 76.8812 10.3094V12.5953C76.6602 12.5262 76.1353 12.4503 75.721 12.4503C74.3467 12.4503 73.3246 13.4102 73.3246 14.75V21H70.8384ZM82.6529 21.2072C79.5521 21.2072 77.5701 19.018 77.5701 15.7376C77.5701 12.4503 79.5521 10.2541 82.6529 10.2541C85.7538 10.2541 87.7289 12.4503 87.7289 15.7376C87.7289 19.018 85.7538 21.2072 82.6529 21.2072ZM80.0839 15.7307C80.0839 17.6713 80.9333 19.2182 82.6599 19.2182C84.3587 19.2182 85.2082 17.6713 85.2082 15.7307C85.2082 13.7901 84.3587 12.2224 82.6599 12.2224C80.9333 12.2224 80.0839 13.7901 80.0839 15.7307ZM89.686 21V10.3923H92.1722V21H89.686ZM89.4858 7.53315C89.4858 6.78039 90.1349 6.17956 90.936 6.17956C91.7164 6.17956 92.3725 6.78039 92.3725 7.53315C92.3725 8.27901 91.7164 8.87983 90.936 8.87983C90.1349 8.87983 89.4858 8.27901 89.4858 7.53315ZM98.5122 21.1865C96.0122 21.1865 94.1338 19.1975 94.1338 15.7099C94.1338 12.174 96.0606 10.2541 98.5191 10.2541C100.391 10.2541 101.171 11.3798 101.551 12.1395H101.648V6.85635H104.134V21H101.696V19.3287H101.551C101.15 20.1022 100.335 21.1865 98.5122 21.1865ZM96.6683 15.6961C96.6683 17.692 97.5454 19.1492 99.1959 19.1492C100.798 19.1492 101.71 17.761 101.71 15.6961C101.71 13.6312 100.812 12.2983 99.1959 12.2983C97.5246 12.2983 96.6683 13.7141 96.6683 15.6961Z" fill="#999999"/>
</svg>
