<svg width="28" height="28" viewBox="0 0 28 28" fill="none" xmlns="http://www.w3.org/2000/svg">
<path d="M3.14062 19.8564C3.30085 18.0893 3.84451 16.4665 4.77163 14.9879C5.69874 13.5101 6.93385 12.3357 8.47696 11.4646L6.65462 8.31457C6.55274 8.15435 6.52707 7.99568 6.57762 7.83857C6.62896 7.68146 6.73668 7.55429 6.90079 7.45707C7.05635 7.37463 7.20918 7.35907 7.35929 7.41041C7.50863 7.46096 7.63268 7.56052 7.73146 7.70907L9.55729 10.8766C10.9728 10.2823 12.4537 9.98524 14 9.98524C15.5462 9.98524 17.0271 10.2823 18.4426 10.8766L20.2685 7.70907C20.3672 7.56129 20.4917 7.46174 20.6418 7.41041C20.7911 7.35907 20.9432 7.37463 21.098 7.45707C21.2628 7.55429 21.371 7.68146 21.4223 7.83857C21.4728 7.99568 21.4472 8.15435 21.3453 8.31457L19.5241 11.4646C21.0665 12.3357 22.3012 13.5101 23.2283 14.9879C24.1554 16.4665 24.6991 18.0889 24.8593 19.8552L3.14062 19.8564ZM9.06729 17.1404C9.4134 17.1404 9.70507 17.021 9.94229 16.7822C10.1795 16.5427 10.2981 16.2498 10.2981 15.9037C10.2981 15.5576 10.1783 15.266 9.93879 15.0287C9.69924 14.7915 9.40679 14.6729 9.06146 14.6729C8.71613 14.6729 8.42446 14.7927 8.18646 15.0322C7.94846 15.2718 7.82946 15.5642 7.82946 15.9096C7.82946 16.2565 7.94924 16.5481 8.18879 16.7846C8.42835 17.021 8.72118 17.1396 9.06729 17.1404ZM18.9396 17.1404C19.2857 17.1404 19.5774 17.021 19.8146 16.7822C20.0511 16.5427 20.1693 16.2498 20.1693 15.9037C20.1693 15.5576 20.0499 15.266 19.8111 15.0287C19.5723 14.7915 19.2795 14.6729 18.9326 14.6729C18.5857 14.6729 18.2941 14.7927 18.0576 15.0322C17.8212 15.2718 17.7026 15.5642 17.7018 15.9096C17.701 16.2549 17.8204 16.5466 18.06 16.7846C18.2995 17.0226 18.5935 17.1412 18.9396 17.1404Z" fill="#999999"/>
</svg>
