<svg width="142" height="76" viewBox="0 0 142 76" fill="none" xmlns="http://www.w3.org/2000/svg">
<rect x="11.5" y="26.5" width="119" height="27" rx="3.5" stroke="white"/>
<path d="M129.398 23.8099C129.574 23.9344 129.785 24.0009 130 24.0004C130.216 23.9998 130.426 23.9322 130.602 23.8069C130.78 23.6769 130.915 23.4969 130.989 23.2889L131.436 21.9159C131.551 21.5718 131.744 21.259 132 21.0023C132.256 20.7457 132.569 20.5521 132.913 20.4369L134.304 19.9869C134.509 19.9125 134.687 19.7754 134.81 19.5949C134.934 19.4145 134.998 19.1998 134.993 18.9811C134.988 18.7625 134.915 18.5508 134.783 18.3761C134.652 18.2013 134.469 18.0722 134.26 18.0069L132.885 17.5589C132.541 17.4444 132.228 17.2513 131.971 16.9949C131.714 16.7386 131.52 16.426 131.405 16.0819L130.953 14.6939C130.88 14.4894 130.745 14.3127 130.567 14.1884C130.39 14.064 130.177 13.9982 129.96 14C129.743 14.0019 129.532 14.0714 129.356 14.1988C129.181 14.3262 129.049 14.5052 128.98 14.7109L128.523 16.1109C128.408 16.4458 128.219 16.7503 127.969 17.0014C127.72 17.2526 127.417 17.4439 127.083 17.5609L125.693 18.0079C125.488 18.0809 125.312 18.2156 125.187 18.3935C125.063 18.5714 124.997 18.7836 124.999 19.0006C125.001 19.2176 125.07 19.4287 125.197 19.6046C125.324 19.7804 125.503 19.9123 125.709 19.9819L127.083 20.4269C127.429 20.5418 127.743 20.7362 128 20.9947C128.258 21.2531 128.451 21.5683 128.564 21.9149L129.016 23.3059C129.088 23.5099 129.222 23.6859 129.398 23.8099ZM129.483 16.3949L130.01 15.0179L130.45 16.3949C130.613 16.888 130.89 17.336 131.258 17.7031C131.625 18.0701 132.074 18.3461 132.567 18.5089L133.973 19.0389L132.591 19.4859C132.098 19.65 131.65 19.9268 131.283 20.2943C130.916 20.6618 130.639 21.1099 130.476 21.6029L129.953 22.9809L129.504 21.6019C129.342 21.1091 129.069 20.6606 128.704 20.2919C128.334 19.9243 127.886 19.6465 127.392 19.4799L126.014 18.9579L127.4 18.5079C127.886 18.3394 128.328 18.0612 128.69 17.6949C129.049 17.3271 129.32 16.8826 129.483 16.3949ZM135.535 27.8519C135.637 27.9238 135.755 27.971 135.878 27.9896C136.002 28.0082 136.128 27.9978 136.247 27.9592C136.366 27.9206 136.474 27.8548 136.564 27.7671C136.653 27.6794 136.72 27.5722 136.761 27.4539L137.009 26.6919C137.063 26.534 137.151 26.3904 137.269 26.2719C137.387 26.1519 137.531 26.0639 137.689 26.0119L138.461 25.7599C138.62 25.7049 138.758 25.6011 138.855 25.4631C138.952 25.3251 139.002 25.1601 139 24.9916C138.997 24.8231 138.941 24.6597 138.841 24.5247C138.74 24.3897 138.599 24.2901 138.438 24.2399L137.674 23.9899C137.516 23.937 137.372 23.8483 137.254 23.7307C137.136 23.613 137.047 23.4697 136.994 23.3119L136.742 22.5389C136.688 22.3799 136.585 22.242 136.448 22.1447C136.311 22.0474 136.147 21.9956 135.979 21.9967C135.811 21.9978 135.648 22.0517 135.512 22.1509C135.377 22.25 135.276 22.3892 135.224 22.5489L134.977 23.3109C134.926 23.4677 134.839 23.6105 134.724 23.7283C134.608 23.8461 134.467 23.9356 134.312 23.9899L133.539 24.2419C133.38 24.2958 133.242 24.3984 133.144 24.5352C133.047 24.6719 132.995 24.8359 132.996 25.0038C132.997 25.1717 133.05 25.3351 133.149 25.4709C133.248 25.6066 133.387 25.7077 133.547 25.7599L134.31 26.0069C134.47 26.0609 134.614 26.1499 134.732 26.2679C134.851 26.3869 134.939 26.5309 134.99 26.6899L135.243 27.4639C135.298 27.6204 135.4 27.756 135.535 27.8519ZM134.622 25.0589L134.443 25.0009L134.627 24.9369C134.929 24.8306 135.204 24.6568 135.429 24.4285C135.654 24.2003 135.824 23.9238 135.927 23.6199L135.985 23.4419L136.045 23.6229C136.147 23.9294 136.319 24.2079 136.547 24.4363C136.776 24.6647 137.054 24.8368 137.361 24.9389L137.556 25.0019L137.376 25.0619C137.069 25.1643 136.79 25.3369 136.561 25.5661C136.332 25.7952 136.16 26.0746 136.059 26.3819L136 26.5629L135.942 26.3829C135.84 26.0747 135.668 25.7946 135.439 25.5648C135.21 25.3351 134.93 25.1622 134.622 25.0599" fill="white"/>
<path d="M6.96128 61.8286C7.11996 61.9406 7.30957 62.0005 7.50383 62C7.69809 61.9995 7.88739 61.9387 8.04552 61.8259C8.20582 61.7089 8.32739 61.5469 8.39403 61.3597L8.79657 60.1241C8.89986 59.8144 9.0738 59.5329 9.30463 59.3019C9.53547 59.0709 9.81689 58.8967 10.1267 58.793L11.3793 58.388C11.5645 58.321 11.724 58.1976 11.8353 58.0352C11.9466 57.8728 12.0041 57.6796 11.9998 57.4828C11.9954 57.2861 11.9293 57.0956 11.8109 56.9383C11.6925 56.781 11.5277 56.6648 11.3397 56.6061L10.1014 56.2029C9.79137 56.0998 9.50953 55.926 9.27822 55.6953C9.04691 55.4646 8.87246 55.1833 8.76865 54.8737L8.36161 53.6245C8.29607 53.4405 8.17476 53.2814 8.01456 53.1695C7.85436 53.0576 7.66324 52.9984 7.46778 53C7.27232 53.0017 7.08225 53.0642 6.92401 53.1789C6.76576 53.2936 6.64721 53.4547 6.58485 53.6398L6.17331 54.8998C6.07 55.2011 5.89962 55.4751 5.675 55.7012C5.45038 55.9272 5.17737 56.0994 4.87654 56.2047L3.62479 56.607C3.44072 56.6726 3.28166 56.7939 3.16971 56.954C3.05775 57.1141 2.99845 57.3051 3.00003 57.5004C3.00161 57.6957 3.06401 57.8857 3.17855 58.0439C3.29309 58.2022 3.45409 58.3209 3.6392 58.3835L4.87654 58.784C5.18819 58.8874 5.47122 59.0624 5.70286 59.295C5.9345 59.5276 6.10828 59.8112 6.21023 60.1232L6.61727 61.375C6.68211 61.5586 6.80278 61.717 6.96128 61.8286ZM7.03782 55.1554L7.5124 53.9161L7.90864 55.1554C8.0559 55.5991 8.305 56.0023 8.63603 56.3326C8.96705 56.663 9.37083 56.9113 9.81507 57.0579L11.0812 57.5349L9.83668 57.9371C9.39283 58.0848 8.98955 58.3339 8.65892 58.6647C8.32828 58.9954 8.0794 59.3987 7.93205 59.8424L7.46107 61.0825L7.05673 59.8415C6.91143 59.3979 6.66478 58.9943 6.33631 58.6625C6.00371 58.3317 5.59947 58.0816 5.1548 57.9317L3.91387 57.462L5.16201 57.057C5.60023 56.9053 5.99769 56.6549 6.3237 56.3253C6.64719 55.9943 6.89135 55.5943 7.03782 55.1554Z" fill="white"/>
</svg>
