<svg width="22" height="13" viewBox="0 0 22 13" fill="none" xmlns="http://www.w3.org/2000/svg">
<path d="M0.140625 12.8564C0.300847 11.0893 0.844514 9.46646 1.77163 7.98791C2.69874 6.51013 3.93385 5.33568 5.47696 4.46457L3.65462 1.31457C3.55274 1.15435 3.52707 0.995683 3.57763 0.838572C3.62896 0.681461 3.73668 0.554295 3.90079 0.457073C4.05635 0.374628 4.20918 0.359073 4.35929 0.410406C4.50863 0.460961 4.63268 0.560517 4.73146 0.709072L6.55729 3.87657C7.97285 3.28235 9.45374 2.98524 11 2.98524C12.5462 2.98524 14.0271 3.28235 15.4426 3.87657L17.2685 0.709072C17.3672 0.561294 17.4917 0.461739 17.6418 0.410406C17.7911 0.359073 17.9432 0.374628 18.098 0.457073C18.2628 0.554295 18.371 0.681461 18.4223 0.838572C18.4728 0.995683 18.4472 1.15435 18.3453 1.31457L16.5241 4.46457C18.0665 5.33568 19.3012 6.51013 20.2283 7.98791C21.1554 9.46646 21.6991 11.0889 21.8593 12.8552L0.140625 12.8564ZM6.06729 10.1404C6.4134 10.1404 6.70507 10.021 6.94229 9.78224C7.17951 9.54268 7.29812 9.24985 7.29812 8.90374C7.29812 8.55763 7.17835 8.26596 6.93879 8.02874C6.69924 7.79152 6.40679 7.6729 6.06146 7.6729C5.71613 7.6729 5.42446 7.79268 5.18646 8.03224C4.94846 8.27179 4.82946 8.56424 4.82946 8.90957C4.82946 9.25646 4.94924 9.54813 5.18879 9.78457C5.42835 10.021 5.72118 10.1396 6.06729 10.1404ZM15.9396 10.1404C16.2857 10.1404 16.5774 10.021 16.8146 9.78224C17.0511 9.54268 17.1693 9.24985 17.1693 8.90374C17.1693 8.55763 17.0499 8.26596 16.8111 8.02874C16.5723 7.79152 16.2795 7.6729 15.9326 7.6729C15.5857 7.6729 15.2941 7.79268 15.0576 8.03224C14.8212 8.27179 14.7026 8.56424 14.7018 8.90957C14.701 9.25491 14.8204 9.54657 15.06 9.78457C15.2995 10.0226 15.5935 10.1412 15.9396 10.1404Z" fill="#00C13A"/>
</svg>
