<svg width="20" height="20" viewBox="0 0 20 20" fill="none" xmlns="http://www.w3.org/2000/svg">
<path fill-rule="evenodd" clip-rule="evenodd" d="M15.2585 3.96364C15.4139 3.87016 15.5995 3.8405 15.7763 3.88091C15.9531 3.92132 16.1074 4.02865 16.2068 4.18037L16.9012 5.23946C16.9917 5.37782 17.0304 5.5437 17.0105 5.70784C16.9906 5.87197 16.9134 6.0238 16.7925 6.13653L16.7904 6.13934L16.7805 6.14845L16.7406 6.18563L16.5827 6.33642C15.7096 7.18346 14.8628 8.05733 14.0437 8.95679C12.5028 10.6513 10.6729 12.8691 9.44125 15.021C9.09758 15.6213 8.25802 15.7504 7.76004 15.2321L3.21157 10.5061C3.14638 10.4384 3.09549 10.3582 3.0619 10.2704C3.02832 10.1826 3.01273 10.0889 3.01607 9.99498C3.0194 9.90102 3.0416 9.80869 3.08133 9.72348C3.12106 9.63827 3.17751 9.56192 3.24734 9.49896L4.62205 8.25892C4.74285 8.15 4.89776 8.08646 5.06026 8.07916C5.22275 8.07187 5.38273 8.12128 5.5128 8.21894L7.83368 9.95907C11.4591 6.38412 13.5149 5.01221 15.2585 3.96364Z" fill="#767676"/>
<path fill-rule="evenodd" clip-rule="evenodd" d="M15.2585 3.96364C15.4139 3.87016 15.5995 3.8405 15.7763 3.88091C15.9531 3.92132 16.1074 4.02865 16.2068 4.18037L16.9012 5.23946C16.9917 5.37782 17.0304 5.5437 17.0105 5.70784C16.9906 5.87197 16.9134 6.0238 16.7925 6.13653L16.7904 6.13934L16.7805 6.14845L16.7406 6.18563L16.5827 6.33642C15.7096 7.18346 14.8628 8.05733 14.0437 8.95679C12.5028 10.6513 10.6729 12.8691 9.44125 15.021C9.09758 15.6213 8.25802 15.7504 7.76004 15.2321L3.21157 10.5061C3.14638 10.4384 3.09549 10.3582 3.0619 10.2704C3.02832 10.1826 3.01273 10.0889 3.01607 9.99498C3.0194 9.90102 3.0416 9.80869 3.08133 9.72348C3.12106 9.63827 3.17751 9.56192 3.24734 9.49896L4.62205 8.25892C4.74285 8.15 4.89776 8.08646 5.06026 8.07916C5.22275 8.07187 5.38273 8.12128 5.5128 8.21894L7.83368 9.95907C11.4591 6.38412 13.5149 5.01221 15.2585 3.96364Z" fill="black" fill-opacity="0.2"/>
<path fill-rule="evenodd" clip-rule="evenodd" d="M15.2585 3.96364C15.4139 3.87016 15.5995 3.8405 15.7763 3.88091C15.9531 3.92132 16.1074 4.02865 16.2068 4.18037L16.9012 5.23946C16.9917 5.37782 17.0304 5.5437 17.0105 5.70784C16.9906 5.87197 16.9134 6.0238 16.7925 6.13653L16.7904 6.13934L16.7805 6.14845L16.7406 6.18563L16.5827 6.33642C15.7096 7.18346 14.8628 8.05733 14.0437 8.95679C12.5028 10.6513 10.6729 12.8691 9.44125 15.021C9.09758 15.6213 8.25802 15.7504 7.76004 15.2321L3.21157 10.5061C3.14638 10.4384 3.09549 10.3582 3.0619 10.2704C3.02832 10.1826 3.01273 10.0889 3.01607 9.99498C3.0194 9.90102 3.0416 9.80869 3.08133 9.72348C3.12106 9.63827 3.17751 9.56192 3.24734 9.49896L4.62205 8.25892C4.74285 8.15 4.89776 8.08646 5.06026 8.07916C5.22275 8.07187 5.38273 8.12128 5.5128 8.21894L7.83368 9.95907C11.4591 6.38412 13.5149 5.01221 15.2585 3.96364Z" fill="black" fill-opacity="0.2"/>
</svg>
