<svg width="956" height="537" viewBox="0 0 956 537" fill="none" xmlns="http://www.w3.org/2000/svg">
<rect width="956" height="537" fill="black"/>
<path d="M113.5 279.2H154.35V282.65H113.5V279.2ZM118.65 271.55H149.6V274.9H118.65V271.55ZM118.65 259.5H149.25V262.9H122.75V273.15H118.65V259.5ZM133.85 286.55C143.5 286.55 149.35 289.5 149.35 294.7C149.35 299.9 143.5 302.8 133.85 302.8C124.2 302.8 118.35 299.9 118.35 294.7C118.35 289.5 124.2 286.55 133.85 286.55ZM133.85 289.75C126.8 289.75 122.55 291.55 122.55 294.7C122.55 297.8 126.8 299.55 133.85 299.55C140.95 299.55 145.15 297.8 145.15 294.7C145.15 291.55 140.95 289.75 133.85 289.75ZM159.446 282.55H200.446V285.95H159.446V282.55ZM164.646 258.85H195.146V269.8H168.846V275.9H164.746V266.75H191.096V262.1H164.646V258.85ZM164.746 274.55H196.146V277.8H164.746V274.55ZM177.846 276.25H181.996V284.25H177.846V276.25ZM163.996 289.4H195.446V302.5H191.296V292.8H163.996V289.4ZM209.692 272.45H231.492V275.85H209.692V272.45ZM218.392 274.5H222.542V283.55H218.392V274.5ZM209.692 260.65H231.192V264.05H213.842V273.95H209.692V260.65ZM238.292 257.7H242.442V291.5H238.292V257.7ZM213.242 298.5H243.942V301.9H213.242V298.5ZM213.242 289.3H217.342V299.95H213.242V289.3ZM206.242 285.8L205.692 282.4C214.392 282.4 225.392 282.2 234.692 281.1L234.942 284.15C225.392 285.55 214.692 285.8 206.242 285.8ZM265.551 293.65H306.501V297.1H265.551V293.65ZM269.101 262.2H302.651V265.6H269.101V262.2ZM269.201 281.3H302.601V284.7H269.201V281.3ZM276.151 265.35H280.301V281.65H276.151V265.35ZM291.551 265.35H295.651V281.65H291.551V265.35ZM311.547 293.9H352.497V297.35H311.547V293.9ZM329.847 284.2H333.997V295.35H329.847V284.2ZM316.497 261.05H347.447V274.75H320.747V283.8H316.647V271.4H343.347V264.4H316.497V261.05ZM316.647 282.05H348.497V285.45H316.647V282.05ZM376.193 269.35H384.443V272.75H376.193V269.35ZM382.943 258.65H386.843V284.95H382.943V258.65ZM366.893 263.65H370.143V267.35C370.143 274.35 366.493 281.3 359.843 284.25L357.693 281.05C363.493 278.55 366.893 272.75 366.893 267.35V263.65ZM367.593 263.65H370.843V267.3C370.843 272.3 374.093 277.65 379.693 280L377.593 283.2C371.043 280.45 367.593 273.85 367.593 267.3V263.65ZM358.543 261.35H378.643V264.75H358.543V261.35ZM391.643 257.7H395.593V285.3H391.643V257.7ZM365.293 287.3H395.593V302.9H391.493V290.7H365.293V287.3ZM408.789 282.05H439.839V285.4H408.789V282.05ZM403.539 293.65H444.489V297.1H403.539V293.65ZM408.789 261.55H439.339V264.95H412.989V283.1H408.789V261.55ZM411.639 271.65H438.389V274.95H411.639V271.65ZM496.398 257.65H500.548V302.95H496.398V257.65ZM476.698 261.15C483.398 261.15 488.198 267.3 488.198 276.9C488.198 286.55 483.398 292.7 476.698 292.7C470.048 292.7 465.248 286.55 465.248 276.9C465.248 267.3 470.048 261.15 476.698 261.15ZM476.698 264.9C472.298 264.9 469.198 269.6 469.198 276.9C469.198 284.25 472.298 289.05 476.698 289.05C481.148 289.05 484.198 284.25 484.198 276.9C484.198 269.6 481.148 264.9 476.698 264.9ZM512.144 262.1H532.944V291.55H512.144V262.1ZM528.894 265.45H516.194V288.2H528.894V265.45ZM542.394 257.65H546.544V302.95H542.394V257.65ZM567.54 264.15H570.89V271.5C570.89 281.05 565.14 290.65 557.94 294.2L555.54 290.9C562.09 287.8 567.54 279.3 567.54 271.5V264.15ZM568.34 264.15H571.69V271.5C571.69 279.15 577.14 286.95 583.79 289.8L581.44 293.1C574.14 289.7 568.34 280.9 568.34 271.5V264.15ZM557.04 262.3H582.29V265.8H557.04V262.3ZM588.39 257.7H592.54V302.9H588.39V257.7ZM632.136 257.65H636.336V302.9H632.136V257.65ZM635.186 276H643.536V279.45H635.186V276ZM620.586 262.55H624.636C624.636 275.4 618.736 287 604.136 294.35L601.836 291.15C614.336 284.8 620.586 275.15 620.586 263.2V262.55ZM603.936 262.55H622.736V265.95H603.936V262.55ZM666.795 284.2H670.695V289.85H678.595V284.2H682.445V302.3H666.795V284.2ZM670.695 292.95V299.05H678.595V292.95H670.695ZM691.195 283.95H694.395V287.7C694.395 293.85 691.295 300.05 685.045 302.7L682.945 299.55C688.395 297.25 691.195 292.3 691.195 287.7V283.95ZM692.045 283.95H695.245V287.7C695.245 292.55 698.045 297.45 703.495 299.55L701.395 302.7C695.095 300.1 692.045 294.1 692.045 287.7V283.95ZM684.345 268.3H696.495V271.75H684.345V268.3ZM673.945 259.7C680.695 259.7 685.595 263.9 685.595 270.1C685.595 276.25 680.695 280.5 673.945 280.5C667.195 280.5 662.295 276.25 662.295 270.1C662.295 263.9 667.195 259.7 673.945 259.7ZM673.945 263.15C669.495 263.15 666.295 266 666.295 270.1C666.295 274.15 669.495 277.05 673.945 277.05C678.395 277.05 681.595 274.15 681.595 270.1C681.595 266 678.395 263.15 673.945 263.15ZM694.645 257.7H698.795V281.65H694.645V257.7ZM712.791 284.8H716.891V290.05H738.991V284.8H743.141V302.3H712.791V284.8ZM716.891 293.25V298.95H738.991V293.25H716.891ZM707.591 278.3H748.441V281.65H707.591V278.3ZM725.941 258.2H729.491V260.2C729.491 268.05 720.741 273.7 711.441 275.1L709.941 271.85C718.091 270.75 725.941 265.9 725.941 260.2V258.2ZM726.591 258.2H730.141V260.2C730.141 265.8 738.091 270.75 746.141 271.85L744.591 275.1C735.391 273.7 726.591 267.95 726.591 260.2V258.2ZM786.487 257.7H790.637V302.9H786.487V257.7ZM756.487 262.1H760.587V290.1H756.487V262.1ZM756.487 287.65H760.187C767.037 287.65 774.187 287.15 781.837 285.55L782.337 289.1C774.487 290.7 767.337 291.25 760.187 291.25H756.487V287.65ZM830.183 257.65H834.383V302.95H830.183V257.65ZM833.383 275.5H841.783V279H833.383V275.5ZM801.533 288.2H805.083C813.433 288.2 819.283 287.9 826.033 286.65L826.483 290.15C819.533 291.45 813.583 291.7 805.083 291.7H801.533V288.2ZM801.533 262.05H822.533V265.45H805.633V289.75H801.533V262.05Z" fill="white"/>
</svg>
