<svg width="488" height="275" viewBox="0 0 488 275" fill="none" xmlns="http://www.w3.org/2000/svg">
<rect width="488" height="275" fill="black"/>
<path d="M39.5 136.12H64.01V138.19H39.5V136.12ZM42.59 131.53H61.16V133.54H42.59V131.53ZM42.59 124.3H60.95V126.34H45.05V132.49H42.59V124.3ZM51.71 140.53C57.5 140.53 61.01 142.3 61.01 145.42C61.01 148.54 57.5 150.28 51.71 150.28C45.92 150.28 42.41 148.54 42.41 145.42C42.41 142.3 45.92 140.53 51.71 140.53ZM51.71 142.45C47.48 142.45 44.93 143.53 44.93 145.42C44.93 147.28 47.48 148.33 51.71 148.33C55.97 148.33 58.49 147.28 58.49 145.42C58.49 143.53 55.97 142.45 51.71 142.45ZM67.0677 138.13H91.6677V140.17H67.0677V138.13ZM70.1877 123.91H88.4877V130.48H72.7077V134.14H70.2477V128.65H86.0577V125.86H70.1877V123.91ZM70.2477 133.33H89.0877V135.28H70.2477V133.33ZM78.1077 134.35H80.5977V139.15H78.1077V134.35ZM69.7977 142.24H88.6677V150.1H86.1777V144.28H69.7977V142.24ZM97.2153 132.07H110.295V134.11H97.2153V132.07ZM102.435 133.3H104.925V138.73H102.435V133.3ZM97.2153 124.99H110.115V127.03H99.7053V132.97H97.2153V124.99ZM114.375 123.22H116.865V143.5H114.375V123.22ZM99.3453 147.7H117.765V149.74H99.3453V147.7ZM99.3453 142.18H101.805V148.57H99.3453V142.18ZM95.1453 140.08L94.8153 138.04C100.035 138.04 106.635 137.92 112.215 137.26L112.365 139.09C106.635 139.93 100.215 140.08 95.1453 140.08ZM150.95 123.22H153.44V139.06H150.95V123.22ZM146.78 129.01H152.3V131.05H146.78V129.01ZM135.32 140.35H153.44V149.98H135.32V140.35ZM150.98 142.33H137.75V147.94H150.98V142.33ZM134.69 124.75H136.52V127.36C136.52 130.87 135.32 135.46 131.87 137.56L130.46 135.76C133.58 133.87 134.69 130.06 134.69 127.36V124.75ZM135.26 124.75H137.06V127.36C137.06 129.85 137.78 133.87 140.81 135.94L139.61 137.83C136.04 135.55 135.26 130.6 135.26 127.36V124.75ZM142.13 124.75H143.93V127.36C143.93 130.78 143.12 135.61 139.61 137.83L138.38 135.94C141.41 133.93 142.13 130 142.13 127.36V124.75ZM142.67 124.75H144.5V127.36C144.5 130.39 145.58 133.99 148.7 135.76L147.32 137.56C143.84 135.55 142.67 131.2 142.67 127.36V124.75ZM159.618 126.13H162.078V142.03H159.618V126.13ZM159.618 141.31H161.358C164.508 141.31 167.448 141.16 170.868 140.47L171.198 142.6C167.658 143.32 164.628 143.47 161.358 143.47H159.618V141.31ZM178.968 123.22H181.368V150.34H178.968V123.22ZM167.148 132.31H173.928V134.38H167.148V132.31ZM173.238 123.85H175.578V148.96H173.238V123.85ZM193.516 124.21C197.566 124.21 200.536 126.67 200.536 130.24C200.536 133.78 197.566 136.24 193.516 136.24C189.496 136.24 186.526 133.78 186.526 130.24C186.526 126.67 189.496 124.21 193.516 124.21ZM193.516 126.25C190.906 126.25 188.926 127.9 188.926 130.24C188.926 132.58 190.906 134.2 193.516 134.2C196.156 134.2 198.106 132.58 198.106 130.24C198.106 127.9 196.156 126.25 193.516 126.25ZM205.636 123.22H208.156V137.11H205.636V123.22ZM190.606 138.43H208.156V145.03H193.096V149.11H190.666V143.17H205.696V140.44H190.606V138.43ZM190.666 148H209.056V149.98H190.666V148ZM241.641 123.19H244.131V150.37H241.641V123.19ZM229.821 125.29C233.841 125.29 236.721 128.98 236.721 134.74C236.721 140.53 233.841 144.22 229.821 144.22C225.831 144.22 222.951 140.53 222.951 134.74C222.951 128.98 225.831 125.29 229.821 125.29ZM229.821 127.54C227.181 127.54 225.321 130.36 225.321 134.74C225.321 139.15 227.181 142.03 229.821 142.03C232.491 142.03 234.321 139.15 234.321 134.74C234.321 130.36 232.491 127.54 229.821 127.54ZM251.089 125.86H263.569V143.53H251.089V125.86ZM261.139 127.87H253.519V141.52H261.139V127.87ZM269.239 123.19H271.729V150.37H269.239V123.19ZM284.326 127.09H286.336V131.5C286.336 137.23 282.886 142.99 278.566 145.12L277.126 143.14C281.056 141.28 284.326 136.18 284.326 131.5V127.09ZM284.806 127.09H286.816V131.5C286.816 136.09 290.086 140.77 294.076 142.48L292.666 144.46C288.286 142.42 284.806 137.14 284.806 131.5V127.09ZM278.026 125.98H293.176V128.08H278.026V125.98ZM296.836 123.22H299.326V150.34H296.836V123.22ZM323.084 123.19H325.604V150.34H323.084V123.19ZM324.914 134.2H329.924V136.27H324.914V134.2ZM316.154 126.13H318.584C318.584 133.84 315.044 140.8 306.284 145.21L304.904 143.29C312.404 139.48 316.154 133.69 316.154 126.52V126.13ZM306.164 126.13H317.444V128.17H306.164V126.13ZM343.879 139.12H346.219V142.51H350.959V139.12H353.269V149.98H343.879V139.12ZM346.219 144.37V148.03H350.959V144.37H346.219ZM358.519 138.97H360.439V141.22C360.439 144.91 358.579 148.63 354.829 150.22L353.569 148.33C356.839 146.95 358.519 143.98 358.519 141.22V138.97ZM359.029 138.97H360.949V141.22C360.949 144.13 362.629 147.07 365.899 148.33L364.639 150.22C360.859 148.66 359.029 145.06 359.029 141.22V138.97ZM354.409 129.58H361.699V131.65H354.409V129.58ZM348.169 124.42C352.219 124.42 355.159 126.94 355.159 130.66C355.159 134.35 352.219 136.9 348.169 136.9C344.119 136.9 341.179 134.35 341.179 130.66C341.179 126.94 344.119 124.42 348.169 124.42ZM348.169 126.49C345.499 126.49 343.579 128.2 343.579 130.66C343.579 133.09 345.499 134.83 348.169 134.83C350.839 134.83 352.759 133.09 352.759 130.66C352.759 128.2 350.839 126.49 348.169 126.49ZM360.589 123.22H363.079V137.59H360.589V123.22ZM371.477 139.48H373.937V142.63H387.197V139.48H389.687V149.98H371.477V139.48ZM373.937 144.55V147.97H387.197V144.55H373.937ZM368.357 135.58H392.867V137.59H368.357V135.58ZM379.367 123.52H381.497V124.72C381.497 129.43 376.247 132.82 370.667 133.66L369.767 131.71C374.657 131.05 379.367 128.14 379.367 124.72V123.52ZM379.757 123.52H381.887V124.72C381.887 128.08 386.657 131.05 391.487 131.71L390.557 133.66C385.037 132.82 379.757 129.37 379.757 124.72V123.52ZM415.694 123.22H418.184V150.34H415.694V123.22ZM397.694 125.86H400.154V142.66H397.694V125.86ZM397.694 141.19H399.914C404.024 141.19 408.314 140.89 412.904 139.93L413.204 142.06C408.494 143.02 404.204 143.35 399.914 143.35H397.694V141.19ZM441.912 123.19H444.432V150.37H441.912V123.19ZM443.832 133.9H448.872V136H443.832V133.9ZM424.722 141.52H426.852C431.862 141.52 435.372 141.34 439.422 140.59L439.692 142.69C435.522 143.47 431.952 143.62 426.852 143.62H424.722V141.52ZM424.722 125.83H437.322V127.87H427.182V142.45H424.722V125.83Z" fill="white"/>
</svg>
