<svg width="209" height="209" viewBox="0 0 209 209" fill="none" xmlns="http://www.w3.org/2000/svg">
<rect width="209" height="209" fill="black"/>
<path d="M19.8 105.664H32.872V106.768H19.8V105.664ZM21.448 103.216H31.352V104.288H21.448V103.216ZM21.448 99.36H31.24V100.448H22.76V103.728H21.448V99.36ZM26.312 108.016C29.4 108.016 31.272 108.96 31.272 110.624C31.272 112.288 29.4 113.216 26.312 113.216C23.224 113.216 21.352 112.288 21.352 110.624C21.352 108.96 23.224 108.016 26.312 108.016ZM26.312 109.04C24.056 109.04 22.696 109.616 22.696 110.624C22.696 111.616 24.056 112.176 26.312 112.176C28.584 112.176 29.928 111.616 29.928 110.624C29.928 109.616 28.584 109.04 26.312 109.04ZM34.1028 106.736H47.2228V107.824H34.1028V106.736ZM35.7668 99.152H45.5268V102.656H37.1108V104.608H35.7988V101.68H44.2308V100.192H35.7668V99.152ZM35.7988 104.176H45.8468V105.216H35.7988V104.176ZM39.9908 104.72H41.3188V107.28H39.9908V104.72ZM35.5588 108.928H45.6228V113.12H44.2948V110.016H35.5588V108.928ZM49.7815 103.504H56.7575V104.592H49.7815V103.504ZM52.5655 104.16H53.8935V107.056H52.5655V104.16ZM49.7815 99.728H56.6615V100.816H51.1095V103.984H49.7815V99.728ZM58.9335 98.784H60.2615V109.6H58.9335V98.784ZM50.9175 111.84H60.7415V112.928H50.9175V111.84ZM50.9175 108.896H52.2295V112.304H50.9175V108.896ZM48.6775 107.776L48.5015 106.688C51.2855 106.688 54.8055 106.624 57.7815 106.272L57.8615 107.248C54.8055 107.696 51.3815 107.776 48.6775 107.776ZM77.3523 98.768H78.6803V113.264H77.3523V98.768ZM71.0483 99.888C73.1923 99.888 74.7283 101.856 74.7283 104.928C74.7283 108.016 73.1923 109.984 71.0483 109.984C68.9203 109.984 67.3843 108.016 67.3843 104.928C67.3843 101.856 68.9203 99.888 71.0483 99.888ZM71.0483 101.088C69.6403 101.088 68.6483 102.592 68.6483 104.928C68.6483 107.28 69.6403 108.816 71.0483 108.816C72.4723 108.816 73.4483 107.28 73.4483 104.928C73.4483 102.592 72.4723 101.088 71.0483 101.088ZM81.991 100.192H88.647V109.616H81.991V100.192ZM87.351 101.264H83.287V108.544H87.351V101.264ZM91.671 98.768H92.999V113.264H91.671V98.768ZM99.3177 100.848H100.39V103.2C100.39 106.256 98.5497 109.328 96.2457 110.464L95.4777 109.408C97.5737 108.416 99.3177 105.696 99.3177 103.2V100.848ZM99.5737 100.848H100.646V103.2C100.646 105.648 102.39 108.144 104.518 109.056L103.766 110.112C101.43 109.024 99.5737 106.208 99.5737 103.2V100.848ZM95.9577 100.256H104.038V101.376H95.9577V100.256ZM105.99 98.784H107.318V113.248H105.99V98.784ZM119.588 98.768H120.932V113.248H119.588V98.768ZM120.564 104.64H123.236V105.744H120.564V104.64ZM115.892 100.336H117.188C117.188 104.448 115.3 108.16 110.628 110.512L109.892 109.488C113.892 107.456 115.892 104.368 115.892 100.544V100.336ZM110.564 100.336H116.58V101.424H110.564V100.336ZM129.879 107.264H131.127V109.072H133.655V107.264H134.887V113.056H129.879V107.264ZM131.127 110.064V112.016H133.655V110.064H131.127ZM137.687 107.184H138.711V108.384C138.711 110.352 137.719 112.336 135.719 113.184L135.047 112.176C136.791 111.44 137.687 109.856 137.687 108.384V107.184ZM137.959 107.184H138.983V108.384C138.983 109.936 139.879 111.504 141.623 112.176L140.951 113.184C138.935 112.352 137.959 110.432 137.959 108.384V107.184ZM135.495 102.176H139.383V103.28H135.495V102.176ZM132.167 99.424C134.327 99.424 135.895 100.768 135.895 102.752C135.895 104.72 134.327 106.08 132.167 106.08C130.007 106.08 128.439 104.72 128.439 102.752C128.439 100.768 130.007 99.424 132.167 99.424ZM132.167 100.528C130.743 100.528 129.719 101.44 129.719 102.752C129.719 104.048 130.743 104.976 132.167 104.976C133.591 104.976 134.615 104.048 134.615 102.752C134.615 101.44 133.591 100.528 132.167 100.528ZM138.791 98.784H140.119V106.448H138.791V98.784ZM144.198 107.456H145.51V109.136H152.582V107.456H153.91V113.056H144.198V107.456ZM145.51 110.16V111.984H152.582V110.16H145.51ZM142.534 105.376H155.606V106.448H142.534V105.376ZM148.406 98.944H149.542V99.584C149.542 102.096 146.742 103.904 143.766 104.352L143.286 103.312C145.894 102.96 148.406 101.408 148.406 99.584V98.944ZM148.614 98.944H149.75V99.584C149.75 101.376 152.294 102.96 154.87 103.312L154.374 104.352C151.43 103.904 148.614 102.064 148.614 99.584V98.944ZM167.381 98.784H168.709V113.248H167.381V98.784ZM157.781 100.192H159.093V109.152H157.781V100.192ZM157.781 108.368H158.965C161.157 108.368 163.445 108.208 165.893 107.696L166.053 108.832C163.541 109.344 161.253 109.52 158.965 109.52H157.781V108.368ZM180.963 98.768H182.307V113.264H180.963V98.768ZM181.987 104.48H184.675V105.6H181.987V104.48ZM171.795 108.544H172.931C175.603 108.544 177.475 108.448 179.635 108.048L179.779 109.168C177.555 109.584 175.651 109.664 172.931 109.664H171.795V108.544ZM171.795 100.176H178.515V101.264H173.107V109.04H171.795V100.176ZM186.911 112.091C186.63 112.091 186.39 111.991 186.189 111.79C185.988 111.589 185.888 111.348 185.888 111.068C185.888 110.788 185.988 110.547 186.189 110.347C186.39 110.146 186.63 110.045 186.911 110.045C187.191 110.045 187.432 110.146 187.632 110.347C187.833 110.547 187.934 110.788 187.934 111.068C187.934 111.254 187.886 111.424 187.791 111.58C187.701 111.735 187.577 111.86 187.422 111.955C187.271 112.045 187.1 112.091 186.911 112.091Z" fill="white"/>
</svg>
