<svg width="20" height="20" viewBox="0 0 20 20" fill="none" xmlns="http://www.w3.org/2000/svg">
<path d="M3.33268 17.5C2.87435 17.5 2.48213 17.3369 2.15602 17.0108C1.8299 16.6847 1.66657 16.2922 1.66602 15.8333V4.16667C1.66602 3.70833 1.82935 3.31611 2.15602 2.99C2.48268 2.66389 2.8749 2.50056 3.33268 2.5H16.666C17.1243 2.5 17.5168 2.66333 17.8435 2.99C18.1702 3.31667 18.3332 3.70889 18.3327 4.16667V15.8333C18.3327 16.2917 18.1696 16.6842 17.8435 17.0108C17.5174 17.3375 17.1249 17.5006 16.666 17.5H3.33268ZM4.16602 14.1667H8.33268V12.5H4.16602V14.1667ZM12.1243 12.5L16.2493 8.375L15.0618 7.1875L12.1243 10.1458L10.9368 8.95833L9.77018 10.1458L12.1243 12.5ZM4.16602 10.8333H8.33268V9.16667H4.16602V10.8333ZM4.16602 7.5H8.33268V5.83333H4.16602V7.5Z" fill="black"/>
</svg>
