<svg width="983" height="386" viewBox="0 0 983 386" fill="none" xmlns="http://www.w3.org/2000/svg">
<g clip-path="url(#clip0_844_12528)">
<rect width="983" height="386" fill="#111111"/>
<path d="M11.3764 136.578C11.3308 137.624 11.437 138.679 11.5736 139.71C11.6646 140.454 11.3991 140.833 10.7088 140.977C8.83512 141.357 6.97662 141.781 5.08776 142.115C3.63888 142.373 3.25959 142.039 3.11547 140.552C3.05478 139.908 3.03961 139.255 3.00168 138.618C2.94099 134.135 4.52642 130.312 7.59106 127.073C8.69858 125.897 9.24476 125.813 10.6254 126.602C11.6722 127.209 12.7039 127.846 13.7279 128.484C14.4789 128.961 14.5093 129.159 13.9934 129.902C12.6052 131.912 11.4826 134.059 11.3688 136.57L11.3764 136.578Z" fill="white"/>
<path d="M46.4407 158.177C43.3381 159.261 40.2204 160.278 36.9282 160.619C36.3592 160.68 35.7979 160.68 35.2441 160.725C34.1745 160.801 33.0973 160.869 32.0353 160.991C31.2009 161.074 30.7533 160.809 30.7306 159.99C30.6851 158.154 30.6623 156.326 30.7306 154.497C30.7761 153.428 31.8533 152.472 32.9305 152.381C34.0304 152.298 35.1227 152.222 36.2227 152.138C36.1847 152.214 36.1468 152.29 36.1089 152.381C36.4806 152.783 36.7689 153.322 37.224 153.564C37.8612 153.891 38.4377 153.564 38.9308 153.033C39.7349 152.161 40.7741 151.706 41.9651 151.812C42.3444 151.835 42.9361 152.093 43.0043 152.358C43.0954 152.692 42.7995 153.17 42.5947 153.542C42.3671 153.951 41.9423 154.27 41.7755 154.695C41.4644 155.446 41.7299 156.257 42.3444 156.637C42.8147 156.94 43.6112 156.986 44.1498 156.819C44.9387 156.576 45.007 155.734 45.0525 154.991C45.0601 154.702 44.9766 154.406 45.098 154.035C45.7352 155.013 46.4179 155.961 46.9944 156.97C47.2979 157.494 47.2069 157.919 46.4634 158.177H46.4407Z" fill="white"/>
<path d="M17.3692 153.104C16.7168 153.992 16.0265 154.849 15.3589 155.736C15.0024 156.222 14.6535 156.73 14.4031 157.102C13.8721 156.662 13.3336 156.146 12.7191 155.721C9.3131 153.385 6.23328 150.73 4.5189 146.823C4.38995 146.535 4.26099 146.224 4.19272 145.913C3.85894 144.441 4.16996 143.88 5.59608 143.44C7.26495 142.916 8.93381 142.408 10.6179 141.923C11.7633 141.589 12.1653 141.725 12.8177 142.674C13.4929 143.645 14.168 144.608 14.7824 145.632C14.9721 145.943 15.0328 146.413 14.9569 146.762C14.6383 148.196 14.168 149.584 13.0074 150.578C12.6053 150.919 12.1047 151.147 11.6647 151.42C10.9289 151.868 10.5648 152.702 10.8075 153.415C11.0275 154.083 11.8543 154.614 12.5977 154.553C13.3411 154.492 13.7963 154.052 14.0845 153.377C14.5018 152.383 15.8444 151.693 16.8761 151.898C17.6802 152.05 17.8698 152.452 17.3843 153.112L17.3692 153.104Z" fill="white"/>
<path d="M60.6874 138.917C60.6191 139.722 60.5963 140.533 60.4598 141.322C60.3005 142.248 59.7922 142.604 58.9047 142.377C56.7428 141.823 54.6036 141.201 52.4492 140.609C51.9713 140.48 51.8196 140.184 51.9106 139.699C52.3658 137.362 52.0244 135.094 51.2658 132.872C50.9017 131.81 51.0155 131.582 52.0699 131.172C53.443 130.634 54.8236 130.095 56.2193 129.595C57.342 129.192 57.8199 129.397 58.4192 130.437C59.9288 133.061 60.7025 135.883 60.6949 138.917H60.6874Z" fill="white"/>
<path d="M15.5859 158.111C15.7528 156.351 17.1107 155.13 18.0513 153.673C18.1499 153.666 18.2561 153.658 18.3547 153.651C18.5065 154.098 18.6658 154.538 18.8175 154.986C18.8326 155.031 18.8099 155.092 18.8175 155.145C18.8326 156.01 19.4319 156.867 20.1677 157.064C20.7974 157.231 21.4801 156.867 21.8973 156.154C22.3297 155.411 22.2235 154.553 21.6242 153.924C21.5711 153.863 21.4877 153.825 21.4497 153.757C21.207 153.37 20.9642 152.983 20.7215 152.596C21.1994 152.437 21.7228 152.065 22.1552 152.149C23.0276 152.316 23.9682 152.566 24.6737 153.074C26.1757 154.151 27.0101 153.969 27.5638 152.202C29.3465 152.08 30.052 152.778 29.9609 154.531C29.9003 155.767 29.9761 157.019 29.832 158.248C29.7561 158.93 29.4451 159.628 29.0658 160.205C28.8762 160.501 28.3072 160.721 27.9204 160.713C24.3096 160.599 20.8049 159.947 17.4369 158.604C16.8603 158.377 16.2383 158.278 15.5935 158.119L15.5859 158.111Z" fill="white"/>
<path d="M53.1137 153.232C53.1061 151.935 52.4234 151.487 51.5131 151.146C50.4663 150.759 48.9567 148.233 49.0174 147.095C49.0326 146.845 49.2146 146.602 49.2829 146.344C49.4346 145.737 49.4422 145.062 49.7229 144.524C50.2539 143.522 50.8987 142.574 51.589 141.679C51.7255 141.504 52.3248 141.588 52.6586 141.694C54.5398 142.324 56.4211 142.984 58.2872 143.666C59.1368 143.977 59.2809 144.357 58.9775 145.252C58.3024 147.277 57.0811 148.984 55.7004 150.577C54.9495 151.449 54.0923 152.231 53.1137 153.224V153.232Z" fill="white"/>
<path d="M25.7504 121.465C23.376 120.448 21.5706 120.676 20.2507 122.147C19.4239 123.065 18.9156 124.142 18.8094 125.409C18.7867 125.72 18.5439 126.107 18.286 126.282C17.4971 126.835 16.6399 127.291 15.8206 127.822C15.3427 128.133 14.9179 128.072 14.4779 127.761C13.3401 126.949 12.1795 126.16 11.0492 125.341C10.3437 124.833 10.283 124.552 10.9581 124.029C12.3388 122.967 13.7345 121.897 15.2441 121.032C17.6791 119.629 20.3341 118.734 23.0726 118.112C23.9905 117.907 24.6884 118.256 24.9994 119.121C25.2573 119.841 25.4621 120.592 25.7352 121.465H25.7504Z" fill="white"/>
<path d="M48.452 121.594C48.9754 121.768 49.5367 121.874 50.0146 122.14C52.1993 123.354 54.0958 124.924 55.6736 126.873C55.8405 127.078 55.9922 127.306 56.1287 127.541C56.417 128.019 56.3487 128.429 55.8101 128.656C54.1565 129.369 52.5028 130.09 50.8339 130.75C50.5987 130.841 50.1663 130.697 49.9539 130.515C48.4899 129.217 47.0789 127.86 45.6149 126.555C44.9246 125.933 44.7349 124.643 45.3039 123.892C45.5997 123.505 45.9183 123.141 46.199 122.747C46.7527 121.996 47.4431 121.563 48.452 121.601V121.594Z" fill="white"/>
<path d="M38.8047 117.625C38.3496 118.976 37.9703 120.068 37.6213 121.168C37.5 121.547 37.3483 121.699 36.931 121.593C35.3911 121.206 33.836 121.244 32.281 121.494C32.1217 121.517 31.9548 121.517 31.7955 121.494C30.0963 121.206 28.4198 121.206 26.6827 121.828C26.4854 121.1 26.273 120.47 26.1593 119.825C26.1289 119.628 26.3337 119.325 26.5158 119.173C28.1316 117.777 29.8839 116.791 32.1444 117.049C34.3291 117.292 36.5214 117.436 38.8047 117.633V117.625Z" fill="white"/>
<path d="M38.1172 121.433C38.4585 120.432 38.7544 119.544 39.073 118.657C39.2475 118.171 39.5812 117.898 40.135 118.072C41.948 118.641 43.7762 119.18 45.5816 119.802C46.4767 120.113 46.545 120.485 46.014 121.258C45.5285 121.956 45.0278 122.647 44.5271 123.352C42.3956 120.735 41.2729 120.394 38.1248 121.433H38.1172Z" fill="white"/>
<path d="M51.3781 154.752C50.6726 155.192 49.9747 155.632 49.2693 156.056C48.7307 156.375 48.2148 156.291 47.8052 155.852C47.2059 155.207 46.6218 154.532 46.0832 153.834C45.4764 153.037 45.8481 152.112 46.8342 151.823C47.7445 151.558 49.2313 152.127 49.6106 152.999C49.9672 153.819 50.392 154.471 51.4084 154.539C51.4009 154.607 51.3857 154.683 51.3781 154.752Z" fill="white"/>
<path d="M42.6617 123.01C42.1155 123.094 41.6604 123.162 41.137 123.245C42.0928 123.701 43.4734 122.987 43.9589 124.489C43.8375 124.467 43.7541 124.467 43.6782 124.436C42.3128 123.898 41.357 124.103 40.3329 125.187C40.2191 125.301 40.1584 125.498 40.0295 125.551C39.7336 125.68 39.415 125.756 39.104 125.847C39.0737 125.544 38.9826 125.233 39.0281 124.945C39.3392 123.063 41.319 122.236 42.4038 122.76C42.4721 122.79 42.5176 122.858 42.6693 123.003L42.6617 123.01Z" fill="white"/>
<path d="M24.4104 124.223C24.3118 124.746 24.2056 125.269 24.1297 125.679C23.5684 125.292 22.916 124.754 22.1726 124.382C21.3609 123.972 20.5189 123.972 19.8438 124.769C20.2155 123.798 20.6858 122.918 21.8312 122.713C22.9312 122.508 23.9628 123.077 24.6152 124.185C24.5469 124.2 24.4786 124.215 24.4104 124.23V124.223Z" fill="white"/>
<path d="M20 126.723C21.0999 127.929 22.253 127.656 23.5198 127.178C22.2378 128.452 20.6069 128.278 20 126.723Z" fill="white"/>
<path d="M40.1406 127.062C41.2481 127.7 42.3784 127.92 43.6983 127.123C42.7501 128.413 41.2406 128.337 40.1406 127.062Z" fill="white"/>
<path d="M19.4734 148.707C19.6176 149.648 19.7314 150.71 19.9438 151.757C20.1258 152.682 20.2396 153.646 21.203 154.237C21.6202 154.495 21.734 155.064 21.3395 155.519C20.9147 156.012 20.3534 156.096 19.7996 155.792C19.3217 155.535 19.3217 155.102 19.4583 154.594C19.5645 154.192 19.6327 153.691 19.4962 153.32C18.9045 151.689 18.2294 150.08 17.5694 148.427C16.2571 149.565 15.0813 150.558 13.9283 151.582C13.6476 151.833 13.3973 152.083 13.549 152.606C13.7007 153.137 13.2911 153.524 12.7373 153.593C12.1532 153.668 11.6374 153.509 11.4629 152.872C11.3112 152.311 11.5918 151.878 12.1153 151.734C13.6703 151.317 14.4062 150.058 15.0889 148.806C15.4833 148.085 15.6957 147.251 15.9006 146.447C15.984 146.113 15.9233 145.696 15.8019 145.362C14.6261 142.176 14.0572 138.929 14.6261 135.531C14.6792 135.228 14.6034 134.894 14.5503 134.583C14.4213 133.832 14.6261 133.119 15.3165 132.884C16.5302 132.466 17.8046 132.231 19.0562 131.958C19.261 131.913 19.5114 132.057 19.6024 132.079C19.6024 132.307 19.5417 132.489 19.61 132.572C20.0727 133.126 20.5582 133.665 21.1575 134.348C19.5265 134.886 18.0246 135.106 16.3785 134.408C17.8804 137.169 17.5239 140.12 17.706 142.98C17.8122 144.702 18.4039 145.969 19.83 146.993C21.5064 148.192 22.9098 149.785 24.9655 150.414C25.2083 150.49 25.4814 150.558 25.7241 150.536C26.3917 150.467 26.9227 150.725 26.953 151.37C26.9682 151.711 26.6116 152.242 26.2855 152.394C25.6938 152.667 25.0641 152.303 24.9428 151.727C24.8138 151.135 24.4573 151.036 24.0552 150.854C22.5077 150.134 20.9603 149.405 19.4734 148.707Z" fill="white"/>
<path d="M47.6749 134.403C45.8239 135.003 44.2461 134.904 42.509 134.312C43.3434 133.554 44.0489 132.917 45.0274 132.029C46.0136 131.999 47.3638 132.355 48.6382 132.932C49.3058 133.235 49.5334 133.88 49.3892 134.646C49.3134 135.033 49.3058 135.45 49.3589 135.845C49.7837 139.099 49.3741 142.232 48.13 145.266C47.9707 145.661 47.8721 146.169 47.9707 146.571C48.3803 148.263 48.9796 149.878 50.3678 151.047C50.7395 151.358 51.1871 151.608 51.627 151.813C52.1429 152.048 52.5373 152.313 52.3932 152.951C52.2718 153.489 51.627 153.884 51.0733 153.74C50.4664 153.58 50.1857 153.201 50.3147 152.533C50.3526 152.329 50.2692 152.01 50.1251 151.873C49.3816 151.176 48.5927 150.523 47.8266 149.848C47.3714 149.446 46.9163 149.036 46.2867 148.475C45.657 149.962 45.0047 151.396 44.4433 152.86C44.2157 153.444 43.8668 154.051 44.3826 154.748C44.5116 154.923 44.2082 155.712 43.973 155.788C43.5634 155.917 42.9641 155.833 42.6076 155.598C42.4028 155.462 42.3193 154.635 42.4938 154.491C43.844 153.383 43.753 151.782 44.0489 150.311C44.1626 149.734 44.2688 149.158 44.3599 148.672C42.7669 149.416 41.1208 150.167 39.4898 150.963C39.2698 151.069 39.065 151.327 38.9892 151.562C38.7843 152.2 38.3899 152.511 37.7299 152.458C37.1838 152.412 36.8045 152.109 36.7817 151.54C36.7665 150.94 37.1307 150.538 37.7148 150.531C39.414 150.508 40.696 149.598 41.9628 148.642C42.8427 147.982 43.6696 147.246 44.5571 146.594C45.4522 145.934 46.0439 145.145 46.0667 143.977C46.1046 142.277 46.1425 140.586 46.2715 138.894C46.3929 137.385 46.408 135.83 47.6673 134.411L47.6749 134.403Z" fill="white"/>
<path d="M42.2385 129.836C41.6392 129.874 41.0475 129.904 40.4482 129.942C40.4331 129.988 40.4255 130.026 40.4103 130.071C40.8199 130.215 41.222 130.42 41.6468 130.496C42.0337 130.572 42.4509 130.511 43.0502 130.671C43.2474 130.162 43.437 129.662 43.6267 129.176C44.6204 129.737 44.7797 130.883 43.6874 131.452C42.2916 132.18 40.8048 132.795 39.2876 133.204C36.405 133.986 33.4769 134.683 30.4426 134.35C27.4614 134.023 24.5333 133.424 21.7342 132.324C21.3625 132.18 20.9984 131.983 20.6494 131.778C19.2309 130.951 19.1399 130.306 20.1563 129.131C20.7329 129.609 21.2487 130.238 21.9087 130.488C22.341 130.655 22.9782 130.268 23.532 130.132C23.5168 130.056 23.5092 129.98 23.4941 129.904C22.9176 129.874 22.341 129.844 21.7645 129.806C23.0238 129.715 24.1237 129.32 24.8368 128.22C25.5119 127.181 25.7243 126.028 25.4664 124.814C25.0188 122.69 23.2817 121.765 20.8922 122.379C22.2955 120.809 24.8747 121.067 26.3615 122.91C26.6877 123.312 27.0746 123.676 27.4311 124.056C27.4918 124.01 27.5525 123.965 27.6131 123.919C27.3249 123.456 27.0442 122.994 26.718 122.47C27.8635 122.061 28.9634 121.909 30.1316 121.97C31.3833 122.03 32.6501 121.947 33.9017 121.985C34.9941 122.015 36.0788 122.129 37.3608 122.228C36.9057 122.91 36.5871 123.388 36.2685 123.859C36.3216 123.912 36.3747 123.957 36.4278 124.01C36.8981 123.54 37.376 123.077 37.8312 122.592C39.0297 121.302 40.6986 121.029 42.2385 121.886C42.4281 121.992 42.6026 122.144 42.9288 122.379C40.16 121.894 38.6049 122.918 38.2711 125.262C37.907 127.826 39.3104 129.426 42.2233 129.851L42.2385 129.836ZM43.8011 130.997C35.9271 133.599 28.0835 133.932 20.2094 130.959C23.9644 132.825 28.0304 133.819 32.0963 133.728C36.0788 133.637 40.0993 132.802 43.7936 130.997H43.8011Z" fill="white"/>
<path d="M47.0965 134.402C47.0055 134.531 45.9207 135.783 40.9976 135.646C40.148 135.624 39.3211 135.866 38.6157 136.344C37.4171 137.148 35.1262 138.301 31.8567 138.301C28.5873 138.301 26.304 137.148 25.0978 136.344C24.3924 135.874 23.5655 135.624 22.7159 135.646C17.5576 135.783 16.617 134.41 16.6094 134.395C16.6245 134.41 16.799 134.508 19.3251 134.691C22.0559 134.888 21.5553 134.137 21.0698 133.803C20.5843 133.469 19.3402 132.536 19.3251 132.21C19.3099 131.891 19.9699 132.036 20.5919 132.354C21.2139 132.68 23.8234 134.546 24.1648 134.835C24.4986 135.115 25.9095 136.079 25.1054 135.222C24.3013 134.357 22.6021 132.771 24.3848 133.553C25.7957 134.175 29.6493 134.857 31.1968 135.115C31.6292 135.191 32.0767 135.191 32.5091 135.115C34.0566 134.857 37.9102 134.175 39.3211 133.553C41.1114 132.771 39.4046 134.357 38.6005 135.222C37.804 136.079 39.2073 135.115 39.5487 134.835C39.8825 134.546 42.492 132.673 43.114 132.354C43.736 132.036 44.396 131.891 44.3808 132.21C44.3657 132.536 43.114 133.469 42.6361 133.803C42.1582 134.137 41.6575 134.888 44.3808 134.691C46.7476 134.516 47.051 134.417 47.0889 134.402H47.0965Z" fill="#6D6D6D"/>
<path d="M97.6051 134.809C97.6051 139.133 95.5039 141.552 91.6579 141.552H80.0365V150.238H76.0692V141.552H76.0312V128.148H91.6579C95.5039 128.148 97.6051 130.53 97.6051 134.809ZM89.716 137.987C92.2572 137.987 93.6454 136.88 93.6454 134.854C93.6454 132.829 92.2572 131.721 89.716 131.721H80.082V137.987H89.716Z" fill="white"/>
<path d="M116.716 138.062V141.673H101.727V138.062H116.716Z" fill="white"/>
<path d="M144.215 134.809C144.215 137.304 143.501 139.132 142.189 140.278C143.812 142.303 144.609 145.633 144.609 150.268H140.642C140.642 143.805 139.291 141.583 135.127 141.583H126.684V150.268H122.641V128.141H138.267C142.113 128.141 144.215 130.523 144.215 134.801V134.809ZM136.325 137.987C138.867 137.987 140.247 136.879 140.247 134.854C140.247 132.829 138.859 131.721 136.325 131.721H126.691V137.987H136.325Z" fill="white"/>
<path d="M158.982 127.398C166.712 127.398 171.036 132.633 171.036 139.02C171.036 145.407 166.712 150.641 158.982 150.641C151.252 150.641 146.891 145.407 146.891 139.02C146.891 132.633 151.215 127.398 158.982 127.398ZM167.069 139.02C167.069 134.142 164.573 130.971 158.982 130.971C153.392 130.971 150.85 134.142 150.85 139.02C150.85 143.897 153.346 147.068 158.982 147.068C164.619 147.068 167.069 143.897 167.069 139.02Z" fill="white"/>
<path d="M197.577 138.541V142.152C196.386 148.258 191.433 150.64 185.402 150.64C177.786 150.64 173.508 145.527 173.508 139.178C173.508 132.48 177.794 127.359 185.402 127.359C191.987 127.359 196.068 130.174 197.024 135.37H193.056C192.343 132.04 189.885 130.932 185.44 130.932C179.774 130.932 177.468 133.906 177.468 139.178C177.468 144.094 179.766 147.067 185.44 147.067C189.362 147.067 192.654 146.271 193.489 142.152H185.797V138.541H197.57H197.577Z" fill="white"/>
<path d="M12.9088 189.245L13.8874 185.789H14.8301L14.1298 189.245H12.9088ZM10.5028 189.254L11.4814 185.798H12.424L11.7238 189.254H10.5028ZM21.5916 185.825V186.66H17.4169V192.414C19.4504 192.41 20.7926 192.347 22.3637 192.046L22.4804 192.872C20.8195 193.186 19.4459 193.258 17.2822 193.258H16.4114V185.825H21.5916ZM20.9183 189.685V188.85H24.2132V184.747H25.2097V196.05H24.2132V189.685H20.9183ZM31.3637 185.322V189.335C33.1279 189.339 34.6182 189.236 36.2746 188.904L36.4183 189.739C34.6406 190.089 33.1054 190.179 31.229 190.179H30.3672V185.322H31.3637ZM31.0585 192.082V191.319H34.7214V193.878H32.064V195.117C33.285 195.112 34.0167 195.09 34.9728 194.919L35.0626 195.691C34.0032 195.88 33.1862 195.907 31.6779 195.907H31.0854V193.151H33.7608V192.082H31.0585ZM34.7933 187.459V186.633H38.0522V184.747H39.0488V190.762H38.0522V187.459H34.7933ZM35.4127 195.907V191.184H36.3375V192.666H38.133V191.184H39.0488V195.907H35.4127ZM36.3375 195.108H38.133V193.447H36.3375V195.108ZM50.8928 190.7V191.508H40.6042V190.7H50.8928ZM41.7444 187.378C41.7444 185.968 43.2975 185.133 45.7395 185.142C48.1725 185.133 49.7257 185.968 49.7257 187.378C49.7257 188.787 48.1725 189.631 45.7395 189.631C43.2975 189.631 41.7444 188.787 41.7444 187.378ZM41.9329 195.781V192.504H42.9384V194.955H49.7437V195.781H41.9329ZM42.7768 187.378C42.7678 188.276 43.926 188.814 45.7395 188.814C47.5531 188.814 48.7112 188.276 48.7112 187.378C48.7112 186.498 47.5531 185.95 45.7395 185.95C43.926 185.95 42.7678 186.498 42.7768 187.378ZM64.7678 191.211V192.055H60.0634V196.032H59.0848V192.055H54.4343V191.211H64.7678ZM55.6104 187.683C55.6104 186.157 57.2084 185.205 59.5786 185.196C61.9488 185.205 63.5558 186.157 63.5558 187.683C63.5558 189.191 61.9488 190.143 59.5786 190.143C57.2084 190.143 55.6104 189.191 55.6104 187.683ZM56.6338 187.683C56.6249 188.689 57.8189 189.335 59.5786 189.335C61.3383 189.335 62.5323 188.689 62.5323 187.683C62.5323 186.669 61.3383 186.013 59.5786 186.013C57.8189 186.013 56.6249 186.669 56.6338 187.683ZM75.6512 189.515V190.323H70.9917V191.445H74.3225V193.968H67.616V195.117H74.6637V195.907H66.6374V193.222H73.3439V192.217H66.6105V191.445H69.9952V190.323H65.3626V189.515H75.6512ZM66.7003 188.563V185.124H74.3135V188.563H66.7003ZM67.6789 187.764H73.317V185.923H67.6789V187.764ZM88.0359 184.747V187.584H89.7327V188.437H88.0359V191.382H87.0393V184.747H88.0359ZM79.6954 190.655V185.421H80.674V187.153H83.9599V185.421H84.9475V190.655H79.6954ZM80.3867 192.747V191.93H83.9868V196.023H83.0083V192.747H80.3867ZM80.674 189.847H83.9599V187.943H80.674V189.847ZM84.5345 192.747V191.93H88.0359V196.023H87.0483V192.747H84.5345ZM96.4074 187.952C96.4074 189.748 97.2872 191.687 98.7866 192.576L98.212 193.348C97.1212 192.693 96.3446 191.485 95.9451 190.116C95.5321 191.611 94.6971 192.904 93.5704 193.59L92.933 192.845C94.4951 191.93 95.4468 189.927 95.4468 187.997V185.807H96.4074V187.952ZM97.5386 189.64V188.796H99.4509V184.99H100.394V195.458H99.4509V189.64H97.5386ZM101.767 196.032V184.747H102.728V196.032H101.767ZM107.74 186.57C107.74 188.105 108.907 189.515 110.541 190.071L110.002 190.861C108.754 190.403 107.767 189.47 107.277 188.294C106.793 189.627 105.783 190.668 104.463 191.175L103.924 190.376C105.621 189.748 106.752 188.24 106.761 186.498V185.331H107.74V186.57ZM105.432 193.95C105.432 192.657 106.851 191.903 109.176 191.903C111.492 191.903 112.893 192.657 112.893 193.95C112.893 195.26 111.492 196.006 109.176 196.006C106.851 196.006 105.432 195.26 105.432 193.95ZM106.429 193.95C106.42 194.749 107.47 195.206 109.176 195.215C110.882 195.206 111.923 194.749 111.923 193.95C111.923 193.177 110.882 192.702 109.176 192.702C107.47 192.702 106.42 193.177 106.429 193.95ZM111.798 191.615V184.747H112.794V187.692H114.491V188.527H112.794V191.615H111.798ZM120.015 185.474C122.376 185.483 124.145 186.713 124.145 188.581C124.145 190.457 122.376 191.687 120.015 191.678C117.663 191.687 115.894 190.457 115.894 188.581C115.894 186.713 117.663 185.483 120.015 185.474ZM114.879 194.524V193.689H125.213V194.524H114.879ZM116.846 188.581C116.837 189.945 118.201 190.861 120.015 190.861C121.828 190.861 123.184 189.945 123.184 188.581C123.184 187.225 121.828 186.282 120.015 186.291C118.201 186.282 116.837 187.225 116.846 188.581ZM136.123 193.788V194.632H125.79V193.788H130.431V191.66H127.083V188.177H133.834V186.408H127.056V185.582H134.821V188.994H128.07V190.834H135.082V191.66H131.419V193.788H136.123ZM139.034 185.825L138.056 189.281H137.113L137.813 185.825H139.034ZM139.519 189.272L140.219 185.816H141.44L140.462 189.272H139.519Z" fill="white"/>
<path d="M1.33356 217.934C1.33356 219.784 2.23135 221.696 3.73964 222.513L3.13812 223.303C2.04282 222.675 1.26174 221.521 0.857735 220.161C0.440263 221.638 -0.394682 222.904 -1.52141 223.573L-2.16782 222.845C-0.596685 221.939 0.372928 219.927 0.372928 217.997V215.807H1.33356V217.934ZM4.15262 225.458V214.99H5.11326V219.29H6.66644V214.747H7.62707V226.032H6.66644V220.116H5.11326V225.458H4.15262ZM19.2018 223.788V224.632H8.86822V223.788H13.5098V221.66H10.161V218.177H16.9124V216.408H10.1341V215.582H17.9V218.994H11.1486V220.834H18.1604V221.66H14.4974V223.788H19.2018ZM30.0942 220.484V221.31H25.5155V223.617H24.5099V221.31H19.7606V220.484H30.0942ZM20.9367 217.306C20.9277 215.905 22.5079 215.044 24.9139 215.035C27.329 215.044 28.8911 215.905 28.8911 217.306C28.8911 218.698 27.329 219.559 24.9139 219.559C22.5079 219.559 20.9277 218.698 20.9367 217.306ZM21.0983 225.781V222.486H22.0949V224.937H28.945V225.781H21.0983ZM21.9961 217.306C21.9871 218.186 23.1632 218.742 24.9139 218.742C26.6736 218.742 27.8407 218.186 27.8407 217.306C27.8407 216.408 26.6736 215.852 24.9139 215.852C23.1632 215.852 21.9871 216.408 21.9961 217.306ZM42.9457 214.756V223.007H41.9491V214.756H42.9457ZM33.887 218.311C33.887 216.686 35.1618 215.546 36.8497 215.546C38.5375 215.546 39.8034 216.686 39.8034 218.311C39.8034 219.954 38.5375 221.095 36.8497 221.086C35.1618 221.095 33.887 219.954 33.887 218.311ZM34.8656 218.311C34.8566 219.434 35.7095 220.215 36.8497 220.215C37.9719 220.215 38.8338 219.434 38.8338 218.311C38.8338 217.207 37.9719 216.417 36.8497 216.417C35.7095 216.417 34.8566 217.207 34.8656 218.311ZM35.6556 225.781V222.163H36.6522V224.955H43.2958V225.781H35.6556ZM48.3256 217.782C48.3167 219.766 49.6364 221.813 51.2435 222.603L50.624 223.402C49.385 222.751 48.3481 221.413 47.8453 219.847C47.3426 221.512 46.2742 222.935 45.0038 223.617L44.3754 222.818C46.0183 222.001 47.3291 219.838 47.3381 217.782V215.726H48.3256V217.782ZM52.2759 226.032V214.747H53.2725V219.326H55.1578V220.188H53.2725V226.032H52.2759ZM64.7484 214.747V226.05H63.7519V214.747H64.7484ZM55.8693 219.55C55.8693 217.153 57.0633 215.627 58.7512 215.618C60.4211 215.627 61.6331 217.153 61.6331 219.55C61.6331 221.956 60.4211 223.483 58.7512 223.483C57.0633 223.483 55.8693 221.956 55.8693 219.55ZM56.8299 219.55C56.8299 221.391 57.62 222.594 58.7512 222.594C59.8824 222.594 60.6635 221.391 60.6635 219.55C60.6635 217.719 59.8824 216.516 58.7512 216.507C57.62 216.516 56.8299 217.719 56.8299 219.55ZM75.4972 220.843V221.66H67.6954V215.726H75.3715V216.552H68.7009V218.231H75.1291V219.039H68.7009V220.843H75.4972ZM66.3577 224.56V223.725H76.6912V224.56H66.3577ZM80.6707 215.483C82.4034 215.492 83.6693 216.561 83.6783 218.132C83.6693 219.546 82.6413 220.556 81.1734 220.74V222.661C82.2283 222.612 83.2877 222.536 84.2708 222.405L84.3426 223.16C81.9455 223.564 79.2791 223.59 77.295 223.573L77.1244 222.738C78.0356 222.733 79.0861 222.729 80.1769 222.697V220.744C78.6731 220.56 77.6541 219.55 77.6631 218.132C77.6541 216.561 78.902 215.492 80.6707 215.483ZM78.6327 218.132C78.6237 219.191 79.4856 219.927 80.6707 219.919C81.8378 219.927 82.6907 219.191 82.6997 218.132C82.6907 217.073 81.8378 216.345 80.6707 216.336C79.4856 216.345 78.6237 217.073 78.6327 218.132ZM84.998 226.032V214.747H85.9856V219.407H87.826V220.26H85.9856V226.032H84.998ZM100.444 214.747V226.032H99.4476V214.747H100.444ZM91.0981 222.378C91.5874 222.378 92.1171 222.378 92.6693 222.369V216.794H91.3944V215.968H97.8405V216.794H96.5657V222.226C97.2031 222.181 97.8315 222.127 98.4331 222.055L98.4869 222.8C96.027 223.186 93.3067 223.222 91.2148 223.231L91.0981 222.378ZM93.6389 222.352C94.2763 222.338 94.9317 222.316 95.5871 222.284V216.794H93.6389V222.352ZM111.139 220.17V220.996H103.346V215.798H111.031V216.624H104.334V220.17H111.139ZM102.026 224.488V223.653H112.36V224.488H102.026ZM114.4 215.465V217.261H116.914V215.465H117.848V220.727H113.457V215.465H114.4ZM114.4 219.901H116.914V218.051H114.4V219.901ZM114.912 223.034V222.208H122.516V226.032H121.538V223.034H114.912ZM119.132 221.454V214.972H120.065V217.692H121.574V214.756H122.516V221.526H121.574V218.518H120.065V221.454H119.132ZM128.982 214.945C131.496 214.945 132.969 215.636 132.969 216.893C132.969 218.168 131.496 218.859 128.982 218.868C126.469 218.859 124.987 218.168 124.987 216.893C124.987 215.636 126.469 214.945 128.982 214.945ZM123.847 220.439V219.631H134.136V220.439H123.847ZM125.095 222.181V221.418H132.807V223.941H126.101V225.117H133.148V225.907H125.122V223.204H131.828V222.181H125.095ZM126.029 216.893C126.02 217.674 127.115 218.105 128.982 218.105C130.859 218.105 131.954 217.674 131.954 216.893C131.954 216.148 130.859 215.699 128.982 215.699C127.115 215.699 126.02 216.148 126.029 216.893ZM146.52 214.747V217.468H148.217V218.311H146.52V221.346H145.524V214.747H146.52ZM138.18 220.637V215.385H139.159V217.117H142.444V215.385H143.432V220.637H138.18ZM139.159 219.829H142.444V217.916H139.159V219.829ZM139.428 225.871V221.974H146.61V222.773H140.424V225.063H146.826V225.871H139.428ZM151.622 215.618C153.292 215.627 154.468 217.153 154.477 219.55C154.468 221.956 153.292 223.483 151.622 223.483C149.952 223.483 148.776 221.956 148.785 219.55C148.776 217.153 149.952 215.627 151.622 215.618ZM149.728 219.55C149.728 221.391 150.509 222.594 151.622 222.594C152.753 222.594 153.516 221.391 153.516 219.55C153.516 217.719 152.753 216.516 151.622 216.507C150.509 216.516 149.728 217.719 149.728 219.55ZM156.344 226.032V214.747H157.341V219.254H159.226V220.107H157.341V226.032H156.344ZM173.021 219.254V220.089H171.189V226.023H170.193V214.747H171.189V219.254H173.021ZM162.92 223.16V215.86H163.908V222.325C165.56 222.32 167.248 222.19 169.106 221.804L169.232 222.657C167.284 223.043 165.533 223.16 163.818 223.16H162.92ZM177.054 215.573C178.831 215.573 180.088 216.651 180.097 218.222C180.088 219.793 178.831 220.87 177.054 220.87C175.276 220.87 174.001 219.793 174.01 218.222C174.001 216.651 175.276 215.573 177.054 215.573ZM173.427 222.711C175.51 222.72 178.383 222.702 180.878 222.334L180.959 223.07C178.374 223.555 175.599 223.564 173.561 223.564L173.427 222.711ZM174.989 218.222C174.98 219.272 175.851 219.999 177.054 219.999C178.248 219.999 179.119 219.272 179.119 218.222C179.119 217.171 178.248 216.444 177.054 216.444C175.851 216.444 174.98 217.171 174.989 218.222ZM181.624 226.05V214.747H182.62V226.05H181.624ZM197.546 223.725V224.578H187.212V223.725H197.546ZM188.128 216.713V215.887H196.558V216.713H194.762V220.664H196.531V221.472H188.146V220.664H189.914V216.713H188.128ZM190.902 220.664H193.784V216.713H190.902V220.664ZM208.456 223.788V224.632H198.122V223.788H202.764V221.66H199.415V218.177H206.167V216.408H199.388V215.582H207.154V218.994H200.403V220.834H207.414V221.66H203.751V223.788H208.456ZM216.421 214.999V221.544H215.461V218.482H213.728V217.656H215.461V214.999H216.421ZM209.078 220.583C210.55 219.963 211.412 218.509 211.412 217.162V216.498H209.302V215.672H214.366V216.498H212.372V217.162C212.372 218.392 213.198 219.73 214.626 220.323L214.105 221.095C213.046 220.646 212.305 219.802 211.915 218.828C211.52 219.927 210.734 220.875 209.616 221.373L209.078 220.583ZM211.008 222.962V222.145H218.612V226.032H217.634V222.962H211.008ZM217.669 221.642V214.747H218.612V221.642H217.669ZM229.083 220.843V221.66H221.281V215.726H228.957V216.552H222.286V218.231H228.714V219.039H222.286V220.843H229.083ZM219.943 224.56V223.725H230.277V224.56H219.943ZM241.169 219.99V220.771H230.835V219.99H241.169ZM232.083 222.423V221.678H239.876V224.075H233.098V225.153H240.244V225.88H232.101V223.384H238.889V222.423H232.083ZM232.146 215.807V215.088H239.84V217.423H233.17V218.41H240.038V219.137H232.182V216.74H238.844V215.807H232.146ZM255.035 223.752V224.587H244.701V223.752H249.343V221.319H245.922V215.546H246.919V217.584H252.782V215.546H253.769V221.319H250.331V223.752H255.035ZM246.919 220.502H252.782V218.401H246.919V220.502ZM264.347 214.747V219.209H266.233V220.044H264.347V226.05H263.351V214.747H264.347ZM256.106 223.222V215.852H261.376V216.669H257.102V222.378C259.145 222.374 260.59 222.293 262.264 221.983L262.39 222.845C260.621 223.16 259.14 223.222 256.994 223.222H256.106ZM273.338 216.525C273.329 218.132 274.478 219.55 276.139 220.107L275.583 220.888C274.335 220.421 273.356 219.506 272.867 218.316C272.387 219.667 271.354 220.718 269.99 221.229L269.451 220.421C271.184 219.811 272.342 218.311 272.351 216.561V215.394H273.338V216.525ZM271.291 223.896C271.282 222.54 272.719 221.759 275.071 221.759C277.414 221.759 278.851 222.54 278.851 223.896C278.851 225.242 277.414 226.006 275.071 226.006C272.719 226.006 271.282 225.242 271.291 223.896ZM272.279 223.896C272.27 224.713 273.338 225.206 275.071 225.206C276.795 225.206 277.863 224.713 277.863 223.896C277.863 223.052 276.795 222.549 275.071 222.549C273.338 222.549 272.27 223.052 272.279 223.896ZM275.304 217.988V217.162H277.818V214.747H278.815V221.436H277.818V217.988H275.304ZM284.195 216.884C284.195 218.365 285.299 219.685 286.96 220.233L286.484 221.014C285.187 220.583 284.204 219.685 283.719 218.554C283.234 219.847 282.193 220.857 280.837 221.346L280.325 220.547C282.022 219.972 283.198 218.518 283.207 216.893V216.408H280.631V215.582H286.727V216.408H284.195V216.884ZM281.834 223.923C281.834 222.621 283.252 221.867 285.577 221.867C287.894 221.867 289.294 222.621 289.294 223.923C289.294 225.242 287.894 226.006 285.577 226.006C283.252 226.006 281.834 225.242 281.834 223.923ZM282.83 223.923C282.821 224.731 283.872 225.206 285.577 225.206C287.283 225.206 288.325 224.731 288.325 223.923C288.325 223.133 287.283 222.666 285.577 222.666C283.872 222.666 282.821 223.133 282.83 223.923ZM288.199 221.561V214.747H289.195V217.629H290.892V218.464H289.195V221.561H288.199ZM295.294 217.782C295.285 219.838 296.685 221.912 298.346 222.666L297.736 223.456C296.452 222.827 295.343 221.49 294.804 219.883C294.284 221.584 293.17 223.016 291.846 223.68L291.218 222.845C292.897 222.073 294.288 219.919 294.297 217.782V215.726H295.294V217.782ZM299.585 226.05V214.747H300.582V226.05H299.585ZM311.492 214.747V220.646H310.513V214.747H311.492ZM302.442 217.378L306.823 217.198C306.985 216.835 307.079 216.449 307.115 216.049H303.008V215.25H308.188C308.179 218.069 306.375 220.044 302.882 220.924L302.523 220.134C304.395 219.667 305.674 218.9 306.402 217.925L302.613 218.204L302.442 217.378ZM304.166 222.001V221.211H311.492V223.851H305.172V225.108H311.896V225.907H304.184V223.115H310.522V222.001H304.166ZM321.704 215.798C321.704 217.387 323.778 218.76 325.816 219.048L325.412 219.865C323.652 219.568 321.915 218.594 321.192 217.207C320.474 218.603 318.737 219.568 316.982 219.865L316.569 219.048C318.607 218.76 320.672 217.414 320.672 215.798V215.151H321.704V215.798ZM316.039 221.939V221.104H326.328V221.939H321.65V226.032H320.672V221.939H316.039ZM333.703 222.316C333.703 223.317 334.246 224.381 335.314 224.991C336.391 224.327 336.962 223.191 336.962 222.316V221.696H337.94V222.316C337.931 223.483 338.784 224.641 340.239 225.135L339.736 225.871C338.609 225.476 337.819 224.686 337.428 223.739C337.078 224.659 336.391 225.525 335.346 225.97C334.246 225.548 333.55 224.722 333.213 223.775C332.805 224.686 332.028 225.467 330.946 225.871L330.444 225.135C331.871 224.605 332.733 223.402 332.742 222.316V221.696H333.703V222.316ZM330.147 218.051C330.147 216.48 331.395 215.412 333.11 215.412C334.825 215.412 336.064 216.48 336.064 218.051C336.064 219.604 334.825 220.673 333.11 220.673C331.395 220.673 330.147 219.604 330.147 218.051ZM331.126 218.051C331.117 219.102 331.952 219.838 333.11 219.847C334.259 219.838 335.094 219.102 335.094 218.051C335.094 217.001 334.259 216.256 333.11 216.265C331.952 216.256 331.117 217.001 331.126 218.051ZM338.209 221.202V214.756H339.206V221.202H338.209ZM343.096 221.517V222.836H348.734V221.517H349.739V225.88H342.108V221.517H343.096ZM340.797 220.727V219.892H351.086V220.727H340.797ZM341.381 218.302C343.392 218.024 345.43 216.839 345.43 215.403V214.873H346.453V215.403C346.453 216.794 348.509 218.042 350.493 218.302L350.125 219.093C348.379 218.832 346.66 217.939 345.946 216.682C345.228 217.952 343.5 218.832 341.758 219.093L341.381 218.302ZM343.096 225.072H348.734V223.626H343.096V225.072ZM361.009 214.747V226.032H360.021V214.747H361.009ZM352.444 223.124V215.86H353.422V222.253C355.146 222.248 356.919 222.114 358.818 221.714L358.953 222.567C356.951 222.98 355.164 223.124 353.36 223.124H352.444ZM371.354 214.747V219.209H373.239V220.044H371.354V226.05H370.357V214.747H371.354ZM363.112 223.222V215.852H368.382V216.669H364.108V222.378C366.151 222.374 367.596 222.293 369.271 221.983L369.396 222.845C367.628 223.16 366.146 223.222 364.001 223.222H363.112ZM374.722 225.072C374.274 225.072 373.896 224.704 373.905 224.255C373.896 223.806 374.274 223.438 374.722 223.438C375.171 223.438 375.539 223.806 375.539 224.255C375.539 224.704 375.171 225.072 374.722 225.072ZM-0.695442 233.807V236.985H-1.70097V233.807H-0.695442ZM5.99396 233.825V234.66H1.81924V240.414C3.85273 240.41 5.19493 240.347 6.76606 240.046L6.88278 240.872C5.22186 241.186 3.84825 241.258 1.68457 241.258H0.813715V233.825H5.99396ZM5.32062 237.685V236.85H8.61551V232.747H9.61206V244.05H8.61551V237.685H5.32062ZM15.766 233.322V237.335C17.5302 237.339 19.0205 237.236 20.677 236.904L20.8206 237.739C19.043 238.089 17.5078 238.179 15.6314 238.179H14.7695V233.322H15.766ZM15.4608 240.082V239.319H19.1238V241.878H16.4663V243.117C17.6873 243.112 18.419 243.09 19.3752 242.919L19.4649 243.691C18.4055 243.88 17.5886 243.907 16.0803 243.907H15.4877V241.151H18.1631V240.082H15.4608ZM19.1956 235.459V234.633H22.4546V232.747H23.4511V238.762H22.4546V235.459H19.1956ZM19.8151 243.907V239.184H20.7398V240.666H22.5354V239.184H23.4511V243.907H19.8151ZM20.7398 243.108H22.5354V241.447H20.7398V243.108ZM35.2952 238.7V239.508H25.0065V238.7H35.2952ZM26.1467 235.378C26.1467 233.968 27.6999 233.133 30.1419 233.142C32.5749 233.133 34.1281 233.968 34.1281 235.378C34.1281 236.787 32.5749 237.631 30.1419 237.631C27.6999 237.631 26.1467 236.787 26.1467 235.378ZM26.3352 243.781V240.504H27.3408V242.955H34.146V243.781H26.3352ZM27.1792 235.378C27.1702 236.276 28.3283 236.814 30.1419 236.814C31.9554 236.814 33.1136 236.276 33.1136 235.378C33.1136 234.498 31.9554 233.95 30.1419 233.95C28.3283 233.95 27.1702 234.498 27.1792 235.378ZM49.1702 239.211V240.055H44.4657V244.032H43.4871V240.055H38.8366V239.211H49.1702ZM40.0127 235.683C40.0127 234.157 41.6108 233.205 43.9809 233.196C46.3511 233.205 47.9581 234.157 47.9581 235.683C47.9581 237.191 46.3511 238.143 43.9809 238.143C41.6108 238.143 40.0127 237.191 40.0127 235.683ZM41.0362 235.683C41.0272 236.689 42.2213 237.335 43.9809 237.335C45.7406 237.335 46.9347 236.689 46.9347 235.683C46.9347 234.669 45.7406 234.013 43.9809 234.013C42.2213 234.013 41.0272 234.669 41.0362 235.683ZM60.0536 237.515V238.323H55.394V239.445H58.7248V241.968H52.0184V243.117H59.066V243.907H51.0398V241.222H57.7463V240.217H51.0128V239.445H54.3975V238.323H49.7649V237.515H60.0536ZM51.1026 236.563V233.124H58.7159V236.563H51.1026ZM52.0812 235.764H57.7193V233.923H52.0812V235.764ZM72.4382 232.747V235.584H74.135V236.437H72.4382V239.382H71.4417V232.747H72.4382ZM64.0978 238.655V233.421H65.0763V235.153H68.3623V233.421H69.3498V238.655H64.0978ZM64.7891 240.747V239.93H68.3892V244.023H67.4106V240.747H64.7891ZM65.0763 237.847H68.3623V235.943H65.0763V237.847ZM68.9368 240.747V239.93H72.4382V244.023H71.4507V240.747H68.9368ZM80.8098 235.952C80.8098 237.748 81.6896 239.687 83.1889 240.576L82.6143 241.348C81.5235 240.693 80.7469 239.485 80.3474 238.116C79.9344 239.611 79.0995 240.904 77.9727 241.59L77.3353 240.845C78.8975 239.93 79.8491 237.927 79.8491 235.997V233.807H80.8098V235.952ZM81.941 237.64V236.796H83.8533V232.99H84.7959V243.458H83.8533V237.64H81.941ZM86.1696 244.032V232.747H87.1302V244.032H86.1696ZM92.1421 234.57C92.1421 236.105 93.3092 237.515 94.9432 238.071L94.4045 238.861C93.1566 238.403 92.169 237.47 91.6797 236.294C91.1949 237.627 90.1849 238.668 88.8651 239.175L88.3265 238.376C90.0233 237.748 91.1545 236.24 91.1635 234.498V233.331H92.1421V234.57ZM89.8347 241.95C89.8347 240.657 91.2533 239.903 93.5785 239.903C95.8948 239.903 97.2954 240.657 97.2954 241.95C97.2954 243.26 95.8948 244.006 93.5785 244.006C91.2533 244.006 89.8347 243.26 89.8347 241.95ZM90.8313 241.95C90.8223 242.749 91.8727 243.206 93.5785 243.215C95.2843 243.206 96.3258 242.749 96.3258 241.95C96.3258 241.177 95.2843 240.702 93.5785 240.702C91.8727 240.702 90.8223 241.177 90.8313 241.95ZM96.2001 239.615V232.747H97.1966V235.692H98.8934V236.527H97.1966V239.615H96.2001ZM104.417 233.474C106.778 233.483 108.547 234.713 108.547 236.581C108.547 238.457 106.778 239.687 104.417 239.678C102.065 239.687 100.296 238.457 100.296 236.581C100.296 234.713 102.065 233.483 104.417 233.474ZM99.2817 242.524V241.689H109.615V242.524H99.2817ZM101.248 236.581C101.239 237.945 102.604 238.861 104.417 238.861C106.231 238.861 107.586 237.945 107.586 236.581C107.586 235.225 106.231 234.282 104.417 234.291C102.604 234.282 101.239 235.225 101.248 236.581ZM120.526 241.788V242.632H110.192V241.788H114.834V239.66H111.485V236.177H118.236V234.408H111.458V233.582H119.224V236.994H112.472V238.834H119.484V239.66H115.821V241.788H120.526ZM122.449 233.807V236.985H121.444V233.807H122.449ZM126.795 233.483C128.528 233.492 129.794 234.561 129.803 236.132C129.794 237.546 128.766 238.556 127.298 238.74V240.661C128.353 240.612 129.412 240.536 130.395 240.405L130.467 241.16C128.07 241.564 125.404 241.59 123.42 241.573L123.249 240.738C124.16 240.733 125.211 240.729 126.301 240.697V238.744C124.798 238.56 123.779 237.55 123.788 236.132C123.779 234.561 125.027 233.492 126.795 233.483ZM124.757 236.132C124.748 237.191 125.61 237.927 126.795 237.919C127.962 237.927 128.815 237.191 128.824 236.132C128.815 235.073 127.962 234.345 126.795 234.336C125.61 234.345 124.748 235.073 124.757 236.132ZM131.123 244.032V232.747H132.11V237.407H133.951V238.26H132.11V244.032H131.123ZM146.066 232.747V235.746H147.763V236.608H146.066V239.544H145.069V232.747H146.066ZM137.268 234.767V233.95H140.141V232.657H141.128V233.95H143.992V234.767H137.268ZM137.914 237.344C137.905 236.132 138.991 235.333 140.634 235.333C142.25 235.333 143.337 236.132 143.346 237.344C143.337 238.565 142.25 239.355 140.634 239.355C138.991 239.355 137.905 238.565 137.914 237.344ZM138.866 237.344C138.857 238.107 139.566 238.583 140.634 238.592C141.685 238.583 142.394 238.107 142.403 237.344C142.394 236.599 141.685 236.105 140.634 236.105C139.566 236.105 138.857 236.599 138.866 237.344ZM138.938 243.88V240.19H146.066V243.88H138.938ZM139.916 243.063H145.078V240.989H139.916V243.063ZM150.952 234.112C150.943 236.482 150.611 239.148 148.968 241.339L148.178 240.881C149.587 239.113 150.005 237.021 150.086 234.938H148.402V234.112H150.952ZM150.71 241.617C152.267 239.624 152.541 237.052 152.586 234.938H151.311V234.112H153.457C153.452 235.032 153.43 236.087 153.291 237.182H154.795V233.052H155.746V243.458H154.795V238.008H153.161C152.9 239.418 152.411 240.845 151.491 242.084L150.71 241.617ZM156.896 244.032V232.747H157.856V244.032H156.896ZM165.375 235.934C165.375 237.784 166.273 239.696 167.781 240.513L167.179 241.303C166.084 240.675 165.303 239.521 164.899 238.161C164.481 239.638 163.647 240.904 162.52 241.573L161.873 240.845C163.445 239.939 164.414 237.927 164.414 235.997V233.807H165.375V235.934ZM168.194 243.458V232.99H169.154V237.29H170.708V232.747H171.668V244.032H170.708V238.116H169.154V243.458H168.194ZM183.243 241.788V242.632H172.909V241.788H177.551V239.66H174.202V236.177H180.954V234.408H174.175V233.582H181.941V236.994H175.19V238.834H182.202V239.66H178.539V241.788H183.243ZM194.135 238.484V239.31H189.557V241.617H188.551V239.31H183.802V238.484H194.135ZM184.978 235.306C184.969 233.905 186.549 233.044 188.955 233.035C191.37 233.044 192.932 233.905 192.932 235.306C192.932 236.698 191.37 237.559 188.955 237.559C186.549 237.559 184.969 236.698 184.978 235.306ZM185.14 243.781V240.486H186.136V242.937H192.986V243.781H185.14ZM186.037 235.306C186.028 236.186 187.204 236.742 188.955 236.742C190.715 236.742 191.882 236.186 191.882 235.306C191.882 234.408 190.715 233.852 188.955 233.852C187.204 233.852 186.028 234.408 186.037 235.306ZM206.403 232.747V237.335H208.235V238.179H206.403V244.023H205.407V232.747H206.403ZM197.74 241.097C200.657 239.647 202.247 237.474 202.471 234.794H198.269V233.959H203.486C203.477 237.155 201.977 240.064 198.296 241.878L197.74 241.097ZM217.691 235.907V236.724H209.988V232.972H210.975V235.907H217.691ZM208.578 238.87V238.044H218.876V238.87H208.578ZM209.817 241.932C209.817 240.621 211.281 239.885 213.714 239.885C216.138 239.885 217.592 240.621 217.601 241.932C217.592 243.242 216.138 243.979 213.714 243.979C211.281 243.979 209.817 243.242 209.817 241.932ZM210.832 241.932C210.823 242.722 211.909 243.198 213.714 243.198C215.509 243.198 216.595 242.722 216.604 241.932C216.595 241.133 215.509 240.684 213.714 240.675C211.909 240.684 210.823 241.133 210.832 241.932ZM223.367 234.525C223.358 236.132 224.507 237.55 226.168 238.107L225.611 238.888C224.364 238.421 223.385 237.506 222.896 236.316C222.415 237.667 221.383 238.718 220.018 239.229L219.48 238.421C221.212 237.811 222.37 236.311 222.379 234.561V233.394H223.367V234.525ZM221.32 241.896C221.311 240.54 222.748 239.759 225.1 239.759C227.443 239.759 228.879 240.54 228.879 241.896C228.879 243.242 227.443 244.006 225.1 244.006C222.748 244.006 221.311 243.242 221.32 241.896ZM222.308 241.896C222.299 242.713 223.367 243.206 225.1 243.206C226.823 243.206 227.892 242.713 227.892 241.896C227.892 241.052 226.823 240.549 225.1 240.549C223.367 240.549 222.299 241.052 222.308 241.896ZM225.333 235.988V235.162H227.847V232.747H228.844V239.436H227.847V235.988H225.333ZM235.534 232.945C238.048 232.945 239.52 233.636 239.52 234.893C239.52 236.168 238.048 236.859 235.534 236.868C233.02 236.859 231.539 236.168 231.539 234.893C231.539 233.636 233.02 232.945 235.534 232.945ZM230.399 238.439V237.631H240.688V238.439H230.399ZM231.647 240.181V239.418H239.359V241.941H232.652V243.117H239.7V243.907H231.674V241.204H238.38V240.181H231.647ZM232.581 234.893C232.572 235.674 233.667 236.105 235.534 236.105C237.411 236.105 238.506 235.674 238.506 234.893C238.506 234.148 237.411 233.699 235.534 233.699C233.667 233.699 232.572 234.148 232.581 234.893ZM249.966 233.439V234.282H245.773V235.692H249.759V236.509H245.773V238.008C247.973 238.017 249.225 237.977 250.711 237.694L250.828 238.502C249.266 238.78 247.964 238.825 245.63 238.816H244.777V233.439H249.966ZM245.944 243.88V239.983H253.072V243.88H245.944ZM246.922 243.063H252.085V240.773H246.922V243.063ZM252.076 239.391V232.747H253.072V235.548H254.769V236.392H253.072V239.391H252.076ZM264.512 232.747V239.588H263.516V237.012H261.594V236.177H263.516V232.747H264.512ZM255.166 234.749V233.932H257.976V232.64H258.955V233.932H261.756V234.749H255.166ZM255.84 237.344C255.84 236.159 256.926 235.333 258.461 235.333C259.996 235.333 261.074 236.159 261.083 237.344C261.074 238.556 259.996 239.355 258.461 239.355C256.926 239.355 255.84 238.556 255.84 237.344ZM256.8 237.344C256.791 238.089 257.474 238.583 258.461 238.592C259.44 238.583 260.122 238.089 260.122 237.344C260.122 236.617 259.44 236.105 258.461 236.105C257.474 236.105 256.791 236.617 256.8 237.344ZM257.132 243.88V240.19H264.512V243.88H257.132ZM258.129 243.063H263.534V240.989H258.129V243.063ZM271.706 234.695V235.512H266.041V234.695H268.384V233.088H269.38V234.695H271.706ZM266.454 238.834C266.445 237.335 267.468 236.276 268.878 236.276C270.296 236.276 271.311 237.335 271.32 238.834C271.311 240.352 270.296 241.42 268.878 241.42C267.468 241.42 266.445 240.352 266.454 238.834ZM267.334 238.834C267.334 239.84 267.98 240.558 268.878 240.549C269.776 240.558 270.431 239.84 270.431 238.834C270.431 237.847 269.776 237.119 268.878 237.11C267.98 237.119 267.334 237.847 267.334 238.834ZM272.289 243.476V233.017H273.232V237.506H274.731V232.747H275.683V244.032H274.731V238.331H273.232V243.476H272.289ZM290.249 241.752V242.587H279.916V241.752H284.557V239.319H281.137V233.546H282.133V235.584H287.996V233.546H288.983V239.319H285.545V241.752H290.249ZM282.133 238.502H287.996V236.401H282.133V238.502ZM294.175 235.952C294.175 237.748 295.055 239.687 296.554 240.576L295.979 241.348C294.889 240.693 294.112 239.485 293.712 238.116C293.299 239.611 292.465 240.904 291.338 241.59L290.7 240.845C292.263 239.93 293.214 237.927 293.214 235.997V233.807H294.175V235.952ZM295.306 237.64V236.796H297.218V232.99H298.161V243.458H297.218V237.64H295.306ZM299.535 244.032V232.747H300.495V244.032H299.535ZM312.07 241.743V242.578H301.736V241.743H304.295V238.7C303.334 238.197 302.751 237.384 302.751 236.365C302.751 234.615 304.466 233.465 306.872 233.456C309.287 233.465 311.002 234.615 311.002 236.365C311.002 237.371 310.436 238.17 309.502 238.673V241.743H312.07ZM303.712 236.365C303.712 237.622 305.022 238.466 306.872 238.466C308.712 238.466 310.041 237.622 310.041 236.365C310.041 235.099 308.712 234.265 306.872 234.273C305.022 234.265 303.712 235.099 303.712 236.365ZM305.274 241.743H308.497V239.063C308.007 239.189 307.46 239.256 306.872 239.256C306.293 239.256 305.758 239.189 305.274 239.068V241.743ZM314.478 233.807L314.388 240.405H313.32L313.23 233.807H314.478ZM313.042 242.255C313.033 241.806 313.41 241.438 313.859 241.438C314.308 241.438 314.676 241.806 314.676 242.255C314.676 242.704 314.308 243.072 313.859 243.072C313.41 243.072 313.033 242.704 313.042 242.255Z" fill="#767676"/>
<path d="M694.768 115.829C694.757 119.84 693.387 123.508 688.392 125.961L687.707 125.033C690.315 123.762 691.878 122.155 692.729 120.287L687.961 120.735L687.762 119.663L693.105 119.293C693.348 118.514 693.486 117.696 693.547 116.845H688.47V115.829H694.768ZM697.088 128.26V114.381H698.315V120.039H700.569V121.055H698.315V128.26H697.088ZM706.715 116.072V117.066H702.704V119.818H706.063V120.79H702.704V123.917C704.704 123.901 705.925 123.823 707.423 123.541L707.544 124.547C705.931 124.878 704.616 124.912 702.406 124.923H701.533V116.072H706.715ZM706.826 120.68V119.652H708.87V114.713H710.041V127.541H708.87V120.68H706.826ZM711.688 128.271V114.381H712.881V128.271H711.688ZM725.558 115.785V117.166C725.547 118.878 725.547 120.779 725.039 123.575L723.801 123.431C724.32 120.779 724.32 118.834 724.331 117.166V116.801H715.768V115.785H725.558ZM714.42 126.304V125.276H719.381V120.315H720.597V125.276H727.083V126.304H714.42ZM739.318 114.381V128.293H738.102V114.381H739.318ZM728.632 116.691V115.674H735.097V120.613H729.914V123.895C732.218 123.89 734.268 123.79 736.754 123.387L736.876 124.414C734.323 124.823 732.213 124.923 729.815 124.923H728.655V119.608H733.859V116.691H728.632Z" fill="white"/>
<path d="M698.669 160.116V164.083H689.11V160.116H698.669ZM687.564 159.044V158.061H693.287V156.989C690.785 156.901 689.376 156.243 689.376 155.033C689.376 153.74 691.011 153.077 693.884 153.066C696.768 153.077 698.392 153.74 698.392 155.033C698.392 156.243 697 156.901 694.503 156.989V158.061H700.227V159.044H687.564ZM688.227 152.503V151.541H693.287V150.171H694.503V151.541H699.486V152.503H688.227ZM690.326 163.133H697.475V161.066H690.326V163.133ZM690.691 155.033C690.68 155.74 691.851 156.138 693.884 156.138C695.928 156.138 697.088 155.74 697.088 155.033C697.088 154.315 695.928 153.939 693.884 153.928C691.851 153.939 690.68 154.315 690.691 155.033Z" fill="#767676"/>
<path d="M700.282 197.431V198.481H687.564V197.431H700.282ZM688.691 188.801V187.785H699.066V188.801H696.856V193.663H699.033V194.657H688.713V193.663H690.89V188.801H688.691ZM692.105 193.663H695.652V188.801H692.105V193.663ZM713.71 197.508V198.547H700.992V197.508H706.704V194.89H702.583V190.602H710.892V188.425H702.55V187.409H712.108V191.608H703.798V193.873H712.428V194.89H707.92V197.508H713.71ZM723.514 186.691V194.746H722.331V190.978H720.199V189.961H722.331V186.691H723.514ZM714.475 193.564C716.287 192.801 717.348 191.011 717.348 189.354V188.536H714.751V187.519H720.983V188.536H718.53V189.354C718.53 190.867 719.547 192.514 721.304 193.243L720.663 194.193C719.359 193.641 718.447 192.602 717.967 191.403C717.481 192.757 716.514 193.923 715.138 194.536L714.475 193.564ZM716.851 196.492V195.486H726.21V200.271H725.005V196.492H716.851ZM725.05 194.867V186.381H726.21V194.867H725.05ZM739.097 193.884V194.89H729.494V187.586H738.942V188.602H730.732V190.669H738.643V191.663H730.732V193.884H739.097ZM727.848 198.459V197.431H740.566V198.459H727.848Z" fill="#767676"/>
<path d="M700.282 233.431V234.481H687.564V233.431H700.282ZM688.691 224.801V223.785H699.066V224.801H696.856V229.663H699.033V230.657H688.713V229.663H690.89V224.801H688.691ZM692.105 229.663H695.652V224.801H692.105V229.663ZM713.71 233.508V234.547H700.992V233.508H706.704V230.89H702.583V226.602H710.892V224.425H702.55V223.409H712.108V227.608H703.798V229.873H712.428V230.89H707.92V233.508H713.71ZM727.138 233.453V234.481H714.42V233.453H720.132V230.061H715.923V223.541H725.558V230.061H721.348V233.453H727.138ZM717.116 229.077H724.365V224.536H717.116V229.077ZM732.599 224.956C732.599 226.989 733.992 228.912 736.003 229.696L735.318 230.657C733.793 230.028 732.599 228.757 732.008 227.188C731.417 228.884 730.168 230.232 728.544 230.901L727.881 229.917C729.947 229.122 731.384 227.133 731.395 224.956V223.166H732.599V224.956ZM730.378 235.961V231.685H731.616V234.945H739.682V235.961H730.378ZM735.273 228.315V227.309H738.135V225.464H735.273V224.448H738.135V222.392H739.362V232.768H738.135V228.315H735.273Z" fill="#767676"/>
<path d="M694.547 259.785V268.735H688.138V259.785H694.547ZM689.331 267.729H693.32V260.768H689.331V267.729ZM697.088 272.271V258.381H698.315V263.928H700.635V264.978H698.315V272.271H697.088ZM712.439 258.381V272.293H711.213V258.381H712.439ZM701.511 264.293C701.511 261.343 702.981 259.464 705.058 259.453C707.113 259.464 708.605 261.343 708.605 264.293C708.605 267.254 707.113 269.133 705.058 269.133C702.981 269.133 701.511 267.254 701.511 264.293ZM702.693 264.293C702.693 266.558 703.666 268.039 705.058 268.039C706.45 268.039 707.412 266.558 707.412 264.293C707.412 262.039 706.45 260.558 705.058 260.547C703.666 260.558 702.693 262.039 702.693 264.293ZM726.365 258.381V272.271H725.182V258.381H726.365ZM714.265 267.785C714.696 267.785 715.193 267.785 715.735 267.773V261.177H714.563V260.16H720.95V261.177H719.779V267.608C720.298 267.564 720.801 267.514 721.26 267.453L721.348 268.359C719.149 268.768 716.232 268.834 714.42 268.834L714.265 267.785ZM716.851 267.751C717.436 267.735 718.039 267.713 718.641 267.68V261.177H716.851V267.751ZM720.541 264.768V263.663H722.475V258.724H723.646V271.53H722.475V264.768H720.541ZM739.295 258.381V272.293H738.069V258.381H739.295ZM728.367 264.293C728.367 261.343 729.837 259.464 731.914 259.453C733.969 259.464 735.461 261.343 735.461 264.293C735.461 267.254 733.969 269.133 731.914 269.133C729.837 269.133 728.367 267.254 728.367 264.293ZM729.55 264.293C729.55 266.558 730.522 268.039 731.914 268.039C733.306 268.039 734.268 266.558 734.268 264.293C734.268 262.039 733.306 260.558 731.914 260.547C730.522 260.558 729.55 262.039 729.55 264.293ZM746.248 262.646C746.248 265 747.961 267.398 750.005 268.282L749.32 269.254C747.696 268.514 746.298 266.917 745.646 265C744.994 267.033 743.591 268.801 742.005 269.597L741.276 268.624C743.265 267.674 745 265.044 745.011 262.646V260.834H741.729V259.807H749.552V260.834H746.248V262.646ZM751.497 272.271V258.381H752.724V272.271H751.497Z" fill="#767676"/>
<path d="M869.011 114.381V128.293H867.785V114.381H869.011ZM858.083 120.293C858.083 117.343 859.552 115.464 861.63 115.453C863.685 115.464 865.177 117.343 865.177 120.293C865.177 123.254 863.685 125.133 861.63 125.133C859.552 125.133 858.083 123.254 858.083 120.293ZM859.265 120.293C859.265 122.558 860.238 124.039 861.63 124.039C863.022 124.039 863.983 122.558 863.983 120.293C863.983 118.039 863.022 116.558 861.63 116.547C860.238 116.558 859.265 118.039 859.265 120.293ZM883.655 121.254V122.26H870.992V121.254H874.13V119.293C873.019 118.862 872.395 118.155 872.395 117.221C872.395 115.586 874.273 114.646 877.312 114.646C880.34 114.646 882.218 115.586 882.218 117.221C882.218 118.149 881.599 118.856 880.505 119.282V121.254H883.655ZM872.517 125.773C872.517 124.193 874.307 123.32 877.312 123.331C880.296 123.32 882.086 124.193 882.097 125.773C882.086 127.365 880.296 128.238 877.312 128.238C874.307 128.238 872.517 127.365 872.517 125.773ZM873.666 117.221C873.655 118.238 875.047 118.823 877.312 118.823C879.566 118.823 880.97 118.238 880.97 117.221C880.97 116.215 879.566 115.608 877.312 115.608C875.047 115.608 873.655 116.215 873.666 117.221ZM873.765 125.773C873.754 126.724 875.091 127.287 877.312 127.276C879.522 127.287 880.859 126.724 880.87 125.773C880.859 124.834 879.522 124.282 877.312 124.271C875.091 124.282 873.754 124.834 873.765 125.773ZM875.356 121.254H879.29V119.613C878.704 119.718 878.041 119.773 877.312 119.773C876.594 119.773 875.936 119.724 875.356 119.619V121.254ZM895.282 114.37V118.602H897.37V119.641H895.282V124.624H894.055V114.37H895.282ZM884.685 118.779C884.674 116.768 886.254 115.365 888.331 115.365C890.409 115.365 891.967 116.768 891.978 118.779C891.967 120.79 890.409 122.204 888.331 122.204C886.254 122.204 884.674 120.79 884.685 118.779ZM885.889 118.779C885.878 120.149 886.95 121.122 888.331 121.122C889.724 121.122 890.773 120.149 890.784 118.779C890.773 117.409 889.724 116.436 888.331 116.436C886.95 116.436 885.878 117.409 885.889 118.779ZM886.586 127.961V123.564H887.801V126.945H895.923V127.961H886.586ZM909.704 114.381V128.271H908.511V121.077H906.5V127.541H905.34V114.691H906.5V120.039H908.511V114.381H909.704ZM898.544 124.669V116.072H899.771V123.575C901.141 123.569 902.627 123.47 904.323 123.133L904.467 124.215C902.533 124.569 900.942 124.669 899.417 124.669H898.544Z" fill="white"/>
<path d="M870.26 157.486V158.503H864.602V161.343H863.387V158.503H857.541V157.486H870.26ZM859.177 163.961V159.972H860.403V162.945H868.845V163.961H859.177ZM859.199 155.895V151.055H868.602V155.895H859.199ZM860.403 154.912H867.387V152.039H860.403V154.912ZM875.533 151.398C877.721 151.398 879.268 152.724 879.279 154.657C879.268 156.591 877.721 157.917 875.533 157.917C873.345 157.917 871.776 156.591 871.787 154.657C871.776 152.724 873.345 151.398 875.533 151.398ZM871.069 160.182C873.633 160.193 877.168 160.171 880.24 159.718L880.34 160.624C877.157 161.221 873.743 161.232 871.235 161.232L871.069 160.182ZM872.992 154.657C872.981 155.95 874.052 156.845 875.533 156.845C877.003 156.845 878.075 155.95 878.075 154.657C878.075 153.365 877.003 152.47 875.533 152.47C874.052 152.47 872.981 153.365 872.992 154.657ZM881.157 164.293V150.381H882.384V164.293H881.157ZM895.171 150.381V156.105H897.492V157.133H895.171V164.271H893.956V150.381H895.171ZM884.342 153.63V152.613H887.911V150.547H889.138V152.613H892.608V153.63H884.342ZM885.138 157.972C885.127 156.094 886.563 154.779 888.541 154.779C890.508 154.779 891.934 156.094 891.945 157.972C891.934 159.851 890.508 161.155 888.541 161.155C886.563 161.155 885.127 159.851 885.138 157.972ZM886.309 157.972C886.298 159.232 887.249 160.127 888.541 160.116C889.823 160.127 890.762 159.232 890.773 157.972C890.762 156.713 889.823 155.807 888.541 155.807C887.249 155.807 886.298 156.713 886.309 157.972ZM909.329 150.381V164.271H908.102V150.381H909.329ZM898.025 160.657C901.782 158.878 903.699 156.204 903.969 152.89H898.666V151.895H905.218C905.207 155.884 903.351 159.42 898.688 161.663L898.025 160.657Z" fill="#767676"/>
<path d="M862.448 190.116C862.448 192.624 864.061 195.155 866.083 196.083L865.343 197.077C863.762 196.265 862.459 194.602 861.84 192.63C861.227 194.707 859.923 196.486 858.337 197.331L857.552 196.348C859.586 195.343 861.199 192.669 861.21 190.116V187.586H862.448V190.116ZM864.569 192.127V191.122H867.862V186.381H869.077V200.293H867.862V192.127H864.569ZM882.439 186.381V200.293H881.213V186.381H882.439ZM871.798 196.934V187.564H873.025V191.232H877.157V187.564H878.373V196.934H871.798ZM873.025 195.906H877.157V192.215H873.025V195.906ZM891.348 188.425C891.348 190.801 894.066 192.923 896.486 193.376L895.911 194.403C893.818 193.917 891.613 192.431 890.713 190.387C889.812 192.42 887.613 193.912 885.514 194.403L884.95 193.376C887.359 192.912 890.055 190.812 890.066 188.425V187.354H891.348V188.425ZM884.42 198.381V197.354H897.138V198.381H884.42ZM912.911 186.381V200.293H911.685V186.381H912.911ZM901.983 192.293C901.983 189.343 903.452 187.464 905.53 187.453C907.585 187.464 909.077 189.343 909.077 192.293C909.077 195.254 907.585 197.133 905.53 197.133C903.452 197.133 901.983 195.254 901.983 192.293ZM903.165 192.293C903.165 194.558 904.138 196.039 905.53 196.039C906.922 196.039 907.883 194.558 907.883 192.293C907.883 190.039 906.922 188.558 905.53 188.547C904.138 188.558 903.165 190.039 903.165 192.293ZM927.555 193.254V194.26H914.892V193.254H918.03V191.293C916.919 190.862 916.295 190.155 916.295 189.221C916.295 187.586 918.173 186.646 921.212 186.646C924.24 186.646 926.118 187.586 926.118 189.221C926.118 190.149 925.499 190.856 924.405 191.282V193.254H927.555ZM916.417 197.773C916.417 196.193 918.207 195.32 921.212 195.331C924.196 195.32 925.986 196.193 925.997 197.773C925.986 199.365 924.196 200.238 921.212 200.238C918.207 200.238 916.417 199.365 916.417 197.773ZM917.566 189.221C917.555 190.238 918.947 190.823 921.212 190.823C923.466 190.823 924.87 190.238 924.87 189.221C924.87 188.215 923.466 187.608 921.212 187.608C918.947 187.608 917.555 188.215 917.566 189.221ZM917.665 197.773C917.654 198.724 918.991 199.287 921.212 199.276C923.422 199.287 924.759 198.724 924.77 197.773C924.759 196.834 923.422 196.282 921.212 196.271C918.991 196.282 917.654 196.834 917.665 197.773ZM919.256 193.254H923.19V191.613C922.604 191.718 921.941 191.773 921.212 191.773C920.494 191.773 919.836 191.724 919.256 191.619V193.254ZM941.237 188.525V189.53H939.182V191.486H941.237V192.525H939.182V194.635H937.955V186.381H939.182V188.525H941.237ZM928.585 190.492C928.574 188.558 930.121 187.21 932.231 187.221C934.342 187.21 935.867 188.558 935.878 190.492C935.867 192.436 934.342 193.773 932.231 193.773C930.121 193.773 928.574 192.436 928.585 190.492ZM929.789 190.492C929.778 191.818 930.817 192.735 932.231 192.724C933.646 192.735 934.673 191.818 934.684 190.492C934.673 189.177 933.646 188.271 932.231 188.271C930.817 188.271 929.778 189.177 929.789 190.492ZM930.088 196.293V195.287H939.182V200.271H937.955V196.293H930.088ZM949.45 187.453V188.193C949.439 189.099 949.439 190.481 949.085 192.304L947.858 192.204C948.195 190.536 948.229 189.359 948.24 188.481H942.521V187.453H949.45ZM941.671 193.597C942.566 193.591 943.582 193.586 944.654 193.558V190.536H945.869V193.519C947.411 193.453 949.002 193.343 950.444 193.144L950.521 194.05C947.615 194.547 944.267 194.602 941.792 194.613L941.671 193.597ZM943.814 199.961V195.884H945.041V198.945H953.085V199.961H943.814ZM951.394 196.834V186.381H952.632V190.901H954.665V191.95H952.632V196.834H951.394Z" fill="#767676"/>
<path d="M869.42 222.381V236.271H868.227V229H866.293V235.575H865.133V222.757H866.293V227.983H868.227V222.381H869.42ZM857.575 232.414C860.812 230.613 862.138 228.072 862.343 225.199H858.105V224.182H863.541C863.53 227.718 862.293 231.055 858.293 233.287L857.575 232.414ZM882.461 222.392V232.547H881.235V222.392H882.461ZM871.312 226.768C871.312 224.768 872.881 223.365 874.959 223.365C877.036 223.365 878.594 224.768 878.594 226.768C878.594 228.79 877.036 230.193 874.959 230.182C872.881 230.193 871.312 228.79 871.312 226.768ZM872.517 226.768C872.505 228.149 873.555 229.11 874.959 229.11C876.34 229.11 877.401 228.149 877.401 226.768C877.401 225.409 876.34 224.436 874.959 224.436C873.555 224.436 872.505 225.409 872.517 226.768ZM873.489 235.961V231.508H874.715V234.945H882.892V235.961H873.489ZM895.934 222.381V230.657H894.707V227.022H891.9V226.006H894.707V222.381H895.934ZM884.475 229.552C886.541 228.801 888.011 226.923 888.011 224.934V224.414H884.873V223.398H892.353V224.414H889.249V224.923C889.249 226.735 890.641 228.459 892.674 229.155L892.033 230.138C890.47 229.575 889.26 228.409 888.657 226.978C888.061 228.602 886.773 229.901 885.116 230.525L884.475 229.552ZM886.674 233.674C886.663 232.039 888.431 231.088 891.326 231.088C894.21 231.088 895.978 232.039 895.978 233.674C895.978 235.309 894.21 236.249 891.326 236.26C888.431 236.249 886.663 235.309 886.674 233.674ZM887.889 233.674C887.878 234.68 889.193 235.287 891.326 235.276C893.447 235.287 894.762 234.68 894.762 233.674C894.762 232.657 893.447 232.05 891.326 232.05C889.193 232.05 887.878 232.657 887.889 233.674ZM910.566 233.464V234.492H897.848V233.464H903.561V230.47H899.351V223.365H900.577V225.873H907.793V223.365H909.008V230.47H904.776V233.464H910.566ZM900.577 229.464H907.793V226.878H900.577V229.464ZM926.405 222.381V236.293H925.179V228.978H922.129V227.961H925.179V222.381H926.405ZM914.925 232.624C916.958 231.674 918.483 229.298 918.483 226.901V225.796H915.289V224.801H918.483V222.635H919.709V224.801H922.836V225.796H919.687V226.901C919.687 229.199 921.256 231.453 923.312 232.37L922.615 233.331C921.03 232.608 919.72 231.094 919.102 229.26C918.499 231.193 917.207 232.812 915.621 233.575L914.925 232.624ZM939.789 222.381V236.293H938.574V222.381H939.789ZM929.104 224.691V223.674H935.568V228.613H930.386V231.895C932.69 231.89 934.74 231.79 937.226 231.387L937.347 232.414C934.795 232.823 932.684 232.923 930.287 232.923H929.126V227.608H934.331V224.691H929.104ZM951.772 231.11C954.623 231.11 956.347 232.05 956.347 233.674C956.347 235.309 954.623 236.249 951.772 236.26C948.911 236.249 947.165 235.309 947.165 233.674C947.165 232.05 948.911 231.11 951.772 231.11ZM945.96 229.652V223.243H947.165V225.376H951.209V223.243H952.424V229.652H945.96ZM947.165 228.657H951.209V226.348H947.165V228.657ZM948.391 233.674C948.38 234.669 949.673 235.265 951.772 235.265C953.872 235.265 955.154 234.669 955.154 233.674C955.154 232.68 953.872 232.094 951.772 232.083C949.673 232.094 948.38 232.68 948.391 233.674ZM954.999 230.735V222.381H956.225V225.873H958.314V226.923H956.225V230.735H954.999ZM963.83 225.21C963.83 226.967 965.355 228.525 967.433 229.133L966.847 230.094C965.206 229.597 963.891 228.536 963.256 227.149C962.642 228.663 961.328 229.84 959.665 230.392L959.068 229.442C961.134 228.768 962.615 227.088 962.615 225.21V225.022H959.41V224.028H962.615V222.315H963.852V224.028H967.024V225.022H963.83V225.21ZM961.223 236.083V231.32H970.261V236.083H961.223ZM962.438 235.077H969.057V232.326H962.438V235.077ZM969.035 230.624V222.392H970.261V230.624H969.035Z" fill="#767676"/>
<path d="M869.077 258.381V266.657H867.851V263.022H865.044V262.006H867.851V258.381H869.077ZM857.619 265.552C859.685 264.801 861.155 262.923 861.155 260.934V260.414H858.017V259.398H865.497V260.414H862.392V260.923C862.392 262.735 863.785 264.459 865.818 265.155L865.177 266.138C863.613 265.575 862.403 264.409 861.801 262.978C861.204 264.602 859.917 265.901 858.26 266.525L857.619 265.552ZM859.818 269.674C859.807 268.039 861.575 267.088 864.47 267.088C867.354 267.088 869.122 268.039 869.122 269.674C869.122 271.309 867.354 272.249 864.47 272.26C861.575 272.249 859.807 271.309 859.818 269.674ZM861.033 269.674C861.022 270.68 862.337 271.287 864.47 271.276C866.591 271.287 867.906 270.68 867.906 269.674C867.906 268.657 866.591 268.05 864.47 268.05C862.337 268.05 861.022 268.657 861.033 269.674ZM883.71 269.464V270.492H870.992V269.464H876.704V266.47H872.494V259.365H873.721V261.873H880.936V259.365H882.152V266.47H877.92V269.464H883.71ZM873.721 265.464H880.936V262.878H873.721V265.464ZM900.709 265.243V266.238H888.035V265.243H893.77V263.619H889.638V259.033H899.129V260.017H890.853V262.624H899.218V263.619H894.964V265.243H900.709ZM889.56 269.751C889.56 268.16 891.361 267.254 894.356 267.254C897.339 267.254 899.129 268.16 899.14 269.751C899.129 271.354 897.339 272.249 894.356 272.26C891.361 272.249 889.56 271.354 889.56 269.751ZM890.809 269.751C890.798 270.724 892.135 271.287 894.356 271.276C896.566 271.287 897.903 270.724 897.914 269.751C897.903 268.79 896.566 268.215 894.356 268.215C892.135 268.215 890.798 268.79 890.809 269.751ZM906.005 259.398C908.193 259.398 909.74 260.724 909.751 262.657C909.74 264.591 908.193 265.917 906.005 265.917C903.817 265.917 902.248 264.591 902.259 262.657C902.248 260.724 903.817 259.398 906.005 259.398ZM901.541 268.182C904.104 268.193 907.64 268.171 910.712 267.718L910.812 268.624C907.629 269.221 904.215 269.232 901.707 269.232L901.541 268.182ZM903.464 262.657C903.452 263.95 904.524 264.845 906.005 264.845C907.475 264.845 908.546 263.95 908.546 262.657C908.546 261.365 907.475 260.47 906.005 260.47C904.524 260.47 903.452 261.365 903.464 262.657ZM911.629 272.293V258.381H912.856V272.293H911.629ZM930.021 258.381V265.564H928.795V261.95H925.701V260.934H928.795V258.381H930.021ZM918.496 264.613C920.585 263.917 922.021 262.171 922.032 260.138V258.823H923.237V260.138C923.226 261.961 924.662 263.63 926.695 264.293L926.032 265.254C924.496 264.707 923.27 263.613 922.656 262.21C922.06 263.79 920.806 265.006 919.159 265.597L918.496 264.613ZM921.016 267.254V266.271H930.021V269.575H922.253V271.088H930.54V272.083H921.049V268.635H928.806V267.254H921.016ZM943.449 258.381V266.657H942.223V263.022H939.416V262.006H942.223V258.381H943.449ZM931.991 265.552C934.057 264.801 935.527 262.923 935.527 260.934V260.414H932.388V259.398H939.869V260.414H936.764V260.923C936.764 262.735 938.156 264.459 940.19 265.155L939.549 266.138C937.985 265.575 936.775 264.409 936.173 262.978C935.576 264.602 934.289 265.901 932.632 266.525L931.991 265.552ZM934.19 269.674C934.179 268.039 935.946 267.088 938.841 267.088C941.725 267.088 943.493 268.039 943.493 269.674C943.493 271.309 941.725 272.249 938.841 272.26C935.946 272.249 934.179 271.309 934.19 269.674ZM935.405 269.674C935.394 270.68 936.709 271.287 938.841 271.276C940.963 271.287 942.278 270.68 942.278 269.674C942.278 268.657 940.963 268.05 938.841 268.05C936.709 268.05 935.394 268.657 935.405 269.674Z" fill="#767676"/>
</g>
<defs>
<clipPath id="clip0_844_12528">
<rect width="983" height="386" fill="white"/>
</clipPath>
</defs>
</svg>
