<svg width="304" height="80" viewBox="0 0 304 80" fill="none" xmlns="http://www.w3.org/2000/svg">
<path d="M79.2 12.8V10.4H78.4V9.6H77.6V8.8H76.8V8H75.2V7.2H73.6V6.4H72.8V5.6H70.4V4.8H68V4H66.4V3.2H62.4V2.4H60V1.6H54.4V0.8H48.8V0H33.6V0.8H28V1.6H22.4V2.4H20V3.2H16.8V4H14.4V4.8H12.8V5.6H9.60001V6.4H8V7.2H5.6V8H3.99999V8.8H3.20001V9.6H2.40001V10.4H1.60001V12H0.800003V13.6H0V66.4H0.800003V68H1.60001V68.8H2.40001V70.4H3.20001V71.2H3.99999V72H5.6V72.8H6.4V73.6H8.80001V74.4H9.60001V75.2H12.8V76H14.4V76.8H17.6V77.6H20V78.4H25.6V79.2H31.2V80H44.8V79.2H51.2V78.4H57.6V77.6H60V76.8H64V76H66.4V75.2H69.6V74.4H71.2V73.6H74.4V72.8H76V72H76.8V71.2H77.6V70.4H78.4V69.6H79.2V68H80V12.8H79.2ZM78.4 16.8V17.6H77.6V19.2H76.8V20.8H76V21.6H75.2V22.4H74.4V23.2H72.8V24H71.2V24.8H69.6V25.6H68V26.4H64.8V27.2H63.2V28H58.4V28.8H54.4V29.6H45.6V30.4H40V31.2H37.6V30.4H34.4V29.6H28V28.8H24.8V28H19.2V27.2H16V26.4H12V25.6H10.4V24.8H8.80001V24H7.2V23.2H6.4V22.4H5.6V21.6H4.79999V20.8H3.99999V20H3.20001V18.4H2.40001V14.4H3.20001V12.8H3.99999V12H4.79999V11.2H5.6V10.4H7.2V9.6H8.80001V8.8H11.2V8H12.8V7.2H16V6.4H18.4V5.6H22.4V4.8H25.6V4H29.6V3.2H54.4V4H57.6V4.8H60.8V5.6H64V6.4H66.4V7.2H68.8V8H70.4V8.8H72.8V9.6H73.6V10.4H74.4V11.2H75.2V12H76.8V13.6H77.6V16H78.4V16.8ZM69.6 72H68.8V72.8H68V73.6H64.8V74.4H62.4V75.2H57.6V76H53.6V76.8H42.4V64.8H46.4V64H49.6V63.2H55.2V62.4H59.2V61.6H62.4V60.8H68V60H72V59.2H72.8V68.8H72V70.4H71.2V71.2H70.4V72H69.6ZM77.6 28.8V33.6H76.8V36H76V33.6H75.2V27.2H76V26.4H76.8V28H77.6V28.8ZM77.6 41.6V48.8H76.8V51.2H76V52.8H75.2V53.6H74.4V54.4H73.6V55.2H72.8V56H70.4V56.8H68.8V57.6H65.6V58.4H61.6V47.2H63.2V46.4H64V45.6H66.4V44.8H68V44H70.4V43.2H72V42.4H73.6V41.6H75.2V40.8H77.6V41.6ZM77.6 59.2V64.8H76.8V67.2H76V64.8H75.2V59.2H76V57.6H76.8V58.4H77.6V59.2ZM3.20001 67.2V60H2.40001V56H3.99999V56.8H4.79999V57.6H5.6V68H3.99999V67.2H3.20001ZM2.40001 44V41.6H3.20001V40.8H4.79999V41.6H7.2V42.4H8.80001V43.2H10.4V44H13.6V44.8H15.2V45.6H16.8V46.4H18.4V47.2H19.2V58.4H15.2V57.6H11.2V56.8H9.60001V56H8V55.2H7.2V54.4H6.4V53.6H5.6V52.8H4.79999V52H3.99999V48.8H3.20001V44.8H2.40001V44ZM2.40001 28V24.8H3.99999V25.6H4.79999V26.4H5.6V36.8H3.99999V36H3.20001V28.8H2.40001V28ZM56.8 31.2H59.2V30.4H62.4V29.6H68V28.8H72V28H72.8V38.4H72V39.2H71.2V40H70.4V40.8H68.8V41.6H66.4V42.4H64.8V43.2H62.4V44H57.6V44.8H53.6V45.6H42.4V33.6H44V32.8H49.6V32H53.6V31.2H56.8ZM13.6 29.6H18.4V30.4H21.6V31.2H27.2V32H31.2V32.8H36.8V33.6H38.4V45.6H27.2V44.8H23.2V44H18.4V43.2H16V42.4H14.4V41.6H12V40.8H10.4V40H8.80001V37.6H8V28H8.80001V28.8H12.8V29.6H13.6ZM56.8 60H23.2V59.2H22.4V58.4H21.6V48H59.2V56H58.4V59.2H57.6V60H56.8ZM12 72.8V72H10.4V71.2H9.60001V70.4H8.80001V68.8H8V59.2H8.80001V60H12.8V60.8H17.6V61.6H21.6V62.4H25.6V63.2H31.2V64H34.4V64.8H38.4V76.8H27.2V76H23.2V75.2H18.4V74.4H16V73.6H12.8V72.8H12Z" fill="white"/>
<path d="M71.9961 12.7988H71.1961V11.9988H70.3961V11.1988H68.7961V10.3988H67.1961V9.59883H65.5961V8.79883H63.1961V7.99883H59.9961V7.19883H53.5961V6.39883H48.7961V5.59883H40.7961V4.79883H39.9961V5.59883H30.3961V6.39883H27.9961V7.19883H23.1961V7.99883H19.9961V8.79883H16.7961V9.59883H14.3961V10.3988H11.9961V11.1988H10.3961V11.9988H8.7961V13.5988H7.99609V17.5988H8.7961V19.1988H10.3961V20.7988H12.7961V21.5988H13.5961V22.3988H15.9961V23.1988H18.3961V23.9988H20.7961V24.7988H25.5961V25.5988H30.3961V26.3988H48.7961V25.5988H53.5961V24.7988H58.3961V23.9988H60.7961V23.1988H63.1961V22.3988H66.3961V21.5988H67.9961V20.7988H70.3961V19.1988H71.9961V17.5988H72.7961V13.5988H71.9961V12.7988ZM61.5961 20.7988H59.9961V21.5988H56.7961V22.3988H51.1961V23.1988H43.1961V23.9988H37.5961V23.1988H29.5961V22.3988H23.9961V21.5988H20.7961V20.7988H16.7961V19.9988H15.1961V19.1988H14.3961V18.3988H13.5961V17.5988H12.7961V16.7988H11.9961V15.9988H11.1961V15.1988H12.7961V13.5988H14.3961V12.7988H15.1961V11.9988H16.7961V11.1988H19.1961V10.3988H24.7961V9.59883H27.9961V8.79883H34.3961V7.99883H38.3961V7.19883H42.3961V7.99883H46.3961V8.79883H51.9961V9.59883H55.9961V10.3988H60.7961V11.1988H63.9961V11.9988H65.5961V12.7988H66.3961V13.5988H67.1961V14.3988H67.9961V15.1988H68.7961V16.7988H67.9961V17.5988H67.1961V18.3988H66.3961V19.1988H64.7961V19.9988H63.1961V20.7988H61.5961Z" fill="white"/>
<rect x="96" y="70" width="4" height="4" fill="#D9D9D9"/>
<rect x="116" y="70" width="4" height="4" fill="#D9D9D9"/>
<rect x="136" y="70" width="4" height="4" fill="#D9D9D9"/>
<rect x="156" y="70" width="4" height="4" fill="#D9D9D9"/>
<rect x="176" y="70" width="4" height="4" fill="#D9D9D9"/>
<rect x="196" y="70" width="4" height="4" fill="#D9D9D9"/>
<rect x="216" y="70" width="4" height="4" fill="#D9D9D9"/>
<rect x="236" y="70" width="4" height="4" fill="#D9D9D9"/>
<path d="M300.697 48.8392V48.1448H300.213V47.1032H299.73V46.4088H299.246V46.0616H298.762V45.7144H298.279V45.02H297.312V44.6728H296.344V44.3256H295.861V43.9784H294.41V43.6312H293.443V42.9368H292.959V42.2424H292.476V41.548H291.992V41.2008H291.508V40.8536H291.025V40.5064H290.541V40.1592H289.574V39.812H289.09V39.4648H287.64V39.812H287.156V40.1592H286.189V40.5064H285.705V40.8536H284.738V41.2008H284.254V41.8952H283.771V42.5896H283.287V43.284H282.804V43.6312H282.32V43.9784H281.836V44.3256H280.869V44.6728H279.902V45.02H278.935V45.3672H277.968V45.7144H277V46.0616H276.033V46.4088H271.681V46.756H268.779V47.1032H266.361V47.4504H264.91V47.7976H263.46V48.1448H262.492V48.492H261.042V48.8392H260.074V49.1864H259.591V49.5336H259.107V49.8808H258.624V50.228H257.656V50.9224H257.173V51.2696H256.689V51.6168H256.206V52.3112H255.722V53.0056H255.238V53.7H254.755V54.3944H254.271V55.436H253.788V57.172H253.304V60.644H252.82V62.38H253.304V65.5048H253.788V66.8936H254.271V68.2824H253.788V71.06H254.271V72.1016H254.755V73.1432H255.722V73.8376H256.206V74.1848H257.173V74.532H276.517V74.1848H277V73.4904H277.484V73.1432H277.968V72.4488H278.935V72.1016H279.418V71.7544H279.902V71.4072H280.386V71.06H280.869V70.7128H281.353V70.3656H282.32V70.7128H282.804V71.4072H283.287V72.796H283.771V73.1432H284.254V73.8376H284.738V74.1848H285.705V74.532H293.926V74.1848H294.41V73.8376H294.894V72.796H295.377V71.4072H294.894V70.7128H294.41V70.0184H293.926V69.6712H293.443V69.324H292.476V68.9768H291.992V68.6296H291.025V68.2824H290.541V67.9352H290.058V67.2408H289.574V65.5048H289.09V64.8104H288.607V63.4216H289.09V62.7272H289.574V62.0328H290.058V61.3384H290.541V60.9912H291.025V60.2968H291.508V59.9496H291.992V59.6024H292.476V59.2552H292.959V58.908H293.443V58.5608H293.926V58.2136H294.41V57.8664H294.894V57.5192H295.377V57.172H295.861V56.8248H296.344V56.4776H296.828V56.1304H297.312V55.7832H297.795V55.436H298.279V55.0888H298.762V54.3944H299.246V54.0472H299.73V53.3528H300.213V52.3112H300.697V51.6168H301.18V48.8392H300.697ZM299.73 51.6168V51.964H299.246V52.6584H298.762V53.3528H298.279V54.0472H297.795V54.3944H297.312V54.7416H296.828V55.0888H296.344V55.436H295.861V55.7832H295.377V56.1304H294.894V56.4776H294.41V56.8248H293.926V57.172H293.443V57.5192H292.959V57.8664H292.476V58.2136H291.992V58.5608H291.508V58.908H291.025V59.2552H290.541V59.9496H290.058V60.2968H289.574V60.9912H289.09V61.6856H288.607V62.0328H288.123V56.4776H288.607V56.1304H289.09V55.7832H289.574V55.436H290.058V55.0888H290.541V54.3944H291.025V54.0472H291.992V53.7H292.476V53.3528H292.959V53.0056H293.443V52.6584H294.41V52.3112H295.861V51.964H296.344V51.6168H297.312V51.2696H298.762V50.9224H299.73V51.6168ZM287.64 65.1576V65.5048H288.123V67.2408H288.607V68.9768H289.09V69.324H290.541V69.6712H291.508V70.0184H291.992V70.3656H292.476V70.7128H292.959V71.06H293.443V71.4072H293.926V72.796H293.443V73.1432H285.705V72.796H285.222V72.4488H284.738V71.4072H284.254V70.7128H283.771V70.0184H283.287V68.9768H282.804V67.588H282.32V67.2408H281.836V65.852H281.353V64.8104H280.869V63.7688H280.386V63.0744H278.935V63.4216H277.968V63.7688H277.484V64.116H277V64.4632H276.517V64.8104H276.033V65.1576H275.55V65.5048H274.582V65.852H274.099V64.8104H274.582V63.7688H275.066V59.9496H274.582V59.2552H274.099V58.2136H273.615V57.8664H273.132V57.5192H272.648V57.172H272.164V56.8248H271.681V56.4776H271.197V56.1304H267.328V56.4776H266.361V56.8248H265.394V57.172H264.91V57.5192H263.943V57.8664H262.976V58.2136H262.492V58.5608H262.009V58.908H261.525V59.2552H261.042V59.6024H260.558V59.9496H260.074V60.2968H259.591V60.644H259.107V60.9912H258.624V61.6856H258.14V62.0328H257.656V62.38H257.173V63.0744H256.689V63.4216H256.206V64.116H255.722V65.1576H255.238V65.5048H254.755V63.4216H254.271V59.2552H254.755V56.4776H255.238V56.1304H255.722V54.7416H256.206V53.7H256.689V53.3528H257.173V52.6584H257.656V52.3112H258.14V51.964H258.624V51.2696H259.107V50.9224H259.591V50.5752H260.074V50.228H261.525V49.8808H262.492V49.5336H263.46V49.1864H263.943V48.8392H265.394V48.492H270.23V48.1448H273.132V47.7976H275.066V47.4504H276.517V47.1032H277.968V46.756H278.935V46.4088H280.386V46.0616H280.869V45.7144H281.836V45.3672H282.32V45.02H282.804V44.6728H283.771V43.9784H284.254V43.284H284.738V42.5896H285.222V42.2424H285.705V41.8952H286.189V41.548H286.672V41.2008H287.64V40.8536H289.09V41.2008H290.058V41.548H290.541V41.8952H291.025V42.2424H291.508V42.5896H291.992V43.6312H292.476V44.6728H293.443V45.02H294.894V45.3672H295.861V45.7144H296.344V46.0616H296.828V46.4088H297.795V46.756H298.279V47.4504H298.762V48.1448H299.246V48.492H299.73V49.8808H298.279V50.228H296.344V50.5752H295.377V50.9224H294.41V51.2696H293.443V51.6168H292.959V51.964H292.476V52.3112H291.508V52.6584H291.025V53.0056H290.541V53.3528H290.058V53.7H289.574V54.0472H289.09V54.3944H288.607V54.7416H288.123V55.436H287.64V55.7832H287.156V56.1304H286.672V61.6856H287.156V64.8104H287.64V65.1576ZM280.386 69.6712V70.0184H279.902V70.3656H279.418V70.7128H278.935V71.06H277.484V70.3656H277V69.6712H276.517V69.324H275.55V68.9768H275.066V68.6296H273.615V68.2824H273.132V67.588H274.099V67.2408H275.066V66.8936H275.55V66.5464H276.033V66.1992H276.517V65.852H277V65.5048H277.968V65.1576H278.935V64.8104H279.902V65.5048H280.386V66.8936H280.869V68.2824H281.353V68.9768H281.836V69.324H280.869V69.6712H280.386ZM276.517 73.1432H257.173V72.796H256.206V71.7544H255.722V66.5464H256.206V65.5048H257.173V64.4632H257.656V63.4216H258.14V63.0744H258.624V62.7272H259.107V62.0328H259.591V61.6856H260.074V61.3384H260.558V60.9912H261.042V60.644H261.525V60.2968H262.009V59.9496H262.976V59.6024H263.46V59.2552H263.943V58.908H264.91V58.5608H265.394V58.2136H266.361V57.8664H268.296V57.5192H270.23V57.8664H271.681V58.2136H272.164V58.5608H272.648V59.6024H273.132V60.644H273.615V63.4216H273.132V64.8104H272.648V65.852H272.164V66.1992H271.681V67.2408H271.197V67.588H270.714V67.9352H270.23V68.2824H269.746V68.6296H269.263V68.9768H267.812V69.324H263.943V68.9768H262.976V69.324H262.492V70.0184H262.976V70.3656H268.779V70.0184H269.746V69.6712H270.714V69.324H272.648V69.6712H274.099V70.0184H275.066V70.3656H275.55V71.06H276.517V73.1432Z" fill="white"/>
<path d="M287.155 44.673V45.0202H287.639V45.3674H288.123V45.7146H288.606V45.3674H289.09V45.0202H289.573V44.673H290.02V44.3258V43.9786V43.6314H289.573V43.2842V42.937H289.09V42.5898H288.606H288.123H287.639V42.937H287.155V43.2842H286.672V43.6314V43.9786V44.3258H287.155V44.673Z" fill="white"/>
</svg>
