<svg width="71" height="34" viewBox="0 0 71 34" fill="none" xmlns="http://www.w3.org/2000/svg">
<mask id="path-1-inside-1_402_15303" fill="white">
<path d="M0 0H71V34H0V0Z"/>
</mask>
<path d="M71 32H0V36H71V32Z" fill="#00C13A" mask="url(#path-1-inside-1_402_15303)"/>
<path d="M21 12C22.6569 12 24 10.6569 24 9C24 7.34315 22.6569 6 21 6C19.3431 6 18 7.34315 18 9C18 10.6569 19.3431 12 21 12Z" stroke="#00C13A" stroke-width="2" stroke-linecap="round" stroke-linejoin="round"/>
<path d="M11 22C12.6569 22 14 20.6569 14 19C14 17.3431 12.6569 16 11 16C9.34315 16 8 17.3431 8 19C8 20.6569 9.34315 22 11 22Z" stroke="#00C13A" stroke-width="2" stroke-linecap="round" stroke-linejoin="round"/>
<path d="M18 16H24V21C24 21.2652 23.8946 21.5196 23.7071 21.7071C23.5196 21.8946 23.2652 22 23 22H19C18.7348 22 18.4804 21.8946 18.2929 21.7071C18.1054 21.5196 18 21.2652 18 21V16ZM8 6H14V11C14 11.2652 13.8946 11.5196 13.7071 11.7071C13.5196 11.8946 13.2652 12 13 12H9C8.73478 12 8.48043 11.8946 8.29289 11.7071C8.10536 11.5196 8 11.2652 8 11V6Z" stroke="#00C13A" stroke-width="2" stroke-linecap="round" stroke-linejoin="round"/>
<path d="M38.9199 8.2721C38.9199 10.4268 40.3149 12.4572 43.0704 13.2997L42.0414 15.0055C40.0594 14.384 38.6575 13.1271 37.8771 11.5387C37.0967 13.3895 35.6119 14.8536 33.4917 15.5649L32.3867 13.8453C35.232 12.9268 36.7238 10.634 36.7376 8.28591V8.06492H32.9945V6.31077H42.5801V8.06492H38.9199V8.2721ZM34.797 19.3425C34.7901 17.2293 37.076 16 40.7707 16C44.4309 16 46.6754 17.2293 46.6754 19.3425C46.6754 21.4696 44.4309 22.7196 40.7707 22.7127C37.076 22.7196 34.7901 21.4696 34.797 19.3425ZM36.9655 19.3425C36.9586 20.4337 38.3467 21.0138 40.7707 21.0069C43.1878 21.0138 44.5414 20.4337 44.5414 19.3425C44.5414 18.2721 43.1878 17.7058 40.7707 17.7058C38.3467 17.7058 36.9586 18.2721 36.9655 19.3425ZM44.3343 15.6133V5.0884H46.5166V9.32182H48.982V11.1036H46.5166V15.6133H44.3343ZM65.5117 18.866V20.6478H49.3722V18.866H65.5117ZM51.2575 8.08563V6.33149H63.5987V12.0221H53.4537V14.3218H64.0062V16.0483H51.2852V10.2818H61.4509V8.08563H51.2575Z" fill="#00C13A"/>
</svg>
