<svg width="71" height="34" viewBox="0 0 71 34" fill="none" xmlns="http://www.w3.org/2000/svg">
<path d="M21 12C22.6569 12 24 10.6569 24 9C24 7.34315 22.6569 6 21 6C19.3431 6 18 7.34315 18 9C18 10.6569 19.3431 12 21 12Z" stroke="#999999" stroke-width="2" stroke-linecap="round" stroke-linejoin="round"/>
<path d="M11 22C12.6569 22 14 20.6569 14 19C14 17.3431 12.6569 16 11 16C9.34315 16 8 17.3431 8 19C8 20.6569 9.34315 22 11 22Z" stroke="#999999" stroke-width="2" stroke-linecap="round" stroke-linejoin="round"/>
<path d="M18 16H24V21C24 21.2652 23.8946 21.5196 23.7071 21.7071C23.5196 21.8946 23.2652 22 23 22H19C18.7348 22 18.4804 21.8946 18.2929 21.7071C18.1054 21.5196 18 21.2652 18 21V16ZM8 6H14V11C14 11.2652 13.8946 11.5196 13.7071 11.7071C13.5196 11.8946 13.2652 12 13 12H9C8.73478 12 8.48043 11.8946 8.29289 11.7071C8.10536 11.5196 8 11.2652 8 11V6Z" stroke="#999999" stroke-width="2" stroke-linecap="round" stroke-linejoin="round"/>
<path d="M38.7578 8.38281C38.748 10.6094 40.3008 12.6406 42.957 13.4805L42.0781 14.9258C40.0859 14.291 38.6309 12.9727 37.8594 11.3125C37.0977 13.2266 35.5645 14.7402 33.4648 15.4727L32.5078 13.9883C35.2422 13.0898 36.8926 10.834 36.9023 8.40234V7.91406H33.0547V6.41016H42.5273V7.91406H38.7578V8.38281ZM34.8711 19.3398C34.8711 17.2891 37.1074 16.0879 40.75 16.0977C44.3535 16.0879 46.5508 17.2891 46.5508 19.3398C46.5508 21.4199 44.3535 22.6309 40.75 22.6211C37.1074 22.6309 34.8711 21.4199 34.8711 19.3398ZM36.7266 19.3398C36.7168 20.5117 38.2207 21.166 40.75 21.1562C43.2598 21.166 44.7441 20.5117 44.7344 19.3398C44.7441 18.1973 43.2598 17.5527 40.75 17.5625C38.2207 17.5527 36.7168 18.1973 36.7266 19.3398ZM44.5391 15.668V5.16016H46.3945V9.49609H48.9336V11.0195H46.3945V15.668H44.5391ZM65.4453 18.9883V20.5117H49.4297V18.9883H65.4453ZM51.3438 7.95312V6.44922H63.4922V11.918H53.2188V14.4766H63.9023V15.9609H51.3828V10.4141H61.6562V7.95312H51.3438Z" fill="#999999"/>
</svg>
