<svg width="634" height="80" viewBox="0 0 634 80" fill="none" xmlns="http://www.w3.org/2000/svg">
<g filter="url(#filter0_d_495_24661)">
<rect x="12" y="12" width="610" height="56" rx="8" fill="#FFA500"/>
<path d="M239.316 37.2476L239.116 37.7058C239.085 37.7804 239.033 37.8441 238.966 37.8889C238.898 37.9338 238.819 37.9577 238.738 37.9577C238.658 37.9577 238.579 37.9338 238.511 37.8889C238.444 37.8441 238.392 37.7804 238.36 37.7058L238.161 37.2476C237.811 36.437 237.17 35.7872 236.364 35.4262L235.75 35.1518C235.675 35.1175 235.612 35.0625 235.568 34.9935C235.524 34.9244 235.5 34.844 235.5 34.762C235.5 34.68 235.524 34.5996 235.568 34.5305C235.612 34.4615 235.675 34.4065 235.75 34.3722L236.33 34.114C237.156 33.7427 237.808 33.0688 238.152 32.2311L238.358 31.7365C238.388 31.6599 238.441 31.5941 238.509 31.5477C238.577 31.5014 238.657 31.4766 238.739 31.4766C238.822 31.4766 238.902 31.5014 238.97 31.5477C239.038 31.5941 239.09 31.6599 239.121 31.7365L239.325 32.2303C239.669 33.0682 240.321 33.7424 241.147 34.114L241.728 34.373C241.802 34.4074 241.865 34.4624 241.909 34.5314C241.953 34.6003 241.977 34.6805 241.977 34.7624C241.977 34.8443 241.953 34.9245 241.909 34.9935C241.865 35.0625 241.802 35.1174 241.728 35.1518L241.113 35.4254C240.307 35.7867 239.666 36.4369 239.316 37.2476M237.981 48.9733C238.811 43.9616 240.61 33.094 252.5 33.094C251.289 35.5225 250.476 36.7368 249.667 37.5463L248.857 38.3558L250.071 39.1653C249.262 41.5938 246.833 44.4271 243.595 44.8318C241.435 45.1017 240.085 46.5858 239.546 49.2841H237.929L237.981 48.9733Z" fill="black"/>
<path d="M265.674 45H263.773L267.26 35.1016H269.447L272.947 45H271.047L270.227 42.5527H266.494L265.674 45ZM266.973 41.1172H269.748L268.395 37.125H268.312L266.973 41.1172ZM273.746 45V37.5762H275.496V45H273.746ZM274.634 36.5234C274.087 36.5234 273.623 36.0996 273.623 35.5664C273.623 35.0469 274.087 34.623 274.634 34.623C275.195 34.623 275.646 35.0469 275.646 35.5664C275.646 36.0996 275.195 36.5234 274.634 36.5234ZM289.684 33.8574V46.2168H288.153V33.8574H289.684ZM286.677 35.0605V36.3047H285.487V41.8418C286.082 41.8008 286.663 41.7461 287.223 41.6777L287.305 42.8125C284.653 43.2363 281.755 43.291 279.485 43.291L279.335 42.0469L280.866 42.0332V36.3047H279.663V35.0605H286.677ZM282.329 41.9922C282.876 41.9854 283.436 41.9648 283.997 41.9375V36.3047H282.329V41.9922ZM301.147 39.6543V40.8711H292.479V34.9375H301.051V36.168H293.983V39.6543H301.147ZM302.405 43.3867V44.6445H291.112V43.3867H302.405ZM304.775 34.6504V36.4688H306.812V34.6504H308.221V40.543H303.34V34.6504H304.775ZM304.775 39.3398H306.812V37.6445H304.775V39.3398ZM313.43 33.8711V41.2949H311.98V38.1914H310.75V41.2266H309.328V34.1035H310.75V36.9473H311.98V33.8711H313.43ZM313.43 41.9238V46.2168H311.912V43.1543H304.967V41.9238H313.43ZM328.876 43.4824V44.7266H317.583V43.4824H322.45V41.0762H318.827V34.6777H320.345V36.7012H326.073V34.6777H327.591V41.0762H323.954V43.4824H328.876ZM320.345 39.8457H326.073V37.918H320.345V39.8457ZM339.423 34.9922V36.1816C339.409 37.7129 339.409 39.4355 338.93 42.0195L337.399 41.8555C337.878 39.4492 337.878 37.6924 337.891 36.209H330.509V34.9922H339.423ZM340.598 43.373V44.6172H329.333V43.373H333.489V39.0801H334.993V43.373H340.598ZM345.649 36.8242C345.649 39.1211 346.743 41.377 348.711 42.2383L347.795 43.4551C346.394 42.7715 345.41 41.459 344.883 39.8457C344.343 41.5479 343.338 42.9629 341.916 43.6875L340.959 42.457C342.969 41.5137 344.09 39.1348 344.104 36.8242V34.8555H345.649V36.8242ZM351.446 33.8574V46.2305H349.942V39.0801H347.344V37.8496H349.942V33.8574H351.446ZM359.66 36.1543C359.66 37.4941 360.439 38.834 362.066 39.4492L361.259 40.6113C360.159 40.1875 359.393 39.4014 358.949 38.4375C358.498 39.5449 357.691 40.4883 356.515 40.9805L355.695 39.8184C357.39 39.0664 358.183 37.5215 358.197 36.1543V34.623H359.66V36.1543ZM366.373 33.8711V41.4453H364.923V38.2324H363.693V41.0625H362.271V34.1035H363.693V36.9883H364.923V33.8711H366.373ZM362.203 41.6504C364.787 41.6504 366.427 42.498 366.441 43.9199C366.427 45.3418 364.787 46.2031 362.203 46.2031C359.591 46.2031 357.964 45.3418 357.964 43.9199C357.964 42.498 359.591 41.6504 362.203 41.6504ZM362.203 42.7988C360.494 42.7988 359.482 43.1953 359.482 43.9199C359.482 44.6582 360.494 45.041 362.203 45.041C363.898 45.041 364.91 44.6582 364.91 43.9199C364.91 43.1953 363.898 42.7988 362.203 42.7988ZM372.079 35.6348C372.066 37.3164 373.05 38.8477 374.991 39.4629L374.171 40.6523C372.824 40.1807 371.881 39.2852 371.355 38.1094C370.808 39.4561 369.776 40.5156 368.279 41.0352L367.472 39.8047C369.523 39.1348 370.548 37.4805 370.548 35.7031V34.5273H372.079V35.6348ZM377.904 33.8574V41.1309H376.386V37.4941H373.925V36.25H376.386V33.8574H377.904ZM373.72 41.459C376.345 41.459 377.945 42.334 377.945 43.8379C377.945 45.3418 376.345 46.2031 373.72 46.2031C371.109 46.2031 369.509 45.3418 369.523 43.8379C369.509 42.334 371.109 41.459 373.72 41.459ZM373.72 42.6348C371.997 42.6348 371.027 43.0586 371.027 43.8379C371.027 44.5898 371.997 45.0137 373.72 45.0137C375.443 45.0137 376.427 44.5898 376.427 43.8379C376.427 43.0586 375.443 42.6348 373.72 42.6348ZM388.983 33.8574V38.7793H390.884V40.0371H388.983V46.2168H387.479V33.8574H388.983ZM386.522 35.7578V36.9746H379.235V35.7578H382.161V34.0352H383.679V35.7578H386.522ZM382.927 37.7812C384.704 37.7812 386.03 38.9844 386.03 40.6934C386.03 42.4023 384.704 43.5918 382.927 43.5918C381.122 43.5918 379.796 42.4023 379.809 40.6934C379.796 38.9844 381.122 37.7812 382.927 37.7812ZM382.927 39.0254C381.956 39.0254 381.259 39.6816 381.259 40.6934C381.259 41.7051 381.956 42.3477 382.927 42.334C383.87 42.3477 384.567 41.7051 384.581 40.6934C384.567 39.6816 383.87 39.0254 382.927 39.0254ZM401.375 33.8574V46.2168H399.844V33.8574H401.375ZM397.684 35.1699C397.684 38.8477 396.262 41.9785 391.928 44.0293L391.135 42.8125C394.369 41.2744 395.872 39.1826 396.139 36.373H391.764V35.1699H397.684Z" fill="#111111"/>
</g>
<defs>
<filter id="filter0_d_495_24661" x="0" y="0" width="634" height="80" filterUnits="userSpaceOnUse" color-interpolation-filters="sRGB">
<feFlood flood-opacity="0" result="BackgroundImageFix"/>
<feColorMatrix in="SourceAlpha" type="matrix" values="0 0 0 0 0 0 0 0 0 0 0 0 0 0 0 0 0 0 127 0" result="hardAlpha"/>
<feOffset/>
<feGaussianBlur stdDeviation="6"/>
<feComposite in2="hardAlpha" operator="out"/>
<feColorMatrix type="matrix" values="0 0 0 0 1 0 0 0 0 1 0 0 0 0 1 0 0 0 0.1 0"/>
<feBlend mode="normal" in2="BackgroundImageFix" result="effect1_dropShadow_495_24661"/>
<feBlend mode="normal" in="SourceGraphic" in2="effect1_dropShadow_495_24661" result="shape"/>
</filter>
</defs>
</svg>
