<svg width="65" height="28" viewBox="0 0 65 28" fill="none" xmlns="http://www.w3.org/2000/svg">
<path d="M19.8917 23.66C18.7484 24.7683 17.5 24.5933 16.2984 24.0683C15.0267 23.5317 13.86 23.5083 12.5184 24.0683C10.8384 24.7917 9.9517 24.5817 8.94836 23.66C3.25503 17.7917 4.09503 8.855 10.5584 8.52833C12.1334 8.61 13.23 9.39167 14.1517 9.46167C15.5284 9.18167 16.8467 8.37667 18.3167 8.48167C20.0784 8.62167 21.4084 9.32167 22.2834 10.5817C18.6434 12.7633 19.5067 17.5583 22.8434 18.9C22.1784 20.65 21.315 22.3883 19.88 23.6717L19.8917 23.66ZM14.035 8.45833C13.86 5.85667 15.9717 3.71 18.3984 3.5C18.7367 6.51 15.6684 8.75 14.035 8.45833Z" fill="#999999"/>
<path d="M33.2017 21V10.3923H35.6878V21H33.2017ZM33.0014 7.53315C33.0014 6.78039 33.6506 6.17956 34.4517 6.17956C35.232 6.17956 35.8881 6.78039 35.8881 7.53315C35.8881 8.27901 35.232 8.87983 34.4517 8.87983C33.6506 8.87983 33.0014 8.27901 33.0014 7.53315ZM50.8193 13.9282C50.8193 18.5 48.0292 21.1934 44.3276 21.1934C40.6052 21.1934 37.8359 18.4862 37.8359 13.9282C37.8359 9.35635 40.6052 6.66298 44.3276 6.66298C48.0292 6.66298 50.8193 9.35635 50.8193 13.9282ZM40.3911 13.9282C40.3911 17.1602 42.014 18.9075 44.3276 18.9075C46.6342 18.9075 48.2571 17.1602 48.2571 13.9282C48.2571 10.6961 46.6342 8.94889 44.3276 8.94889C42.014 8.94889 40.3911 10.6961 40.3911 13.9282ZM60.7642 10.7445C60.6399 9.52901 59.6247 8.82459 58.0916 8.82459C56.4825 8.82459 55.5225 9.60497 55.5225 10.6754C55.5087 11.8564 56.7656 12.3536 57.9328 12.6298L59.2587 12.9613C61.372 13.4586 63.4093 14.5704 63.4093 17.029C63.4093 19.5152 61.441 21.2141 58.0502 21.2141C54.7629 21.2141 52.6772 19.6395 52.5667 16.8356H55.0667C55.1772 18.3135 56.4272 19.0387 58.0294 19.0387C59.7076 19.0387 60.8609 18.2238 60.8678 17.0083C60.8609 15.9102 59.8388 15.4337 58.3195 15.0401L56.7104 14.6257C54.383 14.0318 52.9397 12.8577 52.9466 10.8273C52.9328 8.32735 55.1565 6.66298 58.1261 6.66298C61.1303 6.66298 63.1676 8.35497 63.2159 10.7445H60.7642Z" fill="#999999"/>
</svg>
