<svg width="37" height="36" viewBox="0 0 37 36" fill="none" xmlns="http://www.w3.org/2000/svg">
<circle cx="18.5" cy="18" r="18" fill="#999999"/>
<path d="M13.75 14.3994H10.5C9.94772 14.3994 9.5 14.8471 9.5 15.3994V23.8994C9.5 24.4517 9.94772 24.8994 10.5 24.8994H13.75C14.3023 24.8994 14.75 24.4517 14.75 23.8994V15.3994C14.75 14.8471 14.3023 14.3994 13.75 14.3994Z" fill="white"/>
<path d="M16.7826 14.1215C16.6328 14.3012 16.5508 14.5277 16.5508 14.7617V23.8996C16.5508 24.4519 16.9985 24.8996 17.5508 24.8996H24.2068C24.6484 24.8996 25.0377 24.6099 25.1646 24.187L27.7146 15.687C27.9071 15.0453 27.4266 14.3996 26.7568 14.3996H24.1316C23.481 14.3996 23.0036 13.7882 23.1614 13.1571L23.7635 10.7489C23.8487 10.4081 23.7488 10.0476 23.5004 9.79925L22.5751 8.87391C22.1593 8.45811 21.4762 8.4891 21.0998 8.94084L16.7826 14.1215Z" fill="white"/>
</svg>
