<svg width="48" height="48" viewBox="0 0 48 48" fill="none" xmlns="http://www.w3.org/2000/svg">
<path d="M45.4252 13.1102C43.9801 11.9117 42.3395 11.1296 40.5204 10.7046C40.3419 10.6621 40.1294 10.5176 40.0529 10.3561C39.2029 8.72403 37.9448 7.32996 36.1257 7.05795C33.2441 6.62443 31.221 7.80598 30.0479 10.2201C29.9884 10.3391 29.9034 10.4326 29.7844 10.4921C28.7559 11.0276 27.7528 11.6227 26.6818 12.0562C23.6811 13.2802 20.502 13.6203 17.3058 13.8753C11.5171 14.3343 4.91224 15.8219 2.23461 21.6446C1.49508 23.2597 0.959551 25.1808 0.815044 27.0934C0.679038 28.904 0.883049 30.7146 1.58008 32.2957C1.9796 33.1967 2.18361 33.9022 2.0136 34.8118C1.78409 36.0358 1.80959 37.2939 2.34512 38.45C3.15266 40.1925 4.58923 40.9236 6.45932 40.9236C11.7126 40.9236 16.9658 40.9236 22.2106 40.9236C22.3636 40.9236 22.5166 40.9236 22.6611 40.9066C23.6471 40.8046 24.3442 40.303 24.7777 39.4105C24.8542 39.2575 25.0242 39.062 25.1687 38.9855C26.3588 38.3479 27.5658 37.7274 28.7644 37.0984C28.8919 37.0304 29.0194 36.9624 29.1384 36.8944C29.5804 37.6594 29.9969 38.3989 30.422 39.1215C31.0765 40.252 32.2921 40.9406 33.5926 40.9321C34.6637 40.9321 35.5477 40.439 36.6188 40.4305C37.5538 40.4305 38.6844 40.9491 39.6194 40.8896C40.6905 40.8216 41.498 40.031 41.6935 38.9515C41.8125 38.2799 41.5745 37.5914 41.141 37.0644C40.1209 35.8148 38.7354 35.1518 37.1883 34.7948C36.8993 34.7268 36.6698 34.5228 36.5763 34.2508C36.2022 33.1542 35.8282 32.0576 35.4627 30.9611C35.4202 30.8336 35.4202 30.6466 35.4967 30.5446C36.5423 29.0825 37.5368 27.5694 38.9564 26.4389C40.4865 25.2233 42.076 24.0588 43.6486 22.9027C44.6091 22.1972 45.5357 21.4576 46.2412 20.4716C47.5673 18.61 47.7968 15.0993 45.4082 13.1102H45.4252ZM23.6301 38.8325C23.4176 39.351 23.0351 39.6145 22.4741 39.623C21.7005 39.623 20.9355 39.623 20.162 39.623C18.1814 39.623 16.2093 39.623 14.2287 39.623C11.6531 39.623 9.07744 39.623 6.49332 39.623C4.80174 39.623 3.33117 38.3479 3.21216 36.6649C3.11016 35.2028 3.33117 33.8087 4.1217 32.5677C6.66333 28.615 10.14 25.8609 14.6792 24.5433C15.6908 24.2458 16.7278 24.1693 17.7649 24.4243C19.8475 24.9258 21.2075 27.1019 20.8335 29.3035C20.553 30.9611 19.6519 32.3042 18.6999 33.6387C17.8159 34.8883 16.6173 35.3898 15.1722 35.5258C13.7527 35.6533 12.3416 35.6788 10.9305 35.4578C10.5055 35.3898 10.1825 35.6193 10.123 35.9933C10.072 36.3419 10.2845 36.6564 10.7095 36.7159C13.2256 37.0474 15.7163 37.0984 18.1049 36.0273C18.1644 36.0018 18.2324 35.9848 18.3004 35.9848C19.7115 36.0188 21.1055 36.1633 22.3721 36.8519C22.6866 37.0219 22.9841 37.2429 23.2476 37.4809C23.6981 37.8804 23.8086 38.3309 23.6046 38.824L23.6301 38.8325ZM24.9902 37.7359C23.8512 35.5938 21.8706 35.1433 19.941 34.7948L26.5798 31.0036L28.5774 35.7638L24.9902 37.7359ZM44.5496 20.4971C44.0396 20.9816 43.4701 21.4066 42.9006 21.8402C41.3875 22.9877 39.8404 24.0843 38.3443 25.2658C37.1883 26.1754 36.2362 27.2889 35.3862 28.4875C35.2927 28.615 35.1907 28.7425 34.9782 28.8615C34.8677 27.6374 34.8082 26.4134 34.6297 25.1978C34.4852 24.2203 34.8677 23.6082 35.5392 22.9452C38.3868 20.1656 41.7955 18.61 45.6802 17.9725C45.7312 17.964 45.7907 17.9725 45.8757 17.9725C45.7227 19.001 45.2552 19.8341 44.5496 20.5056V20.4971ZM43.3256 17.1734C39.6619 18.0065 36.6698 19.9786 34.0516 22.6137C33.5076 23.1577 33.2611 23.6932 33.2951 24.4753C33.4566 27.7734 33.8986 31.0206 35.1227 34.1147C35.1567 34.1997 35.1907 34.2848 35.2247 34.3698C35.5562 35.3303 36.0577 35.9933 37.2138 36.1548C38.3698 36.3249 39.3899 36.9454 40.1634 37.8804C40.4439 38.2204 40.563 38.586 40.3674 39.011C40.0444 39.691 39.3644 39.7845 38.3868 39.4275C37.1458 38.977 35.7942 39.062 34.5277 39.453C33.0741 39.9035 32.1475 39.47 31.5525 38.467C29.9289 35.7723 28.6454 32.9162 27.6168 29.9495C27.3193 29.108 26.9878 29.0145 26.2568 29.4905C24.6672 30.5191 23.0436 31.5221 21.437 32.5252C21.301 32.6102 21.148 32.6612 21.046 32.7122C21.369 31.8281 21.7856 30.9526 22.0236 30.0346C22.7716 27.0764 21.1565 24.0928 18.4109 23.2682C16.7533 22.7752 15.1042 22.9792 13.5232 23.5572C9.09444 25.1638 5.57527 27.9264 3.04215 31.9131C3.00815 31.9641 2.97415 32.0151 2.87214 32.1597C2.72764 31.6836 2.56613 31.2841 2.48963 30.8761C1.75859 26.8979 2.31112 23.1662 4.85274 19.9191C6.39131 17.9555 8.56742 16.9439 10.905 16.2469C13.0896 15.5924 15.3337 15.3458 17.5863 15.1588C20.8505 14.8953 24.1147 14.5298 27.1748 13.2632C28.4074 12.7532 29.5719 12.0647 30.7535 11.4357C30.9405 11.3337 31.0935 11.0956 31.187 10.8916C31.9265 9.14905 33.4396 8.1715 35.2757 8.26501C37.0098 8.35001 38.4464 9.50607 38.9904 11.2742C39.1009 11.6312 39.4239 11.8692 39.7979 11.9287C41.719 12.2347 43.4276 13.0167 44.8557 14.3598C45.4847 14.9548 45.8757 15.6859 45.9012 16.6124C45.0342 16.8079 44.1841 16.9949 43.3341 17.1904L43.3256 17.1734Z" fill="white"/>
<path d="M35.0009 9.87871C34.2527 9.88721 33.6576 10.4993 33.6661 11.2475C33.6746 11.9787 34.3207 12.5993 35.0434 12.5823C35.7746 12.5653 36.3952 11.9276 36.3782 11.1965C36.3612 10.4483 35.749 9.86171 35.0009 9.87021V9.87871Z" fill="white"/>
</svg>
