<svg width="200" height="44" viewBox="0 0 200 44" fill="none" xmlns="http://www.w3.org/2000/svg">
<g id="Logo">
<g id="Group">
<g id="Group_2">
<g id="Group_3">
<path id="Vector" d="M11.3764 19.5775C11.3308 20.6244 11.437 21.6788 11.5736 22.7104C11.6646 23.4538 11.3991 23.8331 10.7088 23.9773C8.83512 24.3565 6.97661 24.7814 5.08776 25.1151C3.63888 25.373 3.25959 25.0393 3.11547 23.5525C3.05478 22.9077 3.03961 22.2553 3.00168 21.6181C2.94099 17.1349 4.52642 13.3117 7.59106 10.0726C8.69858 8.89678 9.24476 8.81334 10.6254 9.60226C11.6722 10.2091 12.7039 10.8463 13.7279 11.4835C14.4789 11.9614 14.5093 12.1587 13.9934 12.9021C12.6052 14.9123 11.4826 17.0591 11.3688 19.5699L11.3764 19.5775Z" fill="white"/>
<path id="Vector_2" d="M46.4446 41.1765C43.342 42.2613 40.2243 43.2778 36.9321 43.6191C36.3631 43.6798 35.8018 43.6798 35.248 43.7253C34.1784 43.8012 33.1012 43.8695 32.0392 43.9908C31.2048 44.0743 30.7573 43.8088 30.7345 42.9895C30.689 41.1538 30.6662 39.3256 30.7345 37.4974C30.78 36.4278 31.8572 35.472 32.9344 35.381C34.0343 35.2976 35.1266 35.2217 36.2266 35.1383C36.1887 35.2141 36.1507 35.29 36.1128 35.381C36.4845 35.783 36.7728 36.3216 37.2279 36.5644C37.8651 36.8906 38.4416 36.5644 38.9347 36.0334C39.7388 35.161 40.778 34.7059 41.969 34.8121C42.3483 34.8348 42.94 35.0927 43.0082 35.3582C43.0993 35.692 42.8034 36.1699 42.5986 36.5416C42.371 36.9513 41.9462 37.2699 41.7794 37.6947C41.4683 38.4456 41.7338 39.2573 42.3483 39.6366C42.8186 39.94 43.6151 39.9856 44.1537 39.8187C44.9426 39.5759 45.0109 38.7339 45.0564 37.9905C45.064 37.7022 44.9805 37.4064 45.1019 37.0347C45.7391 38.0133 46.4218 38.9615 46.9984 39.9704C47.3018 40.4938 47.2108 40.9186 46.4674 41.1765H46.4446Z" fill="white"/>
<path id="Vector_3" d="M17.3692 36.104C16.7168 36.9915 16.0265 37.8487 15.3589 38.7362C15.0024 39.2217 14.6535 39.73 14.4031 40.1017C13.8721 39.6617 13.3336 39.1459 12.7191 38.7211C9.3131 36.3847 6.23328 33.7296 4.5189 29.823C4.38995 29.5347 4.26099 29.2237 4.19272 28.9127C3.85894 27.441 4.16996 26.8797 5.59608 26.4397C7.26495 25.9163 8.93381 25.4081 10.6179 24.9226C11.7633 24.5888 12.1653 24.7253 12.8177 25.6736C13.4929 26.6445 14.168 27.6079 14.7824 28.632C14.9721 28.943 15.0328 29.4133 14.9569 29.7623C14.6383 31.196 14.168 32.5842 13.0074 33.5779C12.6053 33.9193 12.1047 34.1469 11.6647 34.4199C10.9289 34.8675 10.5648 35.7019 10.8075 36.415C11.0275 37.0825 11.8543 37.6135 12.5977 37.5529C13.3411 37.4922 13.7963 37.0522 14.0845 36.3771C14.5018 35.3833 15.8444 34.693 16.8761 34.8978C17.6802 35.0496 17.8698 35.4516 17.3843 36.1116L17.3692 36.104Z" fill="white"/>
<path id="Vector_4" d="M60.6834 21.9174C60.6152 22.7215 60.5924 23.5332 60.4559 24.3221C60.2966 25.2476 59.7883 25.6041 58.9008 25.3765C56.7389 24.8228 54.5997 24.2007 52.4453 23.609C51.9674 23.4801 51.8157 23.1842 51.9067 22.6988C52.3619 20.3623 52.0205 18.0942 51.2619 15.8716C50.8978 14.8096 51.0116 14.582 52.066 14.1724C53.439 13.6338 54.8197 13.0952 56.2154 12.5945C57.3381 12.1925 57.816 12.3973 58.4153 13.4365C59.9249 16.0612 60.6986 18.8831 60.691 21.9174H60.6834Z" fill="white"/>
<path id="Vector_5" d="M15.5859 41.1112C15.7528 39.3513 17.1107 38.13 18.0513 36.6735C18.1499 36.6659 18.2561 36.6583 18.3547 36.6507C18.5065 37.0983 18.6658 37.5383 18.8175 37.9858C18.8326 38.0314 18.8099 38.092 18.8175 38.1451C18.8326 39.0099 19.4319 39.8671 20.1677 40.0643C20.7974 40.2312 21.4801 39.8671 21.8973 39.154C22.3297 38.4106 22.2235 37.5534 21.6242 36.9238C21.5711 36.8631 21.4877 36.8252 21.4497 36.7569C21.207 36.3701 20.9642 35.9832 20.7215 35.5963C21.1994 35.437 21.7228 35.0653 22.1552 35.1488C23.0276 35.3157 23.9682 35.566 24.6737 36.0742C26.1757 37.1514 27.0101 36.9693 27.5638 35.2019C29.3465 35.0805 30.052 35.7784 29.9609 37.5307C29.9003 38.7672 29.9761 40.0188 29.832 41.2477C29.7561 41.9304 29.4451 42.6283 29.0658 43.2048C28.8762 43.5007 28.3072 43.7207 27.9204 43.7131C24.3096 43.5993 20.8049 42.9469 17.4369 41.6042C16.8603 41.3767 16.2383 41.2781 15.5935 41.1188L15.5859 41.1112Z" fill="white"/>
<path id="Vector_6" d="M53.1137 36.232C53.1061 34.9348 52.4234 34.4873 51.5131 34.1459C50.4663 33.759 48.9567 31.233 49.0174 30.0951C49.0326 29.8448 49.2146 29.6021 49.2829 29.3441C49.4346 28.7373 49.4422 28.0621 49.7229 27.5236C50.2539 26.5222 50.8987 25.574 51.589 24.6789C51.7255 24.5044 52.3248 24.5879 52.6586 24.6941C54.5398 25.3237 56.4211 25.9836 58.2872 26.6664C59.1368 26.9774 59.2809 27.3567 58.9775 28.2518C58.3024 30.2772 57.0811 31.984 55.7004 33.577C54.9495 34.4494 54.0923 35.2307 53.1137 36.2244V36.232Z" fill="white"/>
<path id="Vector_7" d="M25.7465 4.46465C23.3721 3.44816 21.5667 3.67573 20.2468 5.14737C19.4199 6.06524 18.9117 7.14242 18.8055 8.40924C18.7827 8.72026 18.54 9.10713 18.2821 9.2816C17.4932 9.83536 16.636 10.2905 15.8167 10.8215C15.3388 11.1325 14.914 11.0718 14.474 10.7608C13.3362 9.94915 12.1755 9.16023 11.0453 8.34097C10.3398 7.83273 10.2791 7.55205 10.9542 7.02864C12.3349 5.96663 13.7306 4.89704 15.2402 4.03226C17.6752 2.6289 20.3302 1.73378 23.0687 1.11174C23.9866 0.906929 24.6845 1.25588 24.9955 2.12065C25.2534 2.8413 25.4582 3.59229 25.7313 4.46465H25.7465Z" fill="white"/>
<path id="Vector_8" d="M48.4559 4.59375C48.9793 4.76822 49.5406 4.87442 50.0185 5.13993C52.2032 6.35365 54.0997 7.9239 55.6775 9.87344C55.8444 10.0783 55.9961 10.3058 56.1327 10.541C56.4209 11.0189 56.3526 11.4285 55.8141 11.6561C54.1604 12.3692 52.5067 13.0898 50.8378 13.7498C50.6026 13.8408 50.1702 13.6967 49.9578 13.5146C48.4938 12.2174 47.0828 10.8596 45.6188 9.55484C44.9285 8.9328 44.7388 7.64322 45.3078 6.89223C45.6036 6.50536 45.9222 6.14124 46.2029 5.74679C46.7567 4.9958 47.447 4.56341 48.4559 4.60134V4.59375Z" fill="white"/>
<path id="Vector_9" d="M38.8047 0.625414C38.3496 1.97568 37.9703 3.06803 37.6213 4.16796C37.5 4.54725 37.3483 4.69897 36.931 4.59276C35.3911 4.20589 33.836 4.24382 32.281 4.49415C32.1217 4.51691 31.9548 4.51691 31.7955 4.49415C30.0963 4.20589 28.4198 4.20589 26.6827 4.82792C26.4854 4.09969 26.273 3.47007 26.1593 2.82528C26.1289 2.62805 26.3337 2.32462 26.5158 2.17291C28.1316 0.77713 29.8839 -0.209019 32.1444 0.0488968C34.3291 0.291641 36.5214 0.435771 38.8047 0.633V0.625414Z" fill="white"/>
<path id="Vector_10" d="M38.1172 4.43292C38.4585 3.4316 38.7544 2.54407 39.073 1.65654C39.2475 1.17105 39.5812 0.897961 40.135 1.07243C41.948 1.64136 43.7762 2.17995 45.5816 2.80199C46.4767 3.113 46.545 3.4847 46.014 4.25845C45.5285 4.95634 45.0278 5.64664 44.5271 6.35212C42.3956 3.73503 41.2729 3.39367 38.1248 4.43292H38.1172Z" fill="white"/>
<path id="Vector_11" d="M51.3781 37.7516C50.6726 38.1916 49.9747 38.6315 49.2693 39.0563C48.7307 39.3749 48.2148 39.2915 47.8052 38.8515C47.2059 38.2067 46.6218 37.5316 46.0832 36.8337C45.4764 36.0372 45.8481 35.1117 46.8342 34.8235C47.7445 34.558 49.2313 35.1269 49.6106 35.9993C49.9672 36.8185 50.392 37.4709 51.4084 37.5392C51.4009 37.6075 51.3857 37.6833 51.3781 37.7516Z" fill="white"/>
<path id="Vector_12" d="M42.6617 6.0102C42.1155 6.09364 41.6604 6.16191 41.137 6.24536C42.0928 6.7005 43.4734 5.98744 43.9589 7.48942C43.8375 7.46666 43.7541 7.46666 43.6782 7.43632C42.3128 6.89773 41.357 7.10255 40.3329 8.18731C40.2191 8.3011 40.1584 8.49833 40.0295 8.55143C39.7336 8.68038 39.415 8.75624 39.104 8.84727C39.0737 8.54384 38.9826 8.23282 39.0281 7.94456C39.3392 6.0633 41.319 5.23645 42.4038 5.75987C42.4721 5.79021 42.5176 5.85848 42.6693 6.00261L42.6617 6.0102Z" fill="white"/>
<path id="Vector_13" d="M24.4143 7.22266C24.3157 7.74608 24.2095 8.2695 24.1336 8.67913C23.5723 8.29225 22.9199 7.75367 22.1765 7.38196C21.3648 6.97233 20.5228 6.97233 19.8477 7.76884C20.2194 6.79786 20.6897 5.91791 21.8351 5.7131C22.9351 5.50828 23.9667 6.07721 24.6191 7.18473C24.5508 7.19991 24.4826 7.21508 24.4143 7.23025V7.22266Z" fill="white"/>
<path id="Vector_14" d="M20.0039 9.72266C21.1038 10.9288 22.2569 10.6557 23.5237 10.1778C22.2417 11.4522 20.6108 11.2777 20.0039 9.72266Z" fill="white"/>
<path id="Vector_15" d="M40.1406 10.0625C41.2481 10.6997 42.3784 10.9197 43.6983 10.1232C42.7501 11.4128 41.2406 11.3369 40.1406 10.0625Z" fill="white"/>
</g>
<g id="Group_4">
<path id="Vector_16" d="M19.4695 31.7074C19.6137 32.648 19.7275 33.71 19.9399 34.7569C20.1219 35.6823 20.2357 36.6457 21.1991 37.2374C21.6163 37.4953 21.7301 38.0643 21.3356 38.5194C20.9108 39.0125 20.3495 39.0959 19.7957 38.7925C19.3178 38.5346 19.3178 38.1022 19.4544 37.5939C19.5606 37.1919 19.6288 36.6912 19.4923 36.3195C18.9006 34.6886 18.2255 33.0804 17.5655 31.4267C16.2532 32.5646 15.0774 33.5583 13.9244 34.5824C13.6437 34.8327 13.3934 35.0831 13.5451 35.6065C13.6968 36.1375 13.2871 36.5243 12.7334 36.5926C12.1493 36.6685 11.6335 36.5092 11.459 35.872C11.3073 35.3106 11.5879 34.8782 12.1114 34.7341C13.6664 34.3169 14.4023 33.0577 15.085 31.806C15.4794 31.0854 15.6918 30.2509 15.8966 29.4468C15.9801 29.1131 15.9194 28.6959 15.798 28.3621C14.6222 25.1761 14.0533 21.9294 14.6222 18.5309C14.6753 18.2275 14.5995 17.8937 14.5464 17.5827C14.4174 16.8317 14.6222 16.1187 15.3125 15.8835C16.5263 15.4663 17.8007 15.2311 19.0523 14.958C19.2571 14.9125 19.5075 15.0567 19.5985 15.0794C19.5985 15.307 19.5378 15.489 19.6061 15.5725C20.0688 16.1263 20.5543 16.6648 21.1536 17.3476C19.5226 17.8861 18.0207 18.1061 16.3746 17.4082C17.8765 20.1695 17.52 23.1203 17.7021 25.9802C17.8083 27.7021 18.3999 28.9689 19.8261 29.993C21.5025 31.1916 22.9059 32.7846 24.9616 33.4142C25.2044 33.4901 25.4775 33.5583 25.7202 33.5356C26.3877 33.4673 26.9188 33.7252 26.9491 34.37C26.9643 34.7114 26.6077 35.2424 26.2815 35.3941C25.6899 35.6672 25.0602 35.303 24.9389 34.7265C24.8099 34.1348 24.4534 34.0362 24.0513 33.8542C22.5038 33.1335 20.9563 32.4053 19.4695 31.7074Z" fill="white"/>
<path id="Vector_17" d="M47.6749 17.4035C45.8239 18.0028 44.2461 17.9041 42.509 17.3124C43.3434 16.5539 44.0489 15.9167 45.0274 15.0291C46.0136 14.9988 47.3638 15.3553 48.6382 15.9318C49.3058 16.2353 49.5334 16.8801 49.3892 17.6462C49.3134 18.0331 49.3058 18.4503 49.3589 18.8448C49.7837 22.0991 49.3741 25.232 48.13 28.2663C47.9707 28.6607 47.8721 29.169 47.9707 29.571C48.3803 31.2627 48.9796 32.8784 50.3678 34.0466C50.7395 34.3576 51.1871 34.608 51.627 34.8128C52.1429 35.0479 52.5373 35.3134 52.3932 35.9507C52.2718 36.4892 51.627 36.8837 51.0733 36.7396C50.4664 36.5803 50.1857 36.201 50.3147 35.5334C50.3526 35.3286 50.2692 35.01 50.1251 34.8735C49.3816 34.1756 48.5927 33.5232 47.8266 32.8481C47.3714 32.446 46.9163 32.0364 46.2867 31.4751C45.657 32.9619 45.0047 34.3956 44.4433 35.8596C44.2157 36.4437 43.8668 37.0506 44.3826 37.7485C44.5116 37.923 44.2082 38.7119 43.973 38.7877C43.5634 38.9167 42.9641 38.8332 42.6076 38.5981C42.4028 38.4615 42.3193 37.6347 42.4938 37.4906C43.844 36.383 43.753 34.7824 44.0489 33.3108C44.1626 32.7343 44.2688 32.1578 44.3599 31.6723C42.7669 32.4157 41.1208 33.1667 39.4898 33.9632C39.2698 34.0694 39.065 34.3273 38.9892 34.5625C38.7843 35.1997 38.3899 35.5107 37.7299 35.4576C37.1838 35.4121 36.8045 35.1086 36.7817 34.5397C36.7665 33.9404 37.1307 33.5384 37.7148 33.5308C39.414 33.508 40.696 32.5977 41.9628 31.6419C42.8427 30.982 43.6696 30.2462 44.5571 29.5938C45.4522 28.9338 46.0439 28.1449 46.0667 26.9767C46.1046 25.2775 46.1425 23.5859 46.2715 21.8942C46.3929 20.3847 46.408 18.8296 47.6673 17.4111L47.6749 17.4035Z" fill="white"/>
<path id="Vector_18" d="M42.2346 12.8361C41.6353 12.874 41.0436 12.9044 40.4443 12.9423C40.4292 12.9878 40.4216 13.0257 40.4064 13.0713C40.816 13.2154 41.2181 13.4202 41.6429 13.4961C42.0298 13.5719 42.447 13.5112 43.0462 13.6705C43.2435 13.1623 43.4331 12.6616 43.6228 12.1761C44.6165 12.7375 44.7758 13.8829 43.6834 14.4519C42.2877 15.1801 40.8009 15.7945 39.2837 16.2042C36.4011 16.9855 33.473 17.6834 30.4387 17.3496C27.4575 17.0234 24.5294 16.4242 21.7303 15.3242C21.3586 15.1801 20.9945 14.9829 20.6455 14.778C19.227 13.9512 19.1359 13.3064 20.1524 12.1306C20.729 12.6085 21.2448 13.2381 21.9047 13.4885C22.3371 13.6554 22.9743 13.2685 23.5281 13.1319C23.5129 13.0561 23.5053 12.9802 23.4902 12.9044C22.9137 12.874 22.3371 12.8437 21.7606 12.8058C23.0199 12.7147 24.1198 12.3203 24.8328 11.2203C25.508 10.1811 25.7204 9.02805 25.4625 7.81432C25.0149 5.69031 23.2778 4.76485 20.8883 5.3793C22.2916 3.80905 24.8708 4.06696 26.3576 5.9103C26.6838 6.31235 27.0706 6.67646 27.4272 7.05575C27.4879 7.01023 27.5485 6.96472 27.6092 6.91921C27.321 6.45648 27.0403 5.99374 26.7141 5.47033C27.8596 5.06069 28.9595 4.90898 30.1277 4.96967C31.3794 5.03035 32.6462 4.94691 33.8978 4.98484C34.9902 5.01518 36.0749 5.12897 37.3569 5.22758C36.9018 5.9103 36.5832 6.3882 36.2646 6.85852C36.3177 6.91162 36.3708 6.95713 36.4239 7.01023C36.8942 6.53992 37.3721 6.07719 37.8273 5.5917C39.0258 4.30212 40.6947 4.02903 42.2346 4.88622C42.4242 4.99242 42.5987 5.14414 42.9249 5.3793C40.1561 4.89381 38.601 5.91789 38.2672 8.26188C37.9031 10.8259 39.3065 12.4265 42.2194 12.8513L42.2346 12.8361ZM43.7972 13.9967C35.9232 16.5986 28.0796 16.9324 20.2055 13.9588C23.9605 15.8249 28.0265 16.8186 32.0924 16.7276C36.0749 16.6366 40.0954 15.8021 43.7896 13.9967H43.7972Z" fill="white"/>
<path id="Vector_19" d="M47.0926 17.4023C47.0016 17.5312 45.9168 18.7829 40.9937 18.6463C40.1441 18.6236 39.3172 18.8663 38.6117 19.3442C37.4132 20.1483 35.1223 21.3013 31.8528 21.3013C28.5834 21.3013 26.3001 20.1483 25.0939 19.3442C24.3885 18.8739 23.5616 18.6236 22.712 18.6463C17.5537 18.7829 16.6131 17.4098 16.6055 17.3947C16.6206 17.4098 16.7951 17.5085 19.3212 17.6905C22.052 17.8877 21.5514 17.1368 21.0659 16.803C20.5804 16.4692 19.3363 15.5362 19.3212 15.21C19.306 14.8914 19.966 15.0355 20.588 15.3541C21.21 15.6803 23.8195 17.5464 24.1609 17.8346C24.4947 18.1153 25.9056 19.0787 25.1015 18.2215C24.2974 17.3567 22.5982 15.7713 24.3809 16.5527C25.7918 17.1747 29.6454 17.8574 31.1929 18.1153C31.6253 18.1912 32.0728 18.1912 32.5052 18.1153C34.0527 17.8574 37.9063 17.1747 39.3172 16.5527C41.1075 15.7713 39.4007 17.3567 38.5966 18.2215C37.8001 19.0787 39.2034 18.1153 39.5448 17.8346C39.8786 17.5464 42.4881 15.6727 43.1101 15.3541C43.7321 15.0355 44.3921 14.8914 44.3769 15.21C44.3617 15.5362 43.1101 16.4692 42.6322 16.803C42.1543 17.1368 41.6536 17.8877 44.3769 17.6905C46.7437 17.516 47.0471 17.4174 47.085 17.4023H47.0926Z" fill="#6D6D6D"/>
</g>
</g>
<g id="Group_5">
<path id="Vector_20" d="M97.6051 17.8087C97.6051 22.1326 95.5039 24.5525 91.6579 24.5525H80.0365V33.2382H76.0692V24.5525H76.0312V11.1484H91.6579C95.5039 11.1484 97.6051 13.5304 97.6051 17.8087ZM89.716 20.9872C92.2572 20.9872 93.6454 19.8796 93.6454 17.8542C93.6454 15.8288 92.2572 14.7213 89.716 14.7213H80.082V20.9872H89.716Z" fill="white"/>
<path id="Vector_21" d="M116.716 21.0625V24.6733H101.727V21.0625H116.716Z" fill="white"/>
<path id="Vector_22" d="M144.218 17.8085C144.218 20.3042 143.505 22.1324 142.193 23.2778C143.816 25.3032 144.613 28.6334 144.613 33.2683H140.646C140.646 26.8052 139.295 24.5826 135.131 24.5826H126.688V33.2683H122.645V11.1406H138.271C142.117 11.1406 144.218 13.5226 144.218 17.8009V17.8085ZM136.329 20.9869C138.87 20.9869 140.251 19.8794 140.251 17.854C140.251 15.8286 138.863 14.7211 136.329 14.7211H126.695V20.9869H136.329Z" fill="white"/>
<path id="Vector_23" d="M158.982 10.3984C166.712 10.3984 171.036 15.6326 171.036 22.0198C171.036 28.407 166.712 33.6412 158.982 33.6412C151.252 33.6412 146.891 28.407 146.891 22.0198C146.891 15.6326 151.215 10.3984 158.982 10.3984ZM167.069 22.0198C167.069 17.1422 164.573 13.9713 158.982 13.9713C153.392 13.9713 150.85 17.1422 150.85 22.0198C150.85 26.8975 153.346 30.0683 158.982 30.0683C164.619 30.0683 167.069 26.8975 167.069 22.0198Z" fill="white"/>
<path id="Vector_24" d="M197.577 21.5408V25.1516C196.386 31.2581 191.433 33.6401 185.402 33.6401C177.786 33.6401 173.508 28.5273 173.508 22.178C173.508 15.4798 177.794 10.3594 185.402 10.3594C191.987 10.3594 196.068 13.1737 197.024 18.3699H193.056C192.343 15.0398 189.885 13.9323 185.44 13.9323C179.774 13.9323 177.468 16.9059 177.468 22.178C177.468 27.0936 179.766 30.0672 185.44 30.0672C189.362 30.0672 192.654 29.2707 193.489 25.1516H185.797V21.5408H197.57H197.577Z" fill="white"/>
</g>
</g>
</g>
</svg>
