<svg width="143" height="129" viewBox="0 0 143 129" fill="none" xmlns="http://www.w3.org/2000/svg">
<path d="M39.4579 40.6343C39.3867 42.273 39.5529 43.9236 39.7667 45.5386C39.9092 46.7023 39.4936 47.296 38.413 47.5216C35.4799 48.1154 32.5706 48.7803 29.6139 49.3028C27.3458 49.7066 26.7521 49.1841 26.5265 46.8567C26.4315 45.8473 26.4077 44.8261 26.3483 43.8286C26.2533 36.8107 28.7351 30.8259 33.5325 25.7554C35.2662 23.9148 36.1212 23.7842 38.2824 25.0192C39.9211 25.9691 41.536 26.9666 43.1391 27.9641C44.3147 28.7122 44.3622 29.0209 43.5547 30.1846C41.3816 33.3314 39.6242 36.692 39.4461 40.6225L39.4579 40.6343Z" fill="white"/>
<path d="M94.3532 74.4451C89.4965 76.1432 84.616 77.7344 79.4624 78.2687C78.5718 78.3637 77.6931 78.3637 76.8262 78.435C75.1519 78.5537 73.4657 78.6606 71.8032 78.8506C70.497 78.9812 69.7964 78.5656 69.7608 77.2832C69.6896 74.4095 69.6539 71.5477 69.7608 68.6859C69.8321 67.0116 71.5183 65.5154 73.2045 65.3729C74.9263 65.2423 76.6362 65.1235 78.3581 64.9929C78.2987 65.1116 78.2393 65.2304 78.1799 65.3729C78.7618 66.0022 79.213 66.8453 79.9255 67.2253C80.923 67.7359 81.8255 67.2253 82.5973 66.3941C83.856 65.0285 85.4828 64.316 87.3472 64.4823C87.9409 64.5179 88.8671 64.9216 88.974 65.3373C89.1165 65.8597 88.6534 66.6078 88.3328 67.1897C87.9765 67.8309 87.3115 68.3297 87.0503 68.9946C86.5634 70.1702 86.9791 71.4408 87.9409 72.0346C88.6771 72.5095 89.924 72.5808 90.7671 72.3195C92.002 71.9396 92.1089 70.6215 92.1801 69.4578C92.192 69.0065 92.0614 68.5434 92.2514 67.9616C93.2489 69.4934 94.3176 70.9777 95.2201 72.557C95.695 73.3764 95.5525 74.0414 94.3888 74.4451H94.3532Z" fill="white"/>
<path d="M48.8394 66.5043C47.8181 67.8936 46.7375 69.2355 45.6926 70.6248C45.1345 71.3848 44.5882 72.1804 44.1964 72.7623C43.3651 72.0735 42.522 71.266 41.5602 70.6011C36.2285 66.9437 31.4074 62.7875 28.7237 56.6721C28.5218 56.2209 28.32 55.734 28.2131 55.2471C27.6906 52.9435 28.1775 52.0647 30.4099 51.376C33.0223 50.5567 35.6347 49.7611 38.2709 49.0011C40.064 48.4786 40.6933 48.6923 41.7146 50.1767C42.7714 51.6966 43.8283 53.2047 44.7901 54.8078C45.087 55.2946 45.182 56.0309 45.0632 56.5771C44.5645 58.8214 43.8283 60.9945 42.0114 62.5501C41.3821 63.0844 40.5983 63.4407 39.9096 63.8681C38.7578 64.5687 38.1878 65.875 38.5678 66.9912C38.9122 68.0361 40.2065 68.8674 41.3702 68.7724C42.5339 68.6774 43.2464 67.9886 43.6976 66.9318C44.3507 65.3762 46.4526 64.2956 48.0675 64.6162C49.3262 64.8537 49.6231 65.4831 48.8631 66.5162L48.8394 66.5043Z" fill="white"/>
<path d="M116.642 44.2971C116.535 45.5558 116.499 46.8264 116.286 48.0614C116.036 49.5101 115.241 50.0682 113.851 49.712C110.467 48.8451 107.118 47.8714 103.746 46.9452C102.998 46.7433 102.76 46.2802 102.903 45.5202C103.615 41.8628 103.081 38.3123 101.893 34.833C101.323 33.1706 101.502 32.8143 103.152 32.1731C105.301 31.33 107.463 30.4869 109.648 29.7032C111.405 29.0738 112.153 29.3944 113.091 31.0213C115.454 35.1299 116.666 39.5473 116.654 44.2971H116.642Z" fill="white"/>
<path d="M46.0469 74.3426C46.3081 71.5876 48.4337 69.6758 49.9061 67.3959C50.0605 67.384 50.2268 67.3721 50.3811 67.3603C50.6186 68.0609 50.868 68.7496 51.1055 69.4502C51.1292 69.5215 51.0936 69.6165 51.1055 69.6996C51.1292 71.0533 52.0673 72.3951 53.2192 72.7039C54.2048 72.9651 55.2735 72.3951 55.9266 71.2789C56.6034 70.1152 56.4372 68.7734 55.4991 67.7878C55.416 67.6928 55.2854 67.6334 55.226 67.5265C54.846 66.9209 54.466 66.3153 54.086 65.7097C54.8341 65.4603 55.6535 64.8785 56.3303 65.0091C57.6959 65.2703 59.1684 65.6622 60.2727 66.4578C62.6239 68.144 63.9301 67.859 64.7969 65.0922C67.5875 64.9022 68.6918 65.9947 68.5493 68.7377C68.4543 70.6733 68.5731 72.6326 68.3475 74.5563C68.2287 75.625 67.7419 76.7175 67.1481 77.62C66.8513 78.0831 65.9607 78.4274 65.3551 78.4156C59.7027 78.2375 54.2166 77.2162 48.9443 75.1144C48.0418 74.7582 47.0681 74.6038 46.0587 74.3544L46.0469 74.3426Z" fill="white"/>
<path d="M104.794 66.7048C104.782 64.6742 103.713 63.9736 102.288 63.4392C100.65 62.8336 98.2867 58.8794 98.3817 57.0982C98.4054 56.7063 98.6904 56.3263 98.7973 55.9226C99.0348 54.9726 99.0467 53.9158 99.486 53.0727C100.317 51.5052 101.327 50.0209 102.407 48.6197C102.621 48.3465 103.559 48.4772 104.082 48.6434C107.026 49.629 109.971 50.6621 112.892 51.7308C114.222 52.2177 114.448 52.8114 113.973 54.2126C112.916 57.3832 111.004 60.0549 108.843 62.5486C107.668 63.9142 106.326 65.1373 104.794 66.6929V66.7048Z" fill="white"/>
<path d="M61.9519 16.9766C58.2351 15.3854 55.409 15.7416 53.3428 18.0453C52.0484 19.4821 51.2528 21.1683 51.0866 23.1514C51.051 23.6383 50.671 24.2439 50.2672 24.517C49.0323 25.3838 47.6904 26.0963 46.408 26.9275C45.6599 27.4144 44.9949 27.3194 44.3062 26.8325C42.525 25.562 40.7081 24.327 38.9388 23.0445C37.8345 22.2489 37.7395 21.8096 38.7963 20.9902C40.9575 19.3278 43.1425 17.6534 45.5055 16.2997C49.3173 14.1029 53.4734 12.7017 57.7601 11.728C59.197 11.4074 60.2894 11.9536 60.7763 13.3073C61.18 14.4354 61.5007 15.611 61.9281 16.9766H61.9519Z" fill="white"/>
<path d="M97.5014 17.1787C98.3208 17.4518 99.1995 17.6181 99.9476 18.0337C103.367 19.9336 106.336 22.3917 108.806 25.4435C109.067 25.7641 109.305 26.1203 109.519 26.4884C109.97 27.2365 109.863 27.8778 109.02 28.234C106.431 29.3502 103.842 30.4783 101.23 31.5114C100.862 31.6539 100.185 31.4283 99.8526 31.1433C97.5608 29.1127 95.3521 26.9872 93.0603 24.9447C91.9797 23.971 91.6828 21.9523 92.5734 20.7767C93.0365 20.1711 93.5353 19.6011 93.9746 18.9837C94.8415 17.8081 95.9221 17.1312 97.5014 17.1906V17.1787Z" fill="white"/>
<path d="M82.3935 10.9668C81.681 13.0805 81.0873 14.7904 80.5411 16.5122C80.3511 17.106 80.1136 17.3435 79.4605 17.1772C77.0499 16.5716 74.6156 16.631 72.1813 17.0229C71.9319 17.0585 71.6707 17.0585 71.4213 17.0229C68.7614 16.5716 66.1371 16.5716 63.4178 17.5453C63.1091 16.4054 62.7766 15.4198 62.5985 14.4104C62.551 14.1017 62.8716 13.6267 63.1566 13.3892C65.6859 11.2043 68.4289 9.66057 71.9676 10.0643C75.3875 10.4443 78.8192 10.6699 82.3935 10.9787V10.9668Z" fill="white"/>
<path d="M81.3184 16.9268C81.8527 15.3593 82.3158 13.97 82.8146 12.5807C83.0877 11.8207 83.6102 11.3932 84.477 11.6663C87.3151 12.5569 90.1768 13.4 93.003 14.3737C94.4042 14.8606 94.5111 15.4424 93.6799 16.6537C92.9199 17.7461 92.1362 18.8267 91.3524 19.9311C88.0157 15.8343 86.2582 15.3 81.3302 16.9268H81.3184Z" fill="white"/>
<path d="M102.077 69.0839C100.973 69.7726 99.8803 70.4613 98.776 71.1263C97.9329 71.6251 97.1254 71.4944 96.4842 70.8057C95.5461 69.7964 94.6317 68.7395 93.7886 67.6471C92.8387 66.4002 93.4205 64.9515 94.9642 64.5003C96.3892 64.0847 98.7166 64.9753 99.3103 66.3408C99.8685 67.6233 100.533 68.6445 102.125 68.7514C102.113 68.8583 102.089 68.977 102.077 69.0839Z" fill="white"/>
<path d="M88.4322 19.3963C87.5772 19.5269 86.8647 19.6337 86.0453 19.7644C87.5416 20.4768 89.7027 19.3606 90.4627 21.7118C90.2727 21.6762 90.1421 21.6762 90.0234 21.6287C87.8859 20.7856 86.3897 21.1062 84.7866 22.8043C84.6085 22.9824 84.5135 23.2911 84.3116 23.3743C83.8485 23.5761 83.3498 23.6949 82.8629 23.8374C82.8154 23.3624 82.6729 22.8755 82.7442 22.4243C83.2311 19.4794 86.3303 18.185 88.0284 19.0044C88.1353 19.0519 88.2065 19.1588 88.444 19.3844L88.4322 19.3963Z" fill="white"/>
<path d="M59.8673 21.2938C59.7129 22.1131 59.5467 22.9325 59.4279 23.5737C58.5492 22.9681 57.528 22.125 56.3643 21.5432C55.0937 20.9019 53.7756 20.9019 52.7188 22.1488C53.3006 20.6288 54.0368 19.2514 55.8299 18.9307C57.5517 18.6101 59.1667 19.5007 60.1879 21.2344C60.081 21.2582 59.9742 21.2819 59.8673 21.3057V21.2938Z" fill="white"/>
<path d="M52.9629 25.2075C54.6847 27.0956 56.4897 26.6681 58.4727 25.92C56.4659 27.9149 53.9129 27.6418 52.9629 25.2075Z" fill="white"/>
<path d="M84.4844 25.7393C86.2181 26.7367 87.9874 27.0811 90.0536 25.8343C88.5693 27.8529 86.2062 27.7342 84.4844 25.7393Z" fill="white"/>
<path d="M52.1292 59.6227C52.3548 61.0951 52.533 62.7576 52.8654 64.3963C53.1504 65.845 53.3286 67.3531 54.8366 68.2793C55.4897 68.683 55.6679 69.5736 55.0504 70.2861C54.3854 71.058 53.5067 71.1886 52.6398 70.7136C51.8917 70.3099 51.8917 69.633 52.1055 68.8374C52.2717 68.2081 52.3786 67.4243 52.1648 66.8425C51.2386 64.2894 50.1818 61.772 49.1487 59.1833C47.0944 60.9645 45.2538 62.5201 43.4489 64.1232C43.0095 64.515 42.6176 64.9069 42.8551 65.7263C43.0926 66.5575 42.4514 67.1631 41.5845 67.27C40.6702 67.3887 39.8627 67.1393 39.5896 66.1419C39.3521 65.2632 39.7915 64.5863 40.6108 64.3607C43.0451 63.7076 44.197 61.7364 45.2657 59.7771C45.8832 58.649 46.2156 57.3428 46.5363 56.084C46.6669 55.5616 46.5719 54.9085 46.3819 54.386C44.5413 49.3986 43.6507 44.3163 44.5413 38.9964C44.6244 38.5214 44.5057 37.999 44.4226 37.5121C44.2207 36.3365 44.5413 35.2203 45.6219 34.8522C47.5219 34.1991 49.5168 33.831 51.4761 33.4035C51.7967 33.3322 52.1886 33.5578 52.3311 33.5935C52.3311 33.9497 52.2361 34.2347 52.343 34.3653C53.0673 35.2322 53.8273 36.0753 54.7654 37.144C52.2123 37.9871 49.8612 38.3314 47.2844 37.239C49.6355 41.5614 49.0774 46.1806 49.3624 50.6573C49.5287 53.3529 50.4549 55.3359 52.6873 56.939C55.3116 58.8152 57.5084 61.3089 60.7265 62.2945C61.1065 62.4132 61.5339 62.5201 61.9139 62.4845C62.9589 62.3776 63.7901 62.7813 63.8376 63.7907C63.8614 64.3251 63.3033 65.1563 62.7927 65.3938C61.8664 65.8213 60.8808 65.2513 60.6908 64.3488C60.489 63.4226 59.9309 63.2682 59.3015 62.9832C56.8791 61.8551 54.4566 60.7152 52.1292 59.6227Z" fill="white"/>
<path d="M96.2812 37.2313C93.3838 38.1694 90.9139 38.015 88.1946 37.0888C89.5008 35.9013 90.6051 34.9039 92.137 33.5145C93.6807 33.467 95.7944 34.0251 97.7893 34.9276C98.8343 35.4026 99.1905 36.4119 98.9649 37.6113C98.8462 38.2169 98.8343 38.87 98.9174 39.4875C99.5824 44.5817 98.9411 49.4859 96.9937 54.2358C96.7443 54.8533 96.59 55.6489 96.7443 56.2782C97.3856 58.9263 98.3237 61.4556 100.497 63.2843C101.079 63.7711 101.779 64.163 102.468 64.4836C103.275 64.8517 103.893 65.2673 103.667 66.2648C103.477 67.1079 102.468 67.7254 101.601 67.4998C100.651 67.2504 100.212 66.6567 100.414 65.6117C100.473 65.2911 100.342 64.7924 100.117 64.5786C98.953 63.4861 97.7181 62.4649 96.5187 61.4081C95.8062 60.7787 95.0938 60.1375 94.1082 59.2588C93.1226 61.5862 92.1013 63.8305 91.2226 66.1223C90.8664 67.0367 90.3202 67.9866 91.1276 69.0791C91.3295 69.3522 90.8545 70.5872 90.4864 70.7059C89.8452 70.9078 88.9071 70.7772 88.349 70.4091C88.0283 70.1953 87.8977 68.901 88.1708 68.6754C90.2845 66.9417 90.142 64.4361 90.6051 62.1324C90.7833 61.23 90.9495 60.3275 91.092 59.5675C88.5983 60.7312 86.0215 61.9068 83.4685 63.1536C83.1241 63.3199 82.8035 63.7236 82.6848 64.0917C82.3641 65.0892 81.7467 65.5761 80.7136 65.493C79.8586 65.4217 79.2649 64.9467 79.2292 64.0561C79.2055 63.118 79.7755 62.4887 80.6898 62.4768C83.3497 62.4412 85.3566 61.0162 87.3396 59.52C88.7171 58.4869 90.0114 57.3351 91.4007 56.3139C92.802 55.2808 93.7282 54.0458 93.7638 52.2171C93.8232 49.5572 93.8825 46.9091 94.0844 44.2611C94.2744 41.898 94.2982 39.4637 96.2693 37.2432L96.2812 37.2313Z" fill="white"/>
<path d="M87.766 30.0816C86.8279 30.141 85.9017 30.1885 84.9636 30.2479C84.9398 30.3191 84.9279 30.3785 84.9042 30.4498C85.5454 30.6754 86.1748 30.996 86.8398 31.1147C87.4454 31.2335 88.0985 31.1385 89.0366 31.3879C89.3453 30.5923 89.6422 29.8085 89.939 29.0485C91.4946 29.9273 91.744 31.7203 90.034 32.6109C87.8491 33.7509 85.5217 34.7128 83.1467 35.354C78.6344 36.5771 74.0508 37.6695 69.3009 37.1471C64.6342 36.6364 60.0506 35.6984 55.6688 33.9765C55.087 33.7509 54.517 33.4422 53.9707 33.1216C51.7502 31.8272 51.6077 30.8179 53.1989 28.9773C54.1014 29.7254 54.9088 30.711 55.9419 31.1029C56.6188 31.3641 57.6163 30.7585 58.4831 30.5448C58.4594 30.426 58.4475 30.3073 58.4237 30.1885C57.5213 30.141 56.6188 30.0935 55.7163 30.0341C57.6875 29.8917 59.4093 29.2742 60.5255 27.5523C61.5824 25.9255 61.9149 24.1206 61.5111 22.2206C60.8105 18.8957 58.0912 17.447 54.3507 18.4089C56.5475 15.9508 60.5849 16.3546 62.9123 19.2401C63.423 19.8694 64.0286 20.4394 64.5867 21.0332C64.6817 20.9619 64.7767 20.8907 64.8717 20.8194C64.4204 20.0951 63.9811 19.3707 63.4705 18.5514C65.2635 17.9101 66.9854 17.6726 68.814 17.7676C70.7734 17.8626 72.7564 17.732 74.7157 17.7914C76.4257 17.8389 78.1238 18.017 80.1306 18.1714C79.4181 19.2401 78.9194 19.9882 78.4206 20.7244C78.5038 20.8075 78.5869 20.8788 78.67 20.9619C79.4062 20.2257 80.1543 19.5013 80.8668 18.7414C82.743 16.7227 85.3554 16.2952 87.766 17.637C88.0629 17.8033 88.336 18.0407 88.8466 18.4089C84.5123 17.6489 82.078 19.252 81.5555 22.9212C80.9856 26.9349 83.1824 29.4404 87.7422 30.1054L87.766 30.0816ZM90.2122 31.8985C77.8863 35.9715 65.6079 36.494 53.282 31.8391C59.16 34.7603 65.5248 36.3158 71.8896 36.1733C78.1238 36.0308 84.4173 34.7246 90.2003 31.8985H90.2122Z" fill="white"/>
<path d="M95.3707 37.2296C95.2282 37.4315 93.5301 39.3908 85.8235 39.1771C84.4935 39.1414 83.1992 39.5214 82.0948 40.2695C80.2186 41.5282 76.6325 43.3332 71.5145 43.3332C66.3966 43.3332 62.8223 41.5282 60.9342 40.2695C59.8299 39.5333 58.5355 39.1414 57.2056 39.1771C49.1308 39.3908 47.6584 37.2415 47.6465 37.2177C47.6702 37.2415 47.9433 37.3959 51.8976 37.6808C56.1725 37.9896 55.3888 36.814 54.6288 36.2915C53.8688 35.769 51.9214 34.3084 51.8976 33.7978C51.8739 33.2991 52.907 33.5247 53.8807 34.0235C54.8544 34.5341 58.9393 37.4552 59.4736 37.9065C59.9961 38.3458 62.2048 39.8539 60.9461 38.5121C59.6874 37.1584 57.0275 34.6766 59.818 35.8997C62.0267 36.8734 68.059 37.9421 70.4814 38.3458C71.1583 38.4646 71.8589 38.4646 72.5357 38.3458C74.9582 37.9421 80.9905 36.8734 83.1992 35.8997C86.0016 34.6766 83.3298 37.1584 82.0711 38.5121C80.8242 39.8539 83.0211 38.3458 83.5554 37.9065C84.0779 37.4552 88.1628 34.5222 89.1365 34.0235C90.1102 33.5247 91.1433 33.2991 91.1196 33.7978C91.0958 34.3084 89.1365 35.769 88.3884 36.2915C87.6403 36.814 86.8566 37.9896 91.1196 37.6808C94.8245 37.4077 95.2994 37.2534 95.3588 37.2296H95.3707Z" fill="#6D6D6D"/>
<path d="M32.3005 102.323C32.3005 106.647 30.1992 109.067 26.3532 109.067H14.7318V117.752H10.7645V109.067H10.7266V95.6626H26.3532C30.1992 95.6626 32.3005 98.0445 32.3005 102.323ZM24.4113 105.501C26.9525 105.501 28.3407 104.394 28.3407 102.368C28.3407 100.343 26.9525 99.2355 24.4113 99.2355H14.7774V105.501H24.4113Z" fill="white"/>
<path d="M51.4113 105.577V109.187H36.4219V105.577H51.4113Z" fill="white"/>
<path d="M78.9137 102.323C78.9137 104.818 78.2007 106.647 76.8883 107.792C78.5117 109.817 79.3082 113.148 79.3082 117.782H75.3408C75.3408 111.319 73.9906 109.097 69.826 109.097H61.3831V117.782H57.3398V95.6548H72.9665C76.8125 95.6548 78.9137 98.0367 78.9137 102.315V102.323ZM71.0245 105.501C73.5658 105.501 74.9464 104.394 74.9464 102.368C74.9464 100.343 73.5582 99.2353 71.0245 99.2353H61.3906V105.501H71.0245Z" fill="white"/>
<path d="M93.6776 94.9126C101.408 94.9126 105.731 100.147 105.731 106.534C105.731 112.921 101.408 118.155 93.6776 118.155C85.9477 118.155 81.5859 112.921 81.5859 106.534C81.5859 100.147 85.9098 94.9126 93.6776 94.9126ZM101.764 106.534C101.764 101.656 99.2683 98.4855 93.6776 98.4855C88.0869 98.4855 85.5457 101.656 85.5457 106.534C85.5457 111.412 88.0414 114.582 93.6776 114.582C99.3139 114.582 101.764 111.412 101.764 106.534Z" fill="white"/>
<path d="M132.273 106.055V109.666C131.082 115.772 126.128 118.154 120.098 118.154C112.481 118.154 108.203 113.041 108.203 106.692C108.203 99.9939 112.489 94.8735 120.098 94.8735C126.682 94.8735 130.763 97.6879 131.719 102.884H127.752C127.039 99.5539 124.581 98.4464 120.136 98.4464C114.469 98.4464 112.163 101.42 112.163 106.692C112.163 111.608 114.461 114.581 120.136 114.581C124.057 114.581 127.35 113.785 128.184 109.666H120.492V106.055H132.265H132.273Z" fill="white"/>
</svg>
