<svg width="367" height="36" viewBox="0 0 367 36" fill="none" xmlns="http://www.w3.org/2000/svg">
<path d="M16.1875 3.36719V6.92188H4.42969V23.3672C9.9375 23.3281 13.8242 23.0938 18.2188 22.2734L18.6875 25.7891C13.7266 26.7656 9.46875 26.9609 2.86719 26.9609H0.0546875V3.36719H16.1875ZM27.9844 0.164062V35.5156H23.6484V16.1406H14.3125V12.5859H23.6484V0.164062H27.9844ZM46.7266 1.80469V13.875C51.4531 13.8555 56.0234 13.5039 60.9062 12.5469L61.4922 16.1016C55.7891 17.2344 50.7109 17.4688 45.2422 17.4688H42.4297V1.80469H46.7266ZM69.9688 0.164062V18.7969H65.6328V8.99219H56.4141V5.47656H65.6328V0.164062H69.9688ZM62.1172 20.0078V24.0703H66.0625V20.0078H69.9688V35.0859H58.1719V20.0078H62.1172ZM62.1172 31.6875H66.0625V27.3516H62.1172V31.6875ZM56.3359 20.3984V29.0312H48.875V31.7656C52.1953 31.7461 54.3047 31.668 56.9219 31.2188L57.2734 34.4609C54.1094 35.0078 51.5312 35.0859 46.6484 35.0859H44.6172V25.9844H52.1562V23.6016H44.5781V20.3984H56.3359ZM106.156 18.4062V21.8828H73.9688V18.4062H106.156ZM102.523 31.2578V34.7734H77.9531V24.5H82.2891V31.2578H102.523ZM90.0234 1.29688C97.7188 1.29688 102.719 3.99219 102.758 8.44531C102.719 12.9375 97.7188 15.6719 90.0234 15.6719C82.3281 15.6719 77.2891 12.9375 77.2891 8.44531C77.2891 3.99219 82.3281 1.29688 90.0234 1.29688ZM90.0234 4.77344C84.9062 4.77344 81.7812 6.10156 81.8203 8.44531C81.7812 10.8281 84.9062 12.1562 90.0234 12.1172C95.1797 12.1562 98.2656 10.8281 98.2656 8.44531C98.2656 6.10156 95.1797 4.77344 90.0234 4.77344ZM148.258 20.0469V23.6406H134.195V35.4766H129.898V23.6406H115.992V20.0469H148.258ZM132.047 1.41406C139.547 1.45312 144.781 4.5 144.781 9.34375C144.781 14.1484 139.547 17.1562 132.047 17.1562C124.508 17.1562 119.352 14.1484 119.391 9.34375C119.352 4.5 124.508 1.45312 132.047 1.41406ZM132.047 4.92969C127.047 4.92969 123.805 6.57031 123.844 9.34375C123.805 12.0781 127.047 13.7188 132.047 13.7188C137.047 13.7188 140.289 12.0781 140.289 9.34375C140.289 6.57031 137.047 4.92969 132.047 4.92969ZM181.789 14.5V17.9375H167.805V20.5938H177.766V29.2656H157.688V31.8438H178.742V35.1641H153.43V26.1406H173.508V23.875H153.391V20.5938H163.469V17.9375H149.602V14.5H181.789ZM177.648 1.25781V12.2734H153.664V1.25781H177.648ZM157.922 4.65625V8.875H173.312V4.65625H157.922ZM219.516 0.164062V8.5625H224.438V12.1953H219.516V20.7891H215.18V0.164062H219.516ZM197.172 2.3125V7.11719H205.414V2.3125H209.711V18.9141H192.875V2.3125H197.172ZM197.172 15.5156H205.414V10.4766H197.172V15.5156ZM206.703 22.3906V35.4375H202.406V25.9062H195.141V22.3906H206.703ZM219.516 22.3906V35.4375H215.219V25.9062H208.305V22.3906H219.516ZM244.742 9.42188C244.742 15.125 246.734 21.0625 251.5 24.0703L249.117 27.3906C245.934 25.4766 243.863 22.1758 242.711 18.2891C241.422 22.5664 239.156 26.1797 235.836 28.2109L233.141 24.9688C238.258 21.8438 240.562 15.6328 240.562 9.61719V3.28906H244.742V9.42188ZM264.195 0.164062V35.4766H260.016V0.164062H264.195ZM256.852 0.789062V33.7578H252.75V15.9062H247.711V12.3125H252.75V0.789062H256.852ZM279.797 5.78906C279.797 10.2422 282.688 14.4219 288.117 16.1406L285.773 19.5391C281.965 18.25 279.23 15.6719 277.727 12.3906C276.164 16.1406 273.312 19.0898 269.25 20.5156L266.906 17.1172C272.609 15.125 275.422 10.4375 275.461 5.39844V2.03906H279.797V5.78906ZM295.148 0.164062V8.75781H300.07V12.3516H295.148V21.2969H290.812V0.164062H295.148ZM283.664 22.0781C290.969 22.0391 295.461 24.5391 295.5 28.7188C295.461 32.9766 290.969 35.4375 283.664 35.4375C276.281 35.4375 271.711 32.9766 271.711 28.7188C271.711 24.5391 276.281 22.0391 283.664 22.0781ZM283.664 25.4766C278.82 25.4766 276.047 26.6484 276.047 28.7188C276.047 30.9062 278.82 32 283.664 32C288.508 32 291.203 30.9062 291.203 28.7188C291.203 26.6484 288.508 25.4766 283.664 25.4766ZM316.922 2.15625C324.383 2.15625 330.086 6.10156 330.086 12.1172C330.086 18.2109 324.383 22.1562 316.922 22.1562C309.5 22.1562 303.797 18.2109 303.836 12.1172C303.797 6.10156 309.5 2.15625 316.922 2.15625ZM316.922 5.67188C311.805 5.63281 308.016 8.21094 308.016 12.1172C308.016 16.1016 311.805 18.6016 316.922 18.6016C322.078 18.6016 325.828 16.1016 325.828 12.1172C325.828 8.21094 322.078 5.63281 316.922 5.67188ZM333.133 27.4688V31.0234H300.867V27.4688H333.133ZM366.703 27.7812V31.375H334.438V27.7812H348.344V22.0391H338.266V10.4766H358.578V6.10156H338.188V2.58594H362.875V13.9141H342.602V18.4844H363.695V22.0391H352.641V27.7812H366.703Z" fill="url(#paint0_linear_495_22420)"/>
<defs>
<linearGradient id="paint0_linear_495_22420" x1="368.944" y1="-11.9245" x2="-38.8858" y2="-67.5669" gradientUnits="userSpaceOnUse">
<stop stop-color="white"/>
<stop offset="1" stop-color="#262626"/>
</linearGradient>
</defs>
</svg>
