<svg width="142" height="76" viewBox="0 0 142 76" fill="none" xmlns="http://www.w3.org/2000/svg">
<rect x="15.5" y="13.5" width="111" height="49" rx="3.5" stroke="white"/>
<path d="M15.5 17C15.5 15.067 17.067 13.5 19 13.5H123C124.933 13.5 126.5 15.067 126.5 17V20.5H15.5V17Z" stroke="white"/>
<rect x="53.5" y="29.5" width="35" height="23" rx="1.5" fill="white" fill-opacity="0.5" stroke="white"/>
<path d="M93.8084 30.3257C93.923 30.4065 94.0598 30.4498 94.2001 30.4495C94.3403 30.4491 94.4769 30.4052 94.591 30.3237C94.7067 30.2392 94.7945 30.1222 94.8426 29.987L95.1331 29.0946C95.2077 28.8709 95.3332 28.6676 95.4999 28.5007C95.6665 28.3339 95.8696 28.2081 96.0932 28.1332L96.9973 27.8407C97.131 27.7923 97.2461 27.7032 97.3265 27.5859C97.4068 27.4686 97.4483 27.3291 97.4452 27.187C97.442 27.0448 97.3944 26.9073 97.3089 26.7937C97.2234 26.6801 97.1044 26.5961 96.9687 26.5537L96.075 26.2625C95.8512 26.188 95.6478 26.0625 95.4808 25.8959C95.3138 25.7293 95.1879 25.5261 95.113 25.3025L94.8192 24.4003C94.7719 24.2674 94.6843 24.1525 94.5687 24.0717C94.4531 23.9908 94.3151 23.948 94.174 23.9492C94.033 23.9505 93.8958 23.9956 93.7815 24.0784C93.6673 24.1613 93.5818 24.2776 93.5367 24.4113L93.2397 25.3213C93.1651 25.539 93.0421 25.7369 92.88 25.9001C92.7179 26.0634 92.5208 26.1877 92.3037 26.2638L91.4002 26.5544C91.2673 26.6018 91.1525 26.6894 91.0717 26.805C90.9909 26.9206 90.9481 27.0586 90.9492 27.1996C90.9504 27.3407 90.9954 27.4779 91.0781 27.5922C91.1608 27.7065 91.277 27.7922 91.4106 27.8375L92.3037 28.1267C92.5286 28.2014 92.7329 28.3278 92.9001 28.4958C93.0673 28.6637 93.1928 28.8686 93.2663 29.0939L93.5601 29.9981C93.6069 30.1307 93.694 30.2451 93.8084 30.3257ZM93.8637 25.5059L94.2062 24.6109L94.4922 25.5059C94.5985 25.8264 94.7783 26.1176 95.0173 26.3562C95.2562 26.5948 95.5476 26.7742 95.8683 26.88L96.7822 27.2245L95.8839 27.5151C95.5635 27.6217 95.2724 27.8016 95.0338 28.0405C94.7951 28.2794 94.6155 28.5706 94.5091 28.8911L94.1692 29.7868L93.8773 28.8905C93.7725 28.5701 93.5944 28.2786 93.3573 28.039C93.1173 27.8 92.8255 27.6194 92.5045 27.5112L91.6088 27.1719L92.5097 26.8794C92.826 26.7698 93.1129 26.589 93.3482 26.3509C93.5817 26.1118 93.758 25.8229 93.8637 25.5059ZM97.7975 32.953C97.864 32.9997 97.9404 33.0303 98.0208 33.0424C98.1012 33.0545 98.1833 33.0478 98.2606 33.0227C98.3379 32.9976 98.4083 32.9549 98.4662 32.8979C98.5242 32.8409 98.568 32.7712 98.5944 32.6943L98.7556 32.199C98.7905 32.0963 98.8483 32.003 98.9246 31.926C99.0013 31.848 99.0949 31.7908 99.1976 31.757L99.6994 31.5932C99.8029 31.5574 99.8926 31.4899 99.9555 31.4002C100.018 31.3105 100.051 31.2033 100.05 31.0938C100.048 30.9842 100.012 30.878 99.9462 30.7903C99.8806 30.7025 99.789 30.6378 99.6844 30.6052L99.1878 30.4427C99.0852 30.4083 98.9918 30.3506 98.9152 30.2741C98.8385 30.1977 98.7805 30.1045 98.7458 30.002L98.582 29.4995C98.5469 29.3962 98.4801 29.3065 98.3911 29.2433C98.3021 29.18 98.1955 29.1464 98.0863 29.1471C97.9772 29.1478 97.871 29.1829 97.7829 29.2473C97.6948 29.3117 97.6291 29.4022 97.5953 29.506L97.4348 30.0013C97.4016 30.1032 97.3453 30.1961 97.2704 30.2726C97.1954 30.3492 97.1037 30.4074 97.0025 30.4427L96.5001 30.6065C96.3967 30.6415 96.307 30.7082 96.2436 30.7971C96.1802 30.886 96.1464 30.9925 96.147 31.1017C96.1476 31.2109 96.1825 31.3171 96.2468 31.4053C96.3111 31.4935 96.4015 31.5592 96.5053 31.5932L97.0012 31.7537C97.1052 31.7888 97.1988 31.8467 97.2755 31.9234C97.3529 32.0007 97.4101 32.0943 97.4432 32.1977L97.6077 32.7008C97.6433 32.8025 97.7096 32.8906 97.7975 32.953ZM97.204 31.1375L97.0877 31.0998L97.2073 31.0582C97.4039 30.9891 97.5822 30.8761 97.7286 30.7278C97.8751 30.5794 97.9857 30.3997 98.0523 30.2022L98.09 30.0865L98.129 30.2041C98.1954 30.4033 98.3072 30.5844 98.4557 30.7328C98.6042 30.8813 98.7852 30.9932 98.9844 31.0595L99.1111 31.1005L98.9941 31.1395C98.7945 31.206 98.6132 31.3182 98.4646 31.4672C98.316 31.6161 98.2042 31.7977 98.1381 31.9975L98.0997 32.1151L98.062 31.9981C97.996 31.7978 97.884 31.6157 97.7351 31.4664C97.5861 31.317 97.4042 31.2046 97.204 31.1382" fill="white"/>
<path d="M46.7859 55.8197C46.895 55.8967 47.0253 55.9378 47.1589 55.9375C47.2924 55.9372 47.4226 55.8953 47.5313 55.8178C47.6415 55.7374 47.7251 55.626 47.7709 55.4973L48.0476 54.6478C48.1187 54.4349 48.2382 54.2414 48.3969 54.0825C48.5556 53.9237 48.7491 53.804 48.9621 53.7327L49.8233 53.4543C49.9506 53.4082 50.0602 53.3234 50.1368 53.2117C50.2133 53.1001 50.2528 52.9673 50.2498 52.832C50.2468 52.6967 50.2014 52.5657 50.12 52.4576C50.0386 52.3494 49.9253 52.2696 49.796 52.2292L48.9447 51.952C48.7316 51.8811 48.5378 51.7616 48.3788 51.603C48.2198 51.4444 48.0998 51.251 48.0284 51.0381L47.7486 50.1794C47.7035 50.0528 47.6201 49.9435 47.51 49.8665C47.3999 49.7896 47.2685 49.7489 47.1341 49.75C46.9997 49.7512 46.869 49.7942 46.7603 49.873C46.6515 49.9518 46.57 50.0626 46.5271 50.1899L46.2441 51.0561C46.1731 51.2633 46.056 51.4517 45.9016 51.6071C45.7471 51.7625 45.5594 51.8808 45.3526 51.9532L44.492 52.2298C44.3655 52.2749 44.2561 52.3583 44.1792 52.4684C44.1022 52.5785 44.0614 52.7097 44.0625 52.844C44.0636 52.9783 44.1065 53.1089 44.1853 53.2177C44.264 53.3265 44.3747 53.4081 44.502 53.4512L45.3526 53.7265C45.5669 53.7976 45.7615 53.9179 45.9207 54.0778C46.08 54.2377 46.1994 54.4327 46.2695 54.6472L46.5494 55.5078C46.594 55.634 46.6769 55.7429 46.7859 55.8197ZM46.8385 51.2318L47.1648 50.3798L47.4372 51.2318C47.5384 51.5369 47.7097 51.8141 47.9373 52.0412C48.1649 52.2683 48.4424 52.4391 48.7479 52.5398L49.6183 52.8677L48.7627 53.1443C48.4576 53.2458 48.1803 53.4171 47.953 53.6445C47.7257 53.8718 47.5546 54.1491 47.4533 54.4541L47.1295 55.3067L46.8515 54.4535C46.7516 54.1486 46.582 53.8711 46.3562 53.643C46.1276 53.4155 45.8496 53.2436 45.5439 53.1406L44.6908 52.8176L45.5489 52.5392C45.8502 52.4349 46.1234 52.2628 46.3475 52.0361C46.5699 51.8086 46.7378 51.5336 46.8385 51.2318Z" fill="white"/>
</svg>
