<svg width="153" height="78" viewBox="0 0 153 78" fill="none" xmlns="http://www.w3.org/2000/svg">
<path d="M97.9232 13.1093C96.4782 11.9107 94.8376 11.1287 93.0185 10.7036C92.84 10.6611 92.6275 10.5166 92.551 10.3551C91.7009 8.72305 90.4429 7.32899 88.6238 7.05697C85.7421 6.62345 83.719 7.80501 82.546 10.2191C82.4865 10.3381 82.4015 10.4316 82.2825 10.4911C81.2539 11.0267 80.2509 11.6217 79.1798 12.0552C76.1792 13.2793 73 13.6193 69.8039 13.8743C64.0151 14.3333 57.4103 15.8209 54.7327 21.6437C53.9931 23.2588 53.4576 25.1798 53.3131 27.0924C53.1771 28.903 53.3811 30.7136 54.0781 32.2947C54.4776 33.1957 54.6817 33.9013 54.5117 34.8108C54.2821 36.0349 54.3076 37.2929 54.8432 38.449C55.6507 40.1916 57.0873 40.9226 58.9574 40.9226C64.2106 40.9226 69.4639 40.9226 74.7086 40.9226C74.8616 40.9226 75.0146 40.9226 75.1591 40.9056C76.1452 40.8036 76.8422 40.3021 77.2757 39.4095C77.3522 39.2565 77.5223 39.061 77.6668 38.9845C78.8568 38.347 80.0639 37.7264 81.2624 37.0974C81.3899 37.0294 81.5174 36.9614 81.6364 36.8934C82.0785 37.6584 82.495 38.398 82.92 39.1205C83.5745 40.2511 84.7901 40.9396 86.0907 40.9311C87.1617 40.9311 88.0458 40.4381 89.1168 40.4296C90.0519 40.4296 91.1824 40.9481 92.1175 40.8886C93.1885 40.8206 93.996 40.0301 94.1916 38.9505C94.3106 38.279 94.0725 37.5904 93.639 37.0634C92.619 35.8139 91.2334 35.1508 89.6863 34.7938C89.3973 34.7258 89.1678 34.5218 89.0743 34.2498C88.7003 33.1532 88.3263 32.0567 87.9608 30.9601C87.9183 30.8326 87.9183 30.6456 87.9948 30.5436C89.0403 29.0815 90.0349 27.5685 91.4544 26.4379C92.9845 25.2223 94.5741 24.0578 96.1466 22.9017C97.1072 22.1962 98.0337 21.4567 98.7393 20.4706C100.065 18.609 100.295 15.0984 97.9062 13.1093H97.9232ZM76.1282 38.8315C75.9157 39.35 75.5332 39.6135 74.9721 39.622C74.1986 39.622 73.4336 39.622 72.66 39.622C70.6794 39.622 68.7073 39.622 66.7267 39.622C64.1511 39.622 61.5755 39.622 58.9914 39.622C57.2998 39.622 55.8292 38.347 55.7102 36.6639C55.6082 35.2018 55.8292 33.8078 56.6198 32.5667C59.1614 28.614 62.638 25.8599 67.1773 24.5423C68.1888 24.2448 69.2259 24.1683 70.2629 24.4233C72.3455 24.9248 73.7056 27.1009 73.3316 29.3025C73.051 30.9601 72.15 32.3032 71.198 33.6377C70.3139 34.8873 69.1153 35.3888 67.6703 35.5248C66.2507 35.6523 64.8396 35.6778 63.4286 35.4568C63.0036 35.3888 62.6805 35.6183 62.621 35.9924C62.57 36.3409 62.7825 36.6554 63.2076 36.7149C65.7237 37.0464 68.2143 37.0974 70.6029 36.0264C70.6624 36.0009 70.7304 35.9839 70.7984 35.9839C72.2095 36.0179 73.6036 36.1624 74.8701 36.8509C75.1846 37.0209 75.4822 37.2419 75.7457 37.4799C76.1962 37.8794 76.3067 38.33 76.1027 38.823L76.1282 38.8315ZM77.4883 37.7349C76.3492 35.5928 74.3686 35.1423 72.439 34.7938L79.0778 31.0026L81.0754 35.7628L77.4883 37.7349ZM97.0477 20.4961C96.5377 20.9806 95.9681 21.4057 95.3986 21.8392C93.8855 22.9867 92.3385 24.0833 90.8424 25.2648C89.6863 26.1744 88.7343 27.2879 87.8843 28.4865C87.7907 28.614 87.6887 28.7415 87.4762 28.8605C87.3657 27.6365 87.3062 26.4124 87.1277 25.1968C86.9832 24.2193 87.3657 23.6073 88.0373 22.9442C90.8849 20.1646 94.2936 18.609 98.1782 17.9715C98.2292 17.963 98.2887 17.9715 98.3738 17.9715C98.2207 19 97.7532 19.8331 97.0477 20.5046V20.4961ZM95.8236 17.1725C92.16 18.0055 89.1678 19.9776 86.5497 22.6127C86.0057 23.1567 85.7591 23.6923 85.7931 24.4743C85.9547 27.7725 86.3967 31.0196 87.6207 34.1138C87.6547 34.1988 87.6887 34.2838 87.7227 34.3688C88.0543 35.3293 88.5558 35.9924 89.7118 36.1539C90.8679 36.3239 91.8879 36.9444 92.6615 37.8794C92.942 38.2195 93.061 38.585 92.8655 39.01C92.5425 39.69 91.8624 39.7835 90.8849 39.4265C89.6438 38.976 88.2923 39.061 87.0257 39.452C85.5721 39.9025 84.6456 39.469 84.0506 38.466C82.427 35.7713 81.1434 32.9152 80.1149 29.9486C79.8174 29.107 79.4858 29.0135 78.7548 29.4895C77.1652 30.5181 75.5417 31.5211 73.9351 32.5242C73.7991 32.6092 73.6461 32.6602 73.5441 32.7112C73.8671 31.8272 74.2836 30.9516 74.5216 30.0336C75.2696 27.0754 73.6546 24.0918 70.9089 23.2673C69.2514 22.7742 67.6023 22.9782 66.0212 23.5563C61.5925 25.1628 58.0733 27.9255 55.5402 31.9122C55.5062 31.9632 55.4722 32.0142 55.3702 32.1587C55.2257 31.6827 55.0642 31.2831 54.9877 30.8751C54.2566 26.8969 54.8092 23.1652 57.3508 19.9181C58.8894 17.9545 61.0655 16.9429 63.4031 16.2459C65.5877 15.5914 67.8318 15.3449 70.0844 15.1579C73.3486 14.8943 76.6127 14.5288 79.6729 13.2623C80.9054 12.7522 82.07 12.0637 83.2515 11.4347C83.4385 11.3327 83.5915 11.0947 83.685 10.8907C84.4246 9.14807 85.9377 8.17053 87.7737 8.26403C89.5078 8.34903 90.9444 9.50509 91.4884 11.2732C91.5989 11.6302 91.9219 11.8682 92.296 11.9277C94.2171 12.2337 95.9256 13.0158 97.3537 14.3588C97.9827 14.9539 98.3738 15.6849 98.3993 16.6114C97.5322 16.8069 96.6822 16.9939 95.8321 17.1895L95.8236 17.1725Z" fill="#999999"/>
<path d="M87.4989 9.87578C86.7508 9.88428 86.1557 10.4964 86.1642 11.2446C86.1727 11.9757 86.8188 12.5964 87.5414 12.5794C88.2726 12.5624 88.8932 11.9247 88.8762 11.1936C88.8592 10.4454 88.2471 9.85878 87.4989 9.86728V9.87578Z" fill="#999999"/>
<path d="M3.69609 64.2812C5.2664 64.2812 6.37968 65.7109 6.3914 67.9609C6.37968 70.2227 5.2664 71.6523 3.69609 71.6523C2.12578 71.6523 1.00078 70.2227 1.0125 67.9609C1.00078 65.7109 2.12578 64.2812 3.69609 64.2812ZM3.69609 65.2773C2.73515 65.2773 2.0789 66.3086 2.0789 67.9609C2.0789 69.625 2.73515 70.6562 3.69609 70.6562C4.66875 70.6562 5.325 69.625 5.325 67.9609C5.325 66.3086 4.66875 65.2773 3.69609 65.2773ZM9.06328 63.4961V67.6094H10.7508V68.5469H9.06328V73.9961H7.95V63.4961H9.06328ZM14.8453 65.3828C14.8453 66.7305 15.8531 68.0195 17.4703 68.5352L16.8961 69.4023C15.6891 69.0039 14.775 68.1719 14.3062 67.1172C13.8316 68.2598 12.9 69.1621 11.6461 69.6016L11.0719 68.7461C12.7008 68.1836 13.7086 66.8125 13.7203 65.3828V65.0898H11.3648V64.1875H17.1539V65.0898H14.8453V65.3828ZM19.6617 63.4961V69.8359H18.5484V63.4961H19.6617ZM19.6617 70.3633V73.9961H18.5484V71.2656H12.5484V70.3633H19.6617ZM26.8664 65.5117C26.8664 66.6602 27.6047 67.8203 28.9641 68.3359L28.3781 69.1914C27.3996 68.8164 26.7141 68.1016 26.3391 67.2344C25.9523 68.2129 25.2316 69.0625 24.218 69.4961L23.6086 68.6289C25.0266 68.0078 25.7883 66.6836 25.7883 65.5117V64.1523H26.8664V65.5117ZM32.6086 63.5078V69.9648H31.5539V67.1523H30.3234V69.6367H29.2922V63.6953H30.3234V66.2383H31.5539V63.5078H32.6086ZM29.093 70.1641C31.2844 70.1641 32.6555 70.8789 32.6672 72.0742C32.6555 73.2695 31.2844 73.9844 29.093 73.9727C26.9016 73.9844 25.5305 73.2695 25.5422 72.0742C25.5305 70.8789 26.9016 70.1641 29.093 70.1641ZM29.093 71.0195C27.5695 71.0195 26.632 71.4062 26.6437 72.0742C26.632 72.7422 27.5695 73.1289 29.093 73.1172C30.6164 73.1289 31.5422 72.7422 31.5539 72.0742C31.5422 71.4062 30.6164 71.0195 29.093 71.0195ZM37.4531 65.0664C37.4531 66.543 38.4023 67.8555 39.9961 68.3711L39.3867 69.2383C38.2324 68.8223 37.3828 68.0137 36.9258 66.9648C36.4687 68.166 35.5547 69.0977 34.2891 69.5547L33.6914 68.6641C35.3672 68.0898 36.3398 66.6953 36.3516 65.1133V64.082H37.4531V65.0664ZM42.4805 63.4961V69.6953H41.3672V66.543H39.1523V65.6289H41.3672V63.4961H42.4805ZM38.9648 69.9883C41.168 69.9883 42.5156 70.7148 42.5156 71.9922C42.5156 73.2578 41.168 73.9844 38.9648 73.9727C36.7617 73.9844 35.4023 73.2578 35.4141 71.9922C35.4023 70.7148 36.7617 69.9883 38.9648 69.9883ZM38.9648 70.8555C37.4297 70.8555 36.5156 71.2656 36.5156 71.9922C36.5156 72.6953 37.4297 73.0938 38.9648 73.0938C40.5 73.0938 41.4141 72.6953 41.4141 71.9922C41.4141 71.2656 40.5 70.8555 38.9648 70.8555ZM49.9148 66.8594V67.7617H47.8641V69.0859C48.7957 69.0449 49.7215 68.9805 50.5828 68.8867L50.6648 69.707C48.4266 70.0117 45.9656 70.0703 43.9969 70.0703L43.8445 69.1797C44.741 69.1738 45.743 69.1621 46.7625 69.1328V67.7617H44.782V64.1641H49.8211V65.0664H45.8953V66.8594H49.9148ZM52.5047 63.4961V71.3711H51.3914V63.4961H52.5047ZM52.8328 72.8711V73.7734H45.5789V70.8086H46.6922V72.8711H52.8328ZM57.7055 73H56.3344L59.3812 64.5156H60.8695L63.9281 73H62.557L61.7836 70.7617H58.4789L57.7055 73ZM58.8539 69.6836H61.4086L60.1547 66.0625H60.0961L58.8539 69.6836ZM64.6594 73V66.6367H65.9133V73H64.6594ZM65.2922 65.6523C64.8586 65.6523 64.4953 65.3242 64.4953 64.9141C64.4953 64.5039 64.8586 64.1758 65.2922 64.1758C65.7141 64.1758 66.0773 64.5039 66.0773 64.9141C66.0773 65.3242 65.7141 65.6523 65.2922 65.6523ZM79.0008 71.7695V72.6953H69.3914V71.7695H73.6219V69.6133H70.493V64.2109H71.6062V66.0156H76.7625V64.2109H77.8641V69.6133H74.7234V71.7695H79.0008ZM71.6062 68.7109H76.7625V66.918H71.6062V68.7109ZM87.9586 64.5039V65.5352C87.9586 66.8359 87.9586 68.2891 87.5602 70.4336L86.4352 70.3164C86.8453 68.2891 86.8453 66.8008 86.8453 65.5352V65.4062H80.4703V64.5039H87.9586ZM89.0367 71.6523V72.5781H79.4625V71.6523H83.107V67.9492H84.2086V71.6523H89.0367ZM93.3187 66.168C93.3187 68.0898 94.3969 70 96.0023 70.7266L95.3227 71.6172C94.1273 71.0195 93.2309 69.8301 92.768 68.3945C92.3051 69.9062 91.3852 71.1836 90.1781 71.8164L89.475 70.9141C91.1039 70.1406 92.1937 68.1133 92.1937 66.168V64.375H93.3187V66.168ZM98.2875 63.4961V74.0195H97.1859V67.8906H94.8422V66.9883H97.1859V63.4961H98.2875ZM107.784 63.4961V67.6797H109.413V68.6055H107.784V73.9844H106.671V63.4961H107.784ZM105.042 64.5977C105.03 67.6328 103.695 70.3398 100.237 72.0508L99.6164 71.1836C102.247 69.8711 103.677 67.9727 103.905 65.5234H100.144V64.5977H105.042ZM114.544 69.6484V70.8672H116.184V69.6484H117.216V73.8672H113.501V69.6484H114.544ZM114.544 73H116.184V71.7109H114.544V73ZM120.262 70.4336C120.262 71.5352 120.872 72.6484 122.173 73.1055L121.598 73.9492C120.649 73.5859 120.034 72.9004 119.712 72.0625C119.36 72.8828 118.739 73.5742 117.837 73.9492L117.274 73.1055C118.54 72.5898 119.161 71.4766 119.161 70.4336V69.5781H120.262V70.4336ZM115.212 63.9414C116.595 63.9414 117.661 64.7266 117.895 65.8984H119.946V63.4961H121.059V69.0625H119.946V66.8125H117.907C117.679 68.0195 116.606 68.8047 115.212 68.8047C113.606 68.8047 112.458 67.8203 112.458 66.3672C112.458 64.9375 113.606 63.9414 115.212 63.9414ZM115.212 64.8672C114.216 64.8672 113.524 65.4766 113.524 66.3672C113.524 67.2695 114.216 67.8906 115.212 67.9023C116.184 67.8906 116.876 67.2695 116.876 66.3672C116.876 65.4766 116.184 64.8672 115.212 64.8672ZM124.662 69.7891V70.9023H129.595V69.7891H130.709V73.8672H123.56V69.7891H124.662ZM124.662 72.9766H129.595V71.7695H124.662V72.9766ZM131.951 68.207V69.1328H122.377V68.207H131.951ZM127.732 64.0586C127.732 65.2656 129.408 66.4375 131.423 66.6836L131.025 67.5625C129.32 67.3223 127.837 66.5195 127.17 65.4062C126.484 66.5254 124.996 67.3223 123.314 67.5625L122.892 66.6836C124.931 66.4258 126.595 65.3008 126.595 64.0586V63.6133H127.732V64.0586ZM141.166 63.4961V73.9961H140.053V63.4961H141.166ZM134.194 64.5156V70.3633C135.723 70.3516 137.334 70.2285 139.022 69.8828L139.174 70.8203C137.311 71.1953 135.623 71.3242 133.971 71.3242H133.092V64.5156H134.194ZM150.698 63.4961V67.5625H152.386V68.4766H150.698V74.0195H149.585V63.4961H150.698ZM147.874 64.5039V65.4062H144.077V70.4805C145.841 70.4746 147.165 70.3984 148.659 70.1289L148.8 71.0664C147.159 71.3594 145.765 71.418 143.808 71.4062H142.964V64.5039H147.874Z" fill="#999999"/>
</svg>
