<svg width="49" height="48" viewBox="0 0 49 48" fill="none" xmlns="http://www.w3.org/2000/svg">
<path d="M45.9232 13.1093C44.4782 11.9107 42.8376 11.1287 41.0185 10.7036C40.84 10.6611 40.6275 10.5166 40.551 10.3551C39.7009 8.72305 38.4429 7.32899 36.6238 7.05697C33.7421 6.62345 31.719 7.80501 30.546 10.2191C30.4865 10.3381 30.4015 10.4316 30.2825 10.4911C29.2539 11.0267 28.2509 11.6217 27.1798 12.0552C24.1792 13.2793 21 13.6193 17.8039 13.8743C12.0151 14.3333 5.41029 15.8209 2.73266 21.6437C1.99312 23.2588 1.4576 25.1798 1.31309 27.0924C1.17708 28.903 1.3811 30.7136 2.07813 32.2947C2.47765 33.1957 2.68166 33.9013 2.51165 34.8108C2.28214 36.0349 2.30764 37.2929 2.84317 38.449C3.6507 40.1916 5.08727 40.9226 6.95736 40.9226C12.2106 40.9226 17.4639 40.9226 22.7086 40.9226C22.8616 40.9226 23.0146 40.9226 23.1591 40.9056C24.1452 40.8036 24.8422 40.3021 25.2757 39.4095C25.3522 39.2565 25.5223 39.061 25.6668 38.9845C26.8568 38.347 28.0639 37.7264 29.2624 37.0974C29.3899 37.0294 29.5174 36.9614 29.6364 36.8934C30.0785 37.6584 30.495 38.398 30.92 39.1205C31.5745 40.2511 32.7901 40.9396 34.0907 40.9311C35.1617 40.9311 36.0458 40.4381 37.1168 40.4296C38.0519 40.4296 39.1824 40.9481 40.1175 40.8886C41.1885 40.8206 41.996 40.0301 42.1916 38.9505C42.3106 38.279 42.0725 37.5904 41.639 37.0634C40.619 35.8139 39.2334 35.1508 37.6863 34.7938C37.3973 34.7258 37.1678 34.5218 37.0743 34.2498C36.7003 33.1532 36.3263 32.0567 35.9608 30.9601C35.9183 30.8326 35.9183 30.6456 35.9948 30.5436C37.0403 29.0815 38.0349 27.5685 39.4544 26.4379C40.9845 25.2223 42.5741 24.0578 44.1466 22.9017C45.1072 22.1962 46.0337 21.4567 46.7393 20.4706C48.0653 18.609 48.2948 15.0984 45.9062 13.1093H45.9232ZM24.1282 38.8315C23.9157 39.35 23.5332 39.6135 22.9721 39.622C22.1986 39.622 21.4336 39.622 20.66 39.622C18.6794 39.622 16.7073 39.622 14.7267 39.622C12.1511 39.622 9.57549 39.622 6.99136 39.622C5.29978 39.622 3.82921 38.347 3.71021 36.6639C3.6082 35.2018 3.82921 33.8078 4.61975 32.5667C7.16137 28.614 10.638 25.8599 15.1773 24.5423C16.1888 24.2448 17.2259 24.1683 18.2629 24.4233C20.3455 24.9248 21.7056 27.1009 21.3316 29.3025C21.051 30.9601 20.15 32.3032 19.198 33.6377C18.3139 34.8873 17.1153 35.3888 15.6703 35.5248C14.2507 35.6523 12.8396 35.6778 11.4286 35.4568C11.0036 35.3888 10.6805 35.6183 10.621 35.9924C10.57 36.3409 10.7825 36.6554 11.2076 36.7149C13.7237 37.0464 16.2143 37.0974 18.6029 36.0264C18.6624 36.0009 18.7304 35.9839 18.7984 35.9839C20.2095 36.0179 21.6036 36.1624 22.8701 36.8509C23.1846 37.0209 23.4822 37.2419 23.7457 37.4799C24.1962 37.8794 24.3067 38.33 24.1027 38.823L24.1282 38.8315ZM25.4883 37.7349C24.3492 35.5928 22.3686 35.1423 20.439 34.7938L27.0778 31.0026L29.0754 35.7628L25.4883 37.7349ZM45.0477 20.4961C44.5377 20.9806 43.9681 21.4057 43.3986 21.8392C41.8855 22.9867 40.3385 24.0833 38.8424 25.2648C37.6863 26.1744 36.7343 27.2879 35.8843 28.4865C35.7907 28.614 35.6887 28.7415 35.4762 28.8605C35.3657 27.6365 35.3062 26.4124 35.1277 25.1968C34.9832 24.2193 35.3657 23.6073 36.0373 22.9442C38.8849 20.1646 42.2936 18.609 46.1782 17.9715C46.2292 17.963 46.2887 17.9715 46.3738 17.9715C46.2207 19 45.7532 19.8331 45.0477 20.5046V20.4961ZM43.8236 17.1725C40.16 18.0055 37.1678 19.9776 34.5497 22.6127C34.0057 23.1567 33.7591 23.6923 33.7931 24.4743C33.9547 27.7725 34.3967 31.0196 35.6207 34.1138C35.6547 34.1988 35.6887 34.2838 35.7227 34.3688C36.0543 35.3293 36.5558 35.9924 37.7118 36.1539C38.8679 36.3239 39.8879 36.9444 40.6615 37.8794C40.942 38.2195 41.061 38.585 40.8655 39.01C40.5425 39.69 39.8624 39.7835 38.8849 39.4265C37.6438 38.976 36.2923 39.061 35.0257 39.452C33.5721 39.9025 32.6456 39.469 32.0506 38.466C30.427 35.7713 29.1434 32.9152 28.1149 29.9486C27.8174 29.107 27.4858 29.0135 26.7548 29.4895C25.1652 30.5181 23.5417 31.5211 21.9351 32.5242C21.7991 32.6092 21.6461 32.6602 21.5441 32.7112C21.8671 31.8272 22.2836 30.9516 22.5216 30.0336C23.2696 27.0754 21.6546 24.0918 18.9089 23.2673C17.2514 22.7742 15.6023 22.9782 14.0212 23.5563C9.59249 25.1628 6.07332 27.9255 3.5402 31.9122C3.5062 31.9632 3.47219 32.0142 3.37019 32.1587C3.22568 31.6827 3.06418 31.2831 2.98767 30.8751C2.25664 26.8969 2.80916 23.1652 5.35078 19.9181C6.88936 17.9545 9.06546 16.9429 11.4031 16.2459C13.5877 15.5914 15.8318 15.3449 18.0844 15.1579C21.3486 14.8943 24.6127 14.5288 27.6729 13.2623C28.9054 12.7522 30.07 12.0637 31.2515 11.4347C31.4385 11.3327 31.5915 11.0947 31.685 10.8907C32.4246 9.14807 33.9377 8.17053 35.7737 8.26403C37.5078 8.34903 38.9444 9.50509 39.4884 11.2732C39.5989 11.6302 39.9219 11.8682 40.296 11.9277C42.2171 12.2337 43.9256 13.0158 45.3537 14.3588C45.9827 14.9539 46.3738 15.6849 46.3993 16.6114C45.5322 16.8069 44.6822 16.9939 43.8321 17.1895L43.8236 17.1725Z" fill="#999999"/>
<path d="M35.4989 9.87578C34.7508 9.88428 34.1557 10.4964 34.1642 11.2446C34.1727 11.9757 34.8188 12.5964 35.5414 12.5794C36.2726 12.5624 36.8932 11.9247 36.8762 11.1936C36.8592 10.4454 36.2471 9.85878 35.4989 9.86728V9.87578Z" fill="#999999"/>
</svg>
