<svg width="38" height="32" viewBox="0 0 38 32" fill="none" xmlns="http://www.w3.org/2000/svg">
<path d="M14.557 8.79688H16.3348V10.5746H14.557V8.79688Z" fill="#323E4F"/>
<path d="M16.3348 8.79688H18.1121V10.5746H16.3348V8.79688Z" fill="#3CA370"/>
<path d="M18.1121 8.79688H19.8894V10.5746H18.1121V8.79688Z" fill="#3D6E70"/>
<path d="M19.8894 8.79688H21.6668V10.5746H19.8894V8.79688Z" fill="#323E4F"/>
<path d="M14.557 10.5746H16.3348V12.3519H14.557V10.5746Z" fill="#CFFF70"/>
<path d="M16.3348 10.5746H18.1121V12.3519H16.3348V10.5746Z" fill="#8FDE5D"/>
<path d="M18.1121 10.5746H19.8894V12.3519H18.1121V10.5746Z" fill="#3CA370"/>
<path d="M19.8894 10.5746H21.6668V12.3519H19.8894V10.5746Z" fill="#3CA370"/>
<path d="M14.557 12.3519H16.3348V14.1293H14.557V12.3519Z" fill="#CFFF70"/>
<path d="M16.3348 12.3519H18.1121V14.1293H16.3348V12.3519Z" fill="#585F54"/>
<path d="M18.1121 12.3519H19.8894V14.1293H18.1121V12.3519Z" fill="#40444A"/>
<path d="M19.8894 12.3519H21.6668V14.1293H19.8894V12.3519Z" fill="#3CA370"/>
<path d="M14.557 14.1328H16.3348V15.9105H14.557V14.1328Z" fill="#585F54"/>
<path d="M16.3348 14.1328H18.1121V15.9105H16.3348V14.1328Z" fill="#37423C"/>
<path d="M18.1121 14.1328H19.8894V15.9105H18.1121V14.1328Z" fill="#37423C"/>
<path d="M19.8894 14.1328H21.6668V15.9105H19.8894V14.1328Z" fill="#091811"/>
<path d="M14.557 15.9105H16.3348V17.6879H14.557V15.9105Z" fill="#4E5A51"/>
<path d="M16.3348 15.9105H18.1121V17.6879H16.3348V15.9105Z" fill="#2A3A3F"/>
<path d="M18.1121 15.9105H19.8894V17.6879H18.1121V15.9105Z" fill="#2A3A3F"/>
<path d="M19.8894 15.9105H21.6668V17.6879H19.8894V15.9105Z" fill="#091811"/>
<path d="M14.557 17.6836H16.3348V19.4613H14.557V17.6836Z" fill="#3CA370"/>
<path d="M16.3348 17.6836H18.1121V19.4613H16.3348V17.6836Z" fill="#343B4D"/>
<path d="M18.1121 17.6836H19.8894V19.4613H18.1121V17.6836Z" fill="#091811"/>
<path d="M19.8894 17.6836H21.6668V19.4613H19.8894V17.6836Z" fill="#3CA370"/>
<path d="M14.557 19.4613H16.3348V21.2387H14.557V19.4613Z" fill="#3CA370"/>
<path d="M16.3348 19.4613H18.1121V21.2387H16.3348V19.4613Z" fill="#3CA370"/>
<path d="M18.1121 19.4613H19.8894V21.2387H18.1121V19.4613Z" fill="#3CA370"/>
<path d="M19.8894 19.4613H21.6668V21.2387H19.8894V19.4613Z" fill="#3CA370"/>
<path d="M14.557 21.2422H16.3348V23.0199H14.557V21.2422Z" fill="#323E4F"/>
<path d="M16.3348 21.2422H18.1121V23.0199H16.3348V21.2422Z" fill="#3D6E70"/>
<path d="M18.1121 21.2422H19.8894V23.0199H18.1121V21.2422Z" fill="#3D6E70"/>
<path d="M19.8894 21.2422H21.6668V23.0199H19.8894V21.2422Z" fill="#3D6E70"/>
<path d="M23.4437 10.5742V12.3519H21.6668V10.5746L23.4437 10.5742Z" fill="#3D6E70"/>
<path d="M23.4437 12.3519V14.1293H21.6668V12.3519H23.4437Z" fill="#3D6E70"/>
<path d="M23.4437 14.1328V15.9105H21.6668V14.1328H23.4437Z" fill="#3CA370"/>
<path d="M23.4437 15.9105V17.6879H21.6668V15.9105H23.4437Z" fill="#3CA370"/>
<path d="M23.4437 17.6836V19.4613H21.6668V17.6836H23.4437Z" fill="#3CA370"/>
<path d="M23.4437 19.4613V21.2387H21.6668V19.4613H23.4437Z" fill="#3D6E70"/>
<path d="M23.4437 21.2422V23.0199H21.6668V21.2422H23.4437Z" fill="#272736"/>
<path d="M25.223 19.4609V21.2387H23.4453V19.4609H25.223Z" fill="#272736"/>
<path d="M25.223 12.3516V14.1293H23.4453V12.3516H25.223Z" fill="#3D6E70"/>
<path d="M25.223 10.5742V12.3516H23.4453V10.5742L25.223 10.5742Z" fill="#272736"/>
<path d="M25.223 14.1328V15.9105H23.4453V14.1328H25.223Z" fill="#3D6E70"/>
<path d="M27.0004 14.1328V15.9105H25.223V14.1328H27.0004Z" fill="#272736"/>
<path d="M25.223 15.9105V17.6879H23.4453V15.9105H25.223Z" fill="#3D6E70"/>
<path d="M27.0004 15.9105V17.6879H25.223V15.9105H27.0004Z" fill="#272736"/>
<path d="M25.223 17.6836V19.4609H23.4453V17.6836H25.223Z" fill="#3D6E70"/>
<path d="M12.7777 12.3516L12.7777 14.1293H11L11 12.3516H12.7777Z" fill="#8FDE5D"/>
<path d="M12.7777 14.1328L12.7777 15.9105H11L11 14.1328H12.7777Z" fill="#8FDE5D"/>
<path d="M12.7777 15.9105V17.6879H11V15.9105H12.7777Z" fill="#3CA370"/>
<path d="M12.7777 17.6836L12.7777 19.4613H11L11 17.6836H12.7777Z" fill="#3D6E70"/>
<path d="M14.557 10.5746V12.3519H12.7793L12.7793 10.5742L14.557 10.5746Z" fill="#8FDE5D"/>
<path d="M14.557 12.3519V14.1293H12.7793V12.3519H14.557Z" fill="white"/>
<path d="M14.557 14.1328V15.9105H12.7793L12.7793 14.1328H14.557Z" fill="#CFFF70"/>
<path d="M14.557 15.9105V17.6879H12.7793V15.9105H14.557Z" fill="#3CA370"/>
<path d="M14.557 17.6836V19.4613H12.7793L12.7793 17.6836H14.557Z" fill="#3CA370"/>
<path d="M14.557 19.4613V21.2387H12.7793V19.4613H14.557Z" fill="#3D6E70"/>
</svg>
