<svg width="22" height="20" viewBox="0 0 22 20" fill="none" xmlns="http://www.w3.org/2000/svg">
<rect x="5.07812" y="0.398438" width="2.37031" height="2.37031" fill="#323E4F"/>
<rect x="7.44531" y="0.398438" width="2.37031" height="2.37031" fill="#3CA370"/>
<rect x="9.81641" y="0.398438" width="2.37031" height="2.37031" fill="#3D6E70"/>
<rect x="12.1875" y="0.398438" width="2.37031" height="2.37031" fill="#323E4F"/>
<rect x="5.07812" y="2.76953" width="2.37031" height="2.37031" fill="#CFFF70"/>
<rect x="7.44531" y="2.76953" width="2.37031" height="2.37031" fill="#8FDE5D"/>
<rect x="9.81641" y="2.76953" width="2.37031" height="2.37031" fill="#3CA370"/>
<rect x="12.1875" y="2.76953" width="2.37031" height="2.37031" fill="#3CA370"/>
<rect x="5.07812" y="5.13672" width="2.37031" height="2.37031" fill="#CFFF70"/>
<rect x="7.44531" y="5.13672" width="2.37031" height="2.37031" fill="#585F54"/>
<rect x="9.81641" y="5.13672" width="2.37031" height="2.37031" fill="#40444A"/>
<rect x="12.1875" y="5.13672" width="2.37031" height="2.37031" fill="#3CA370"/>
<rect x="5.07812" y="7.51172" width="2.37031" height="2.37031" fill="#585F54"/>
<rect x="7.44531" y="7.51172" width="2.37031" height="2.37031" fill="#37423C"/>
<rect x="9.81641" y="7.51172" width="2.37031" height="2.37031" fill="#37423C"/>
<rect x="12.1875" y="7.51172" width="2.37031" height="2.37031" fill="#091811"/>
<rect x="5.07812" y="9.88281" width="2.37031" height="2.37031" fill="#4E5A51"/>
<rect x="7.44531" y="9.88281" width="2.37031" height="2.37031" fill="#2A3A3F"/>
<rect x="9.81641" y="9.88281" width="2.37031" height="2.37031" fill="#2A3A3F"/>
<rect x="12.1875" y="9.88281" width="2.37031" height="2.37031" fill="#091811"/>
<rect x="5.07812" y="12.2461" width="2.37031" height="2.37031" fill="#3CA370"/>
<rect x="7.44531" y="12.2461" width="2.37031" height="2.37031" fill="#343B4D"/>
<rect x="9.81641" y="12.2461" width="2.37031" height="2.37031" fill="#091811"/>
<rect x="12.1875" y="12.2461" width="2.37031" height="2.37031" fill="#3CA370"/>
<rect x="5.07812" y="14.6172" width="2.37031" height="2.37031" fill="#3CA370"/>
<rect x="7.44531" y="14.6172" width="2.37031" height="2.37031" fill="#3CA370"/>
<rect x="9.81641" y="14.6172" width="2.37031" height="2.37031" fill="#3CA370"/>
<rect x="12.1875" y="14.6172" width="2.37031" height="2.37031" fill="#3CA370"/>
<rect x="5.07812" y="16.9922" width="2.37031" height="2.37031" fill="#323E4F"/>
<rect x="7.44531" y="16.9922" width="2.37031" height="2.37031" fill="#3D6E70"/>
<rect x="9.81641" y="16.9922" width="2.37031" height="2.37031" fill="#3D6E70"/>
<rect x="12.1875" y="16.9922" width="2.37031" height="2.37031" fill="#3D6E70"/>
<rect x="16.9258" y="2.76953" width="2.37031" height="2.37031" transform="rotate(90 16.9258 2.76953)" fill="#3D6E70"/>
<rect x="16.9258" y="5.13672" width="2.37031" height="2.37031" transform="rotate(90 16.9258 5.13672)" fill="#3D6E70"/>
<rect x="16.9258" y="7.51172" width="2.37031" height="2.37031" transform="rotate(90 16.9258 7.51172)" fill="#3CA370"/>
<rect x="16.9258" y="9.88281" width="2.37031" height="2.37031" transform="rotate(90 16.9258 9.88281)" fill="#3CA370"/>
<rect x="16.9258" y="12.2461" width="2.37031" height="2.37031" transform="rotate(90 16.9258 12.2461)" fill="#3CA370"/>
<rect x="16.9258" y="14.6172" width="2.37031" height="2.37031" transform="rotate(90 16.9258 14.6172)" fill="#3D6E70"/>
<rect x="16.9258" y="16.9922" width="2.37031" height="2.37031" transform="rotate(90 16.9258 16.9922)" fill="#272736"/>
<rect x="19.2969" y="14.6172" width="2.37031" height="2.37031" transform="rotate(90 19.2969 14.6172)" fill="#272736"/>
<rect x="19.2969" y="5.13672" width="2.37031" height="2.37031" transform="rotate(90 19.2969 5.13672)" fill="#3D6E70"/>
<rect x="19.2969" y="2.76953" width="2.37031" height="2.37031" transform="rotate(90 19.2969 2.76953)" fill="#272736"/>
<rect x="19.2969" y="7.51172" width="2.37031" height="2.37031" transform="rotate(90 19.2969 7.51172)" fill="#3D6E70"/>
<rect x="21.6641" y="7.51172" width="2.37031" height="2.37031" transform="rotate(90 21.6641 7.51172)" fill="#272736"/>
<rect x="19.2969" y="9.88281" width="2.37031" height="2.37031" transform="rotate(90 19.2969 9.88281)" fill="#3D6E70"/>
<rect x="21.6641" y="9.88281" width="2.37031" height="2.37031" transform="rotate(90 21.6641 9.88281)" fill="#272736"/>
<rect x="19.2969" y="12.2461" width="2.37031" height="2.37031" transform="rotate(90 19.2969 12.2461)" fill="#3D6E70"/>
<rect x="2.70312" y="5.13672" width="2.37031" height="2.37031" transform="rotate(90 2.70312 5.13672)" fill="#8FDE5D"/>
<rect x="2.70312" y="7.51172" width="2.37031" height="2.37031" transform="rotate(90 2.70312 7.51172)" fill="#8FDE5D"/>
<rect x="2.70312" y="9.88281" width="2.37031" height="2.37031" transform="rotate(90 2.70312 9.88281)" fill="#3CA370"/>
<rect x="2.70312" y="12.2461" width="2.37031" height="2.37031" transform="rotate(90 2.70312 12.2461)" fill="#3D6E70"/>
<rect x="5.07812" y="2.76953" width="2.37031" height="2.37031" transform="rotate(90 5.07812 2.76953)" fill="#8FDE5D"/>
<rect x="5.07812" y="5.13672" width="2.37031" height="2.37031" transform="rotate(90 5.07812 5.13672)" fill="white"/>
<rect x="5.07812" y="7.51172" width="2.37031" height="2.37031" transform="rotate(90 5.07812 7.51172)" fill="#CFFF70"/>
<rect x="5.07812" y="9.88281" width="2.37031" height="2.37031" transform="rotate(90 5.07812 9.88281)" fill="#3CA370"/>
<rect x="5.07812" y="12.2461" width="2.37031" height="2.37031" transform="rotate(90 5.07812 12.2461)" fill="#3CA370"/>
<rect x="5.07812" y="14.6172" width="2.37031" height="2.37031" transform="rotate(90 5.07812 14.6172)" fill="#3D6E70"/>
</svg>
