<svg width="326" height="36" viewBox="0 0 326 36" fill="none" xmlns="http://www.w3.org/2000/svg">
<path d="M16.2188 3.36719V6.92188H4.46094V23.3672C9.96875 23.3281 13.8555 23.0938 18.25 22.2734L18.7188 25.7891C13.7578 26.7656 9.5 26.9609 2.89844 26.9609H0.0859375V3.36719H16.2188ZM28.0156 0.164062V35.5156H23.6797V16.1406H14.3438V12.5859H23.6797V0.164062H28.0156ZM69.375 0.164062V13.4453H73.3203V17.1172H69.375V35.4766H65.0781V0.164062H69.375ZM44.4531 3.40625V11.8828H47.4219V3.40625H51.0156V27.1562H40.8594V3.40625H44.4531ZM44.4531 23.6016H47.4219V15.3203H44.4531V23.6016ZM56.1328 3.40625V11.8828H59.1016V3.40625H62.6953V27.1562H52.6172V3.40625H56.1328ZM56.1328 23.6016H59.1016V15.3203H56.1328V23.6016ZM106.227 19.4219V22.8984H73.9609V19.4219H106.227ZM103.023 31.2578V34.7734H78.1016V25.125H82.4766V31.2578H103.023ZM102.242 1.10156V10.5156H82.3594V13.5234H102.945V16.8047H78.0625V7.39062H97.9062V4.5H77.9453V1.10156H102.242ZM145.555 0.164062V35.4766H141.18V0.164062H145.555ZM136.961 3.60156V7.15625H133.562V22.9766C135.262 22.8594 136.922 22.7031 138.523 22.5078L138.758 25.75C131.18 26.9609 122.898 27.1172 116.414 27.1172L115.984 23.5625L120.359 23.5234V7.15625H116.922V3.60156H136.961ZM124.539 23.4062C126.102 23.3867 127.703 23.3281 129.305 23.25V7.15625H124.539V23.4062ZM178.305 16.7266V20.2031H153.539V3.25H178.031V6.76562H157.836V16.7266H178.305ZM181.898 27.3906V30.9844H149.633V27.3906H181.898ZM188.672 2.42969V7.625H194.492V2.42969H198.516V19.2656H184.57V2.42969H188.672ZM188.672 15.8281H194.492V10.9844H188.672V15.8281ZM213.398 0.203125V21.4141H209.258V12.5469H205.742V21.2188H201.68V0.867188H205.742V8.99219H209.258V0.203125H213.398ZM213.398 23.2109V35.4766H209.062V26.7266H189.219V23.2109H213.398ZM236.5 3.83594V6.33594C236.5 9.5 236.5 13.9141 235.523 20.0078L231.227 19.6562C232.066 14.3047 232.164 10.3594 232.203 7.3125H218.336V3.83594H236.5ZM227.594 13.9141V24.3438C231.188 24.207 234.879 23.9531 238.258 23.5234L238.492 26.7656C231.188 27.9375 223.102 28.0938 216.891 28.0547L216.461 24.5781C218.551 24.5586 220.875 24.5391 223.297 24.4609V13.9141H227.594ZM244.469 0.164062V14.5391H249.586V18.2109H244.469V35.4766H240.094V0.164062H244.469ZM271.766 5.24219C271.727 10.0469 274.539 14.4219 280.086 16.1797L277.742 19.5781C273.895 18.2305 271.199 15.6719 269.695 12.3125C268.133 16.1602 265.184 19.1875 260.906 20.6719L258.602 17.1562C264.461 15.2422 267.391 10.5156 267.391 5.4375V2.07812H271.766V5.24219ZM288.406 0.164062V20.9453H284.07V10.5547H277.039V7H284.07V0.164062H288.406ZM276.453 21.8828C283.953 21.8828 288.523 24.3828 288.523 28.6797C288.523 32.9766 283.953 35.4375 276.453 35.4375C268.992 35.4375 264.422 32.9766 264.461 28.6797C264.422 24.3828 268.992 21.8828 276.453 21.8828ZM276.453 25.2422C271.531 25.2422 268.758 26.4531 268.758 28.6797C268.758 30.8281 271.531 32.0391 276.453 32.0391C281.375 32.0391 284.188 30.8281 284.188 28.6797C284.188 26.4531 281.375 25.2422 276.453 25.2422ZM305.062 6.53125C305.062 10.8672 307.875 14.9297 313.383 16.6094L311.312 20.0078C307.348 18.7773 304.535 16.2578 302.992 13.0547C301.43 16.7656 298.441 19.7148 294.203 21.1406L292.016 17.7031C297.719 15.8281 300.688 11.2578 300.688 6.57031V6.14062H293.227V2.625H312.406V6.14062H305.062V6.53125ZM320.258 0.164062V8.64062H325.18V12.1953H320.258V21.2188H315.922V0.164062H320.258ZM308.773 22C316.078 22 320.57 24.4609 320.609 28.6797C320.57 32.9375 316.078 35.4375 308.773 35.4375C301.391 35.4375 296.82 32.9375 296.82 28.6797C296.82 24.4609 301.391 22 308.773 22ZM308.773 25.3984C303.93 25.3984 301.156 26.5312 301.156 28.6797C301.156 30.8672 303.93 32.0391 308.773 32.0391C313.617 32.0391 316.312 30.8672 316.312 28.6797C316.312 26.5312 313.617 25.3984 308.773 25.3984Z" fill="url(#paint0_linear_495_22586)"/>
<defs>
<linearGradient id="paint0_linear_495_22586" x1="326.837" y1="-11.9245" x2="7.51734" y2="-51.936" gradientUnits="userSpaceOnUse">
<stop stop-color="#00C13A"/>
<stop offset="1" stop-color="white"/>
</linearGradient>
</defs>
</svg>
