<svg width="108" height="34" viewBox="0 0 108 34" fill="none" xmlns="http://www.w3.org/2000/svg">
<mask id="path-1-inside-1_433_37176" fill="white">
<path d="M0 0H108V34H0V0Z"/>
</mask>
<path d="M108 32H0V36H108V32Z" fill="#00C13A" mask="url(#path-1-inside-1_433_37176)"/>
<path d="M8 14L16 18L24 14" stroke="#00C13A" stroke-width="2" stroke-linecap="round" stroke-linejoin="round"/>
<path d="M8 18L16 22L24 18" stroke="#00C13A" stroke-width="2" stroke-linecap="round" stroke-linejoin="round"/>
<path d="M16 6L8 10L16 14L24 10L16 6Z" stroke="#00C13A" stroke-width="2" stroke-linecap="round" stroke-linejoin="round"/>
<path d="M47.3246 5.0884V22.7265H45.1354V5.0884H47.3246ZM32.7044 17.8715C37.3246 15.6754 39.4655 12.6989 39.8522 8.67956H33.6022V6.95994H42.0622C42.0552 12.2155 40.018 16.6768 33.8439 19.6119L32.7044 17.8715ZM58.5365 5.6547C58.5296 7.53315 60.9468 9.25276 64.6277 9.66022L63.8957 11.2901C60.9053 10.9448 58.5365 9.75691 57.4039 8.0511C56.2575 9.75691 53.8887 10.9448 50.9329 11.2901L50.194 9.66022C53.8957 9.25276 56.2921 7.53315 56.299 5.6547V5.17818H58.5365V5.6547ZM49.3722 13.8936V12.174H65.4564V13.8936H58.4813V15.2541H63.4537V19.6257H53.4122V20.924H63.9371V22.5815H51.2852V18.0718H61.3128V16.9116H51.2644V15.2541H56.299V13.8936H49.3722ZM79.5264 7.49862C79.5194 10.2334 82.1921 12.9682 85.8868 13.6174L84.9131 15.4268C81.9504 14.8122 79.5264 13.0235 78.3799 10.6478C77.2197 13.0028 74.7957 14.7983 71.8468 15.4268L70.8938 13.6174C74.5333 12.9544 77.2059 10.2196 77.2197 7.49862V6.20028H79.5264V7.49862ZM70.4034 20.489V18.6934H86.5429V20.489H70.4034ZM94.7922 6.30387V8.05801H89.951V9.77072H94.6126V11.4282H89.951V13.2859C92.0988 13.2652 93.5974 13.1754 95.3239 12.8646L95.538 14.6188C93.4731 14.9986 91.7673 15.0746 89.0325 15.0677H87.8585V6.30387H94.7922ZM90.1927 18.3757V16.6285H102.285V22.7265H100.124V18.3757H90.1927ZM96.3529 15.7169V5.4268H98.3764V9.50829H100.22V5.10221H102.285V15.8412H100.22V11.2624H98.3764V15.7169H96.3529Z" fill="#00C13A"/>
</svg>
