<svg width="109" height="34" viewBox="0 0 109 34" fill="none" xmlns="http://www.w3.org/2000/svg">
<path d="M8 14L16 18L24 14" stroke="#999999" stroke-width="2" stroke-linecap="round" stroke-linejoin="round"/>
<path d="M8 18L16 22L24 18" stroke="#999999" stroke-width="2" stroke-linecap="round" stroke-linejoin="round"/>
<path d="M16 6L8 10L16 14L24 10L16 6Z" stroke="#999999" stroke-width="2" stroke-linecap="round" stroke-linejoin="round"/>
<path d="M47.1953 5.16016V22.6602H45.3203V5.16016H47.1953ZM32.8203 17.9727C37.4688 15.7559 39.7441 12.6016 40.1055 8.51953H33.6602V7.03516H41.9805C41.9805 12.1621 39.8027 16.5957 33.7969 19.4766L32.8203 17.9727ZM58.3555 5.82422C58.3652 7.83594 61.1387 9.52539 64.5469 9.90625L63.9023 11.3125C61.0312 10.9609 58.5215 9.75 57.3984 7.96289C56.2656 9.75 53.7559 10.9609 50.9141 11.3125L50.2695 9.90625C53.6875 9.52539 56.4512 7.83594 56.4609 5.82422V5.23828H58.3555V5.82422ZM49.4297 13.8125V12.3281H65.3867V13.8125H58.3164V15.375H63.375V19.5156H53.1797V21.0586H63.8633V22.4844H51.3633V18.168H61.5391V16.8008H51.3438V15.375H56.4609V13.8125H49.4297ZM79.4844 7.64062C79.4844 10.4922 82.5215 13.1875 85.8906 13.793L85.0312 15.3359C82.2285 14.7305 79.6602 12.8945 78.5273 10.4336C77.375 12.8848 74.8066 14.7109 72.0039 15.3359L71.1836 13.793C74.5039 13.168 77.5215 10.4922 77.5312 7.64062V6.3125H79.4844V7.64062ZM70.5977 20.3555V18.8125H86.6133V20.3555H70.5977ZM94.9414 6.41016V7.91406H89.8828V9.86719H94.7461V11.293H89.8828V13.4219C92.2266 13.4023 93.7598 13.3145 95.5664 12.9727L95.7422 14.4961C93.6914 14.877 92.0215 14.9551 89.2383 14.9453H88.1055V6.41016H94.9414ZM90.4102 18.1484V16.6445H102.305V22.6602H100.469V18.1484H90.4102ZM96.6602 15.668V5.49219H98.3984V9.63281H100.547V5.17969H102.305V15.8047H100.547V11.1367H98.3984V15.668H96.6602Z" fill="#999999"/>
</svg>
