<svg width="360" height="40" viewBox="0 0 360 40" fill="none" xmlns="http://www.w3.org/2000/svg">
<line x1="39" y1="21" x2="161" y2="21" stroke="#505050" stroke-width="2" stroke-dasharray="6 6"/>
<line x1="199" y1="21" x2="321" y2="21" stroke="url(#paint0_linear_286_5250)" stroke-width="2" stroke-dasharray="6 6"/>
<circle cx="20" cy="20" r="19" fill="#111111" stroke="#505050" stroke-width="2"/>
<path d="M22.2424 14.3923V25H20.3259V16.2517H20.2638L17.7828 17.8367V16.0912L20.414 14.3923H22.2424Z" fill="#505050"/>
<circle cx="180" cy="20" r="19" fill="#111111" stroke="#505050" stroke-width="2"/>
<path d="M176.367 25L176.361 23.6171L180.106 20.0069C181.178 18.9347 181.738 18.3028 181.743 17.4171C181.738 16.4227 180.956 15.8011 179.915 15.8011C178.827 15.8011 178.123 16.4848 178.128 17.5622H176.315C176.305 15.5525 177.812 14.2472 179.941 14.2472C182.1 14.2472 183.561 15.5421 183.566 17.3187C183.561 18.5204 182.986 19.489 180.899 21.4572L179.019 23.327V23.4047H183.727V25H176.367Z" fill="#505050"/>
<circle cx="340" cy="20" r="19" fill="#111111" stroke="#00C13A" stroke-width="2"/>
<path d="M339.995 25.145C337.732 25.145 336.116 23.9123 336.064 22.1202H337.991C338.037 22.98 338.887 23.5394 339.99 23.5394C341.161 23.5394 342.005 22.8971 342 21.9596C342.005 21.0014 341.181 20.3177 339.799 20.3177H338.856V18.8467H339.799C340.928 18.8467 341.715 18.22 341.715 17.2928C341.715 16.4019 341.042 15.8011 340.016 15.8011C339.011 15.8011 338.151 16.3605 338.115 17.2462H336.287C336.328 15.4696 337.944 14.2472 340.026 14.2472C342.171 14.2472 343.564 15.5628 343.554 17.184C343.564 18.3805 342.777 19.2352 341.611 19.4786V19.5615C343.113 19.7635 343.963 20.7217 343.953 22.058C343.963 23.845 342.29 25.145 339.995 25.145Z" fill="#00C13A"/>
<defs>
<linearGradient id="paint0_linear_286_5250" x1="199" y1="22.5" x2="321" y2="22.5" gradientUnits="userSpaceOnUse">
<stop stop-color="#505050"/>
<stop offset="1" stop-color="#00C13A"/>
</linearGradient>
</defs>
</svg>
