<svg width="38" height="32" viewBox="0 0 38 32" fill="none" xmlns="http://www.w3.org/2000/svg">
<path d="M14.557 4.79688H16.3348V6.5746H14.557V4.79688Z" fill="#323E4F"/>
<path d="M16.3348 4.79688H18.1121V6.5746H16.3348V4.79688Z" fill="#3CA370"/>
<path d="M18.1121 4.79688H19.8894V6.5746H18.1121V4.79688Z" fill="#3D6E70"/>
<path d="M19.8894 4.79688H21.6668V6.5746H19.8894V4.79688Z" fill="#323E4F"/>
<path d="M14.557 6.5746H16.3348V8.35195H14.557V6.5746Z" fill="#CFFF70"/>
<path d="M16.3348 6.5746H18.1121V8.35195H16.3348V6.5746Z" fill="#8FDE5D"/>
<path d="M18.1121 6.5746H19.8894V8.35195H18.1121V6.5746Z" fill="#3CA370"/>
<path d="M19.8894 6.5746H21.6668V8.35195H19.8894V6.5746Z" fill="#3CA370"/>
<path d="M14.557 8.35195H16.3348V10.1293H14.557V8.35195Z" fill="#CFFF70"/>
<path d="M16.3348 8.35195H18.1121V10.1293H16.3348V8.35195Z" fill="#585F54"/>
<path d="M18.1121 8.35195H19.8894V10.1293H18.1121V8.35195Z" fill="#40444A"/>
<path d="M19.8894 8.35195H21.6668V10.1293H19.8894V8.35195Z" fill="#3CA370"/>
<path d="M14.557 10.1328H16.3348V11.9105H14.557V10.1328Z" fill="#585F54"/>
<path d="M16.3348 10.1328H18.1121V11.9105H16.3348V10.1328Z" fill="#37423C"/>
<path d="M18.1121 10.1328H19.8894V11.9105H18.1121V10.1328Z" fill="#37423C"/>
<path d="M19.8894 10.1328H21.6668V11.9105H19.8894V10.1328Z" fill="#091811"/>
<path d="M14.557 11.9105H16.3348V13.6879H14.557V11.9105Z" fill="#4E5A51"/>
<path d="M16.3348 11.9105H18.1121V13.6879H16.3348V11.9105Z" fill="#2A3A3F"/>
<path d="M18.1121 11.9105H19.8894V13.6879H18.1121V11.9105Z" fill="#2A3A3F"/>
<path d="M19.8894 11.9105H21.6668V13.6879H19.8894V11.9105Z" fill="#091811"/>
<path d="M14.557 13.6836H16.3348V15.4613H14.557V13.6836Z" fill="#3CA370"/>
<path d="M16.3348 13.6836H18.1121V15.4613H16.3348V13.6836Z" fill="#343B4D"/>
<path d="M18.1121 13.6836H19.8894V15.4613H18.1121V13.6836Z" fill="#091811"/>
<path d="M19.8894 13.6836H21.6668V15.4613H19.8894V13.6836Z" fill="#3CA370"/>
<path d="M14.557 15.4613H16.3348V17.2387H14.557V15.4613Z" fill="#3CA370"/>
<path d="M16.3348 15.4613H18.1121V17.2387H16.3348V15.4613Z" fill="#3CA370"/>
<path d="M18.1121 15.4613H19.8894V17.2387H18.1121V15.4613Z" fill="#3CA370"/>
<path d="M19.8894 15.4613H21.6668V17.2387H19.8894V15.4613Z" fill="#3CA370"/>
<path d="M14.557 17.2422H16.3348V19.0199H14.557V17.2422Z" fill="#323E4F"/>
<path d="M16.3348 17.2422H18.1121V19.0199H16.3348V17.2422Z" fill="#3D6E70"/>
<path d="M18.1121 17.2422H19.8894V19.0199H18.1121V17.2422Z" fill="#3D6E70"/>
<path d="M19.8894 17.2422H21.6668V19.0199H19.8894V17.2422Z" fill="#3D6E70"/>
<path d="M23.4437 6.57422V8.35195H21.6668V6.5746L23.4437 6.57422Z" fill="#3D6E70"/>
<path d="M23.4437 8.35195V10.1293H21.6668V8.35195H23.4437Z" fill="#3D6E70"/>
<path d="M23.4437 10.1328V11.9105H21.6668V10.1328H23.4437Z" fill="#3CA370"/>
<path d="M23.4437 11.9105V13.6879H21.6668V11.9105H23.4437Z" fill="#3CA370"/>
<path d="M23.4437 13.6836V15.4613H21.6668V13.6836H23.4437Z" fill="#3CA370"/>
<path d="M23.4437 15.4613V17.2387H21.6668V15.4613H23.4437Z" fill="#3D6E70"/>
<path d="M23.4437 17.2422V19.0199H21.6668V17.2422H23.4437Z" fill="#272736"/>
<path d="M25.223 15.4609V17.2387H23.4453V15.4609H25.223Z" fill="#272736"/>
<path d="M25.223 8.35156V10.1293H23.4453V8.35156H25.223Z" fill="#3D6E70"/>
<path d="M25.223 6.57422V8.35156H23.4453V6.57422L25.223 6.57422Z" fill="#272736"/>
<path d="M25.223 10.1328V11.9105H23.4453V10.1328H25.223Z" fill="#3D6E70"/>
<path d="M27.0004 10.1328V11.9105H25.223V10.1328H27.0004Z" fill="#272736"/>
<path d="M25.223 11.9105V13.6879H23.4453V11.9105H25.223Z" fill="#3D6E70"/>
<path d="M27.0004 11.9105V13.6879H25.223V11.9105H27.0004Z" fill="#272736"/>
<path d="M25.223 13.6836V15.4609H23.4453V13.6836H25.223Z" fill="#3D6E70"/>
<path d="M12.7777 8.35156V10.1293H11V8.35156H12.7777Z" fill="#8FDE5D"/>
<path d="M12.7777 10.1328V11.9105H11V10.1328H12.7777Z" fill="#8FDE5D"/>
<path d="M12.7777 11.9105V13.6879H11V11.9105H12.7777Z" fill="#3CA370"/>
<path d="M12.7777 13.6836V15.4613H11V13.6836H12.7777Z" fill="#3D6E70"/>
<path d="M14.557 6.5746V8.35195H12.7793V6.57422L14.557 6.5746Z" fill="#8FDE5D"/>
<path d="M14.557 8.35195V10.1293H12.7793V8.35195H14.557Z" fill="white"/>
<path d="M14.557 10.1328V11.9105H12.7793V10.1328H14.557Z" fill="#CFFF70"/>
<path d="M14.557 11.9105V13.6879H12.7793V11.9105H14.557Z" fill="#3CA370"/>
<path d="M14.557 13.6836V15.4613H12.7793V13.6836H14.557Z" fill="#3CA370"/>
<path d="M14.557 15.4613V17.2387H12.7793V15.4613H14.557Z" fill="#3D6E70"/>
<path d="M21.557 12.7969H23.3348V14.5746H21.557V12.7969Z" fill="#323E4F"/>
<path d="M23.3348 12.7969H25.1121V14.5746H23.3348V12.7969Z" fill="#3CA370"/>
<path d="M25.1121 12.7969H26.8894V14.5746H25.1121V12.7969Z" fill="#3D6E70"/>
<path d="M26.8894 12.7969H28.6668V14.5746H26.8894V12.7969Z" fill="#323E4F"/>
<path d="M21.557 14.5746H23.3348V16.3519H21.557V14.5746Z" fill="#CFFF70"/>
<path d="M23.3348 14.5746H25.1121V16.3519H23.3348V14.5746Z" fill="#8FDE5D"/>
<path d="M25.1121 14.5746H26.8894V16.3519H25.1121V14.5746Z" fill="#3CA370"/>
<path d="M26.8894 14.5746H28.6668V16.3519H26.8894V14.5746Z" fill="#3CA370"/>
<path d="M21.557 16.3519H23.3348V18.1293H21.557V16.3519Z" fill="#CFFF70"/>
<path d="M23.3348 16.3519H25.1121V18.1293H23.3348V16.3519Z" fill="#585F54"/>
<path d="M25.1121 16.3519H26.8894V18.1293H25.1121V16.3519Z" fill="#40444A"/>
<path d="M26.8894 16.3519H28.6668V18.1293H26.8894V16.3519Z" fill="#3CA370"/>
<path d="M21.557 18.1328H23.3348V19.9105H21.557V18.1328Z" fill="#585F54"/>
<path d="M23.3348 18.1328H25.1121V19.9105H23.3348V18.1328Z" fill="#37423C"/>
<path d="M25.1121 18.1328H26.8894V19.9105H25.1121V18.1328Z" fill="#37423C"/>
<path d="M26.8894 18.1328H28.6668V19.9105H26.8894V18.1328Z" fill="#091811"/>
<path d="M21.557 19.9105H23.3348V21.6879H21.557V19.9105Z" fill="#4E5A51"/>
<path d="M23.3348 19.9105H25.1121V21.6879H23.3348V19.9105Z" fill="#2A3A3F"/>
<path d="M25.1121 19.9105H26.8894V21.6879H25.1121V19.9105Z" fill="#2A3A3F"/>
<path d="M26.8894 19.9105H28.6668V21.6879H26.8894V19.9105Z" fill="#091811"/>
<path d="M21.557 21.6836H23.3348V23.4613H21.557V21.6836Z" fill="#3CA370"/>
<path d="M23.3348 21.6836H25.1121V23.4613H23.3348V21.6836Z" fill="#343B4D"/>
<path d="M25.1121 21.6836H26.8894V23.4613H25.1121V21.6836Z" fill="#091811"/>
<path d="M26.8894 21.6836H28.6668V23.4613H26.8894V21.6836Z" fill="#3CA370"/>
<path d="M21.557 23.4613H23.3348V25.2387H21.557V23.4613Z" fill="#3CA370"/>
<path d="M23.3348 23.4613H25.1121V25.2387H23.3348V23.4613Z" fill="#3CA370"/>
<path d="M25.1121 23.4613H26.8894V25.2387H25.1121V23.4613Z" fill="#3CA370"/>
<path d="M26.8894 23.4613H28.6668V25.2387H26.8894V23.4613Z" fill="#3CA370"/>
<path d="M21.557 25.2422H23.3348V27.0199H21.557V25.2422Z" fill="#323E4F"/>
<path d="M23.3348 25.2422H25.1121V27.0199H23.3348V25.2422Z" fill="#3D6E70"/>
<path d="M25.1121 25.2422H26.8894V27.0199H25.1121V25.2422Z" fill="#3D6E70"/>
<path d="M26.8894 25.2422H28.6668V27.0199H26.8894V25.2422Z" fill="#3D6E70"/>
<path d="M30.4437 14.5742V16.3519H28.6668V14.5746L30.4437 14.5742Z" fill="#3D6E70"/>
<path d="M30.4437 16.3519V18.1293H28.6668V16.3519H30.4437Z" fill="#3D6E70"/>
<path d="M30.4437 18.1328V19.9105H28.6668V18.1328H30.4437Z" fill="#3CA370"/>
<path d="M30.4437 19.9105V21.6879H28.6668V19.9105H30.4437Z" fill="#3CA370"/>
<path d="M30.4437 21.6836V23.4613H28.6668V21.6836H30.4437Z" fill="#3CA370"/>
<path d="M30.4437 23.4613V25.2387H28.6668V23.4613H30.4437Z" fill="#3D6E70"/>
<path d="M30.4437 25.2422V27.0199H28.6668V25.2422H30.4437Z" fill="#272736"/>
<path d="M32.223 23.4609V25.2387H30.4453V23.4609H32.223Z" fill="#272736"/>
<path d="M32.223 16.3516V18.1293H30.4453V16.3516H32.223Z" fill="#3D6E70"/>
<path d="M32.223 14.5742V16.3516H30.4453V14.5742H32.223Z" fill="#272736"/>
<path d="M32.223 18.1328V19.9105H30.4453V18.1328H32.223Z" fill="#3D6E70"/>
<path d="M34.0004 18.1328V19.9105H32.223V18.1328H34.0004Z" fill="#272736"/>
<path d="M32.223 19.9105V21.6879H30.4453V19.9105H32.223Z" fill="#3D6E70"/>
<path d="M34.0004 19.9105V21.6879H32.223V19.9105H34.0004Z" fill="#272736"/>
<path d="M32.223 21.6836V23.4609H30.4453V21.6836H32.223Z" fill="#3D6E70"/>
<path d="M19.7777 16.3516V18.1293H18V16.3516H19.7777Z" fill="#8FDE5D"/>
<path d="M19.7777 18.1328V19.9105H18V18.1328H19.7777Z" fill="#8FDE5D"/>
<path d="M19.7777 19.9105V21.6879H18V19.9105H19.7777Z" fill="#3CA370"/>
<path d="M19.7777 21.6836V23.4613H18V21.6836H19.7777Z" fill="#3D6E70"/>
<path d="M21.557 14.5746V16.3519H19.7793V14.5742L21.557 14.5746Z" fill="#8FDE5D"/>
<path d="M21.557 16.3519V18.1293H19.7793V16.3519H21.557Z" fill="white"/>
<path d="M21.557 18.1328V19.9105H19.7793V18.1328H21.557Z" fill="#CFFF70"/>
<path d="M21.557 19.9105V21.6879H19.7793V19.9105H21.557Z" fill="#3CA370"/>
<path d="M21.557 21.6836V23.4613H19.7793V21.6836H21.557Z" fill="#3CA370"/>
<path d="M21.557 23.4613V25.2387H19.7793V23.4613H21.557Z" fill="#3D6E70"/>
<path d="M7.55703 12.7969H9.33476V14.5746H7.55703V12.7969Z" fill="#323E4F"/>
<path d="M9.33476 12.7969H11.1121V14.5746H9.33476V12.7969Z" fill="#3CA370"/>
<path d="M11.1121 12.7969H12.8894V14.5746H11.1121V12.7969Z" fill="#3D6E70"/>
<path d="M12.8894 12.7969H14.6668V14.5746H12.8894V12.7969Z" fill="#323E4F"/>
<path d="M7.55703 14.5746H9.33476V16.3519H7.55703V14.5746Z" fill="#CFFF70"/>
<path d="M9.33476 14.5746H11.1121V16.3519H9.33476V14.5746Z" fill="#8FDE5D"/>
<path d="M11.1121 14.5746H12.8894V16.3519H11.1121V14.5746Z" fill="#3CA370"/>
<path d="M12.8894 14.5746H14.6668V16.3519H12.8894V14.5746Z" fill="#3CA370"/>
<path d="M7.55703 16.3519H9.33476V18.1293H7.55703V16.3519Z" fill="#CFFF70"/>
<path d="M9.33476 16.3519H11.1121V18.1293H9.33476V16.3519Z" fill="#585F54"/>
<path d="M11.1121 16.3519H12.8894V18.1293H11.1121V16.3519Z" fill="#40444A"/>
<path d="M12.8894 16.3519H14.6668V18.1293H12.8894V16.3519Z" fill="#3CA370"/>
<path d="M7.55703 18.1328H9.33476V19.9105H7.55703V18.1328Z" fill="#585F54"/>
<path d="M9.33476 18.1328H11.1121V19.9105H9.33476V18.1328Z" fill="#37423C"/>
<path d="M11.1121 18.1328H12.8894V19.9105H11.1121V18.1328Z" fill="#37423C"/>
<path d="M12.8894 18.1328H14.6668V19.9105H12.8894V18.1328Z" fill="#091811"/>
<path d="M7.55703 19.9105H9.33476V21.6879H7.55703V19.9105Z" fill="#4E5A51"/>
<path d="M9.33476 19.9105H11.1121V21.6879H9.33476V19.9105Z" fill="#2A3A3F"/>
<path d="M11.1121 19.9105H12.8894V21.6879H11.1121V19.9105Z" fill="#2A3A3F"/>
<path d="M12.8894 19.9105H14.6668V21.6879H12.8894V19.9105Z" fill="#091811"/>
<path d="M7.55703 21.6836H9.33476V23.4613H7.55703V21.6836Z" fill="#3CA370"/>
<path d="M9.33476 21.6836H11.1121V23.4613H9.33476V21.6836Z" fill="#343B4D"/>
<path d="M11.1121 21.6836H12.8894V23.4613H11.1121V21.6836Z" fill="#091811"/>
<path d="M12.8894 21.6836H14.6668V23.4613H12.8894V21.6836Z" fill="#3CA370"/>
<path d="M7.55703 23.4613H9.33476V25.2387H7.55703V23.4613Z" fill="#3CA370"/>
<path d="M9.33476 23.4613H11.1121V25.2387H9.33476V23.4613Z" fill="#3CA370"/>
<path d="M11.1121 23.4613H12.8894V25.2387H11.1121V23.4613Z" fill="#3CA370"/>
<path d="M12.8894 23.4613H14.6668V25.2387H12.8894V23.4613Z" fill="#3CA370"/>
<path d="M7.55703 25.2422H9.33476V27.0199H7.55703V25.2422Z" fill="#323E4F"/>
<path d="M9.33476 25.2422H11.1121V27.0199H9.33476V25.2422Z" fill="#3D6E70"/>
<path d="M11.1121 25.2422H12.8894V27.0199H11.1121V25.2422Z" fill="#3D6E70"/>
<path d="M12.8894 25.2422H14.6668V27.0199H12.8894V25.2422Z" fill="#3D6E70"/>
<path d="M16.4437 14.5742V16.3519H14.6668V14.5746L16.4437 14.5742Z" fill="#3D6E70"/>
<path d="M16.4437 16.3519V18.1293H14.6668V16.3519H16.4437Z" fill="#3D6E70"/>
<path d="M16.4437 18.1328V19.9105H14.6668V18.1328H16.4437Z" fill="#3CA370"/>
<path d="M16.4437 19.9105V21.6879H14.6668V19.9105H16.4437Z" fill="#3CA370"/>
<path d="M16.4437 21.6836V23.4613H14.6668V21.6836H16.4437Z" fill="#3CA370"/>
<path d="M16.4437 23.4613V25.2387H14.6668V23.4613H16.4437Z" fill="#3D6E70"/>
<path d="M16.4437 25.2422V27.0199H14.6668V25.2422H16.4437Z" fill="#272736"/>
<path d="M18.223 23.4609V25.2387H16.4453V23.4609H18.223Z" fill="#272736"/>
<path d="M18.223 16.3516V18.1293H16.4453V16.3516H18.223Z" fill="#3D6E70"/>
<path d="M18.223 14.5742V16.3516H16.4453V14.5742H18.223Z" fill="#272736"/>
<path d="M18.223 18.1328V19.9105H16.4453V18.1328H18.223Z" fill="#3D6E70"/>
<path d="M20.0004 18.1328V19.9105H18.223V18.1328H20.0004Z" fill="#272736"/>
<path d="M18.223 19.9105V21.6879H16.4453V19.9105H18.223Z" fill="#3D6E70"/>
<path d="M20.0004 19.9105V21.6879H18.223V19.9105H20.0004Z" fill="#272736"/>
<path d="M18.223 21.6836V23.4609H16.4453V21.6836H18.223Z" fill="#3D6E70"/>
<path d="M5.77773 16.3516L5.77773 18.1293H4L4 16.3516H5.77773Z" fill="#8FDE5D"/>
<path d="M5.77773 18.1328L5.77773 19.9105H4L4 18.1328H5.77773Z" fill="#8FDE5D"/>
<path d="M5.77773 19.9105V21.6879H4V19.9105H5.77773Z" fill="#3CA370"/>
<path d="M5.77773 21.6836L5.77773 23.4613H4L4 21.6836H5.77773Z" fill="#3D6E70"/>
<path d="M7.55703 14.5746V16.3519H5.7793L5.7793 14.5742L7.55703 14.5746Z" fill="#8FDE5D"/>
<path d="M7.55703 16.3519V18.1293H5.7793V16.3519H7.55703Z" fill="white"/>
<path d="M7.55703 18.1328V19.9105H5.7793L5.7793 18.1328H7.55703Z" fill="#CFFF70"/>
<path d="M7.55703 19.9105V21.6879H5.7793V19.9105H7.55703Z" fill="#3CA370"/>
<path d="M7.55703 21.6836V23.4613H5.7793L5.7793 21.6836H7.55703Z" fill="#3CA370"/>
<path d="M7.55703 23.4613V25.2387H5.7793V23.4613H7.55703Z" fill="#3D6E70"/>
</svg>
