<svg width="38" height="32" viewBox="0 0 38 32" fill="none" xmlns="http://www.w3.org/2000/svg">
<path d="M18.557 5.79688H20.3348V7.5746H18.557V5.79688Z" fill="#323E4F"/>
<path d="M20.3348 5.79688H22.1121V7.5746H20.3348V5.79688Z" fill="#3CA370"/>
<path d="M22.1121 5.79688H23.8894V7.5746H22.1121V5.79688Z" fill="#3D6E70"/>
<path d="M23.8894 5.79688H25.6668V7.5746H23.8894V5.79688Z" fill="#323E4F"/>
<path d="M18.557 7.5746H20.3348V9.35195H18.557V7.5746Z" fill="#CFFF70"/>
<path d="M20.3348 7.5746H22.1121V9.35195H20.3348V7.5746Z" fill="#8FDE5D"/>
<path d="M22.1121 7.5746H23.8894V9.35195H22.1121V7.5746Z" fill="#3CA370"/>
<path d="M23.8894 7.5746H25.6668V9.35195H23.8894V7.5746Z" fill="#3CA370"/>
<path d="M18.557 9.35195H20.3348V11.1293H18.557V9.35195Z" fill="#CFFF70"/>
<path d="M20.3348 9.35195H22.1121V11.1293H20.3348V9.35195Z" fill="#585F54"/>
<path d="M22.1121 9.35195H23.8894V11.1293H22.1121V9.35195Z" fill="#40444A"/>
<path d="M23.8894 9.35195H25.6668V11.1293H23.8894V9.35195Z" fill="#3CA370"/>
<path d="M18.557 11.1328H20.3348V12.9105H18.557V11.1328Z" fill="#585F54"/>
<path d="M20.3348 11.1328H22.1121V12.9105H20.3348V11.1328Z" fill="#37423C"/>
<path d="M22.1121 11.1328H23.8894V12.9105H22.1121V11.1328Z" fill="#37423C"/>
<path d="M23.8894 11.1328H25.6668V12.9105H23.8894V11.1328Z" fill="#091811"/>
<path d="M18.557 12.9105H20.3348V14.6879H18.557V12.9105Z" fill="#4E5A51"/>
<path d="M20.3348 12.9105H22.1121V14.6879H20.3348V12.9105Z" fill="#2A3A3F"/>
<path d="M22.1121 12.9105H23.8894V14.6879H22.1121V12.9105Z" fill="#2A3A3F"/>
<path d="M23.8894 12.9105H25.6668V14.6879H23.8894V12.9105Z" fill="#091811"/>
<path d="M18.557 14.6836H20.3348V16.4613H18.557V14.6836Z" fill="#3CA370"/>
<path d="M20.3348 14.6836H22.1121V16.4613H20.3348V14.6836Z" fill="#343B4D"/>
<path d="M22.1121 14.6836H23.8894V16.4613H22.1121V14.6836Z" fill="#091811"/>
<path d="M23.8894 14.6836H25.6668V16.4613H23.8894V14.6836Z" fill="#3CA370"/>
<path d="M18.557 16.4613H20.3348V18.2387H18.557V16.4613Z" fill="#3CA370"/>
<path d="M20.3348 16.4613H22.1121V18.2387H20.3348V16.4613Z" fill="#3CA370"/>
<path d="M22.1121 16.4613H23.8894V18.2387H22.1121V16.4613Z" fill="#3CA370"/>
<path d="M23.8894 16.4613H25.6668V18.2387H23.8894V16.4613Z" fill="#3CA370"/>
<path d="M18.557 18.2422H20.3348V20.0199H18.557V18.2422Z" fill="#323E4F"/>
<path d="M20.3348 18.2422H22.1121V20.0199H20.3348V18.2422Z" fill="#3D6E70"/>
<path d="M22.1121 18.2422H23.8894V20.0199H22.1121V18.2422Z" fill="#3D6E70"/>
<path d="M23.8894 18.2422H25.6668V20.0199H23.8894V18.2422Z" fill="#3D6E70"/>
<path d="M27.4437 7.57422V9.35195H25.6668V7.5746L27.4437 7.57422Z" fill="#3D6E70"/>
<path d="M27.4437 9.35195V11.1293H25.6668V9.35195H27.4437Z" fill="#3D6E70"/>
<path d="M27.4437 11.1328V12.9105H25.6668V11.1328H27.4437Z" fill="#3CA370"/>
<path d="M27.4437 12.9105V14.6879H25.6668V12.9105H27.4437Z" fill="#3CA370"/>
<path d="M27.4437 14.6836V16.4613H25.6668V14.6836H27.4437Z" fill="#3CA370"/>
<path d="M27.4437 16.4613V18.2387H25.6668V16.4613H27.4437Z" fill="#3D6E70"/>
<path d="M27.4437 18.2422V20.0199H25.6668V18.2422H27.4437Z" fill="#272736"/>
<path d="M29.223 16.4609V18.2387H27.4453V16.4609H29.223Z" fill="#272736"/>
<path d="M29.223 9.35156V11.1293H27.4453V9.35156H29.223Z" fill="#3D6E70"/>
<path d="M29.223 7.57422V9.35156H27.4453V7.57422L29.223 7.57422Z" fill="#272736"/>
<path d="M29.223 11.1328V12.9105H27.4453V11.1328H29.223Z" fill="#3D6E70"/>
<path d="M31.0004 11.1328V12.9105H29.223V11.1328H31.0004Z" fill="#272736"/>
<path d="M29.223 12.9105V14.6879H27.4453V12.9105H29.223Z" fill="#3D6E70"/>
<path d="M31.0004 12.9105V14.6879H29.223V12.9105H31.0004Z" fill="#272736"/>
<path d="M29.223 14.6836V16.4609H27.4453V14.6836H29.223Z" fill="#3D6E70"/>
<path d="M16.7777 9.35156V11.1293H15V9.35156H16.7777Z" fill="#8FDE5D"/>
<path d="M16.7777 11.1328V12.9105H15V11.1328H16.7777Z" fill="#8FDE5D"/>
<path d="M16.7777 12.9105V14.6879H15V12.9105H16.7777Z" fill="#3CA370"/>
<path d="M16.7777 14.6836V16.4613H15V14.6836H16.7777Z" fill="#3D6E70"/>
<path d="M18.557 7.5746V9.35195H16.7793V7.57422L18.557 7.5746Z" fill="#8FDE5D"/>
<path d="M18.557 9.35195V11.1293H16.7793V9.35195H18.557Z" fill="white"/>
<path d="M18.557 11.1328V12.9105H16.7793V11.1328H18.557Z" fill="#CFFF70"/>
<path d="M18.557 12.9105V14.6879H16.7793V12.9105H18.557Z" fill="#3CA370"/>
<path d="M18.557 14.6836V16.4613H16.7793V14.6836H18.557Z" fill="#3CA370"/>
<path d="M18.557 16.4613V18.2387H16.7793V16.4613H18.557Z" fill="#3D6E70"/>
<path d="M11.557 12.7969H13.3348V14.5746H11.557V12.7969Z" fill="#323E4F"/>
<path d="M13.3348 12.7969H15.1121V14.5746H13.3348V12.7969Z" fill="#3CA370"/>
<path d="M15.1121 12.7969H16.8894V14.5746H15.1121V12.7969Z" fill="#3D6E70"/>
<path d="M16.8894 12.7969H18.6668V14.5746H16.8894V12.7969Z" fill="#323E4F"/>
<path d="M11.557 14.5746H13.3348V16.3519H11.557V14.5746Z" fill="#CFFF70"/>
<path d="M13.3348 14.5746H15.1121V16.3519H13.3348V14.5746Z" fill="#8FDE5D"/>
<path d="M15.1121 14.5746H16.8894V16.3519H15.1121V14.5746Z" fill="#3CA370"/>
<path d="M16.8894 14.5746H18.6668V16.3519H16.8894V14.5746Z" fill="#3CA370"/>
<path d="M11.557 16.3519H13.3348V18.1293H11.557V16.3519Z" fill="#CFFF70"/>
<path d="M13.3348 16.3519H15.1121V18.1293H13.3348V16.3519Z" fill="#585F54"/>
<path d="M15.1121 16.3519H16.8894V18.1293H15.1121V16.3519Z" fill="#40444A"/>
<path d="M16.8894 16.3519H18.6668V18.1293H16.8894V16.3519Z" fill="#3CA370"/>
<path d="M11.557 18.1328H13.3348V19.9105H11.557V18.1328Z" fill="#585F54"/>
<path d="M13.3348 18.1328H15.1121V19.9105H13.3348V18.1328Z" fill="#37423C"/>
<path d="M15.1121 18.1328H16.8894V19.9105H15.1121V18.1328Z" fill="#37423C"/>
<path d="M16.8894 18.1328H18.6668V19.9105H16.8894V18.1328Z" fill="#091811"/>
<path d="M11.557 19.9105H13.3348V21.6879H11.557V19.9105Z" fill="#4E5A51"/>
<path d="M13.3348 19.9105H15.1121V21.6879H13.3348V19.9105Z" fill="#2A3A3F"/>
<path d="M15.1121 19.9105H16.8894V21.6879H15.1121V19.9105Z" fill="#2A3A3F"/>
<path d="M16.8894 19.9105H18.6668V21.6879H16.8894V19.9105Z" fill="#091811"/>
<path d="M11.557 21.6836H13.3348V23.4613H11.557V21.6836Z" fill="#3CA370"/>
<path d="M13.3348 21.6836H15.1121V23.4613H13.3348V21.6836Z" fill="#343B4D"/>
<path d="M15.1121 21.6836H16.8894V23.4613H15.1121V21.6836Z" fill="#091811"/>
<path d="M16.8894 21.6836H18.6668V23.4613H16.8894V21.6836Z" fill="#3CA370"/>
<path d="M11.557 23.4613H13.3348V25.2387H11.557V23.4613Z" fill="#3CA370"/>
<path d="M13.3348 23.4613H15.1121V25.2387H13.3348V23.4613Z" fill="#3CA370"/>
<path d="M15.1121 23.4613H16.8894V25.2387H15.1121V23.4613Z" fill="#3CA370"/>
<path d="M16.8894 23.4613H18.6668V25.2387H16.8894V23.4613Z" fill="#3CA370"/>
<path d="M11.557 25.2422H13.3348V27.0199H11.557V25.2422Z" fill="#323E4F"/>
<path d="M13.3348 25.2422H15.1121V27.0199H13.3348V25.2422Z" fill="#3D6E70"/>
<path d="M15.1121 25.2422H16.8894V27.0199H15.1121V25.2422Z" fill="#3D6E70"/>
<path d="M16.8894 25.2422H18.6668V27.0199H16.8894V25.2422Z" fill="#3D6E70"/>
<path d="M20.4437 14.5742V16.3519H18.6668V14.5746L20.4437 14.5742Z" fill="#3D6E70"/>
<path d="M20.4437 16.3519V18.1293H18.6668V16.3519H20.4437Z" fill="#3D6E70"/>
<path d="M20.4437 18.1328V19.9105H18.6668V18.1328H20.4437Z" fill="#3CA370"/>
<path d="M20.4437 19.9105V21.6879H18.6668V19.9105H20.4437Z" fill="#3CA370"/>
<path d="M20.4437 21.6836V23.4613H18.6668V21.6836H20.4437Z" fill="#3CA370"/>
<path d="M20.4437 23.4613V25.2387H18.6668V23.4613H20.4437Z" fill="#3D6E70"/>
<path d="M20.4437 25.2422V27.0199H18.6668V25.2422H20.4437Z" fill="#272736"/>
<path d="M22.223 23.4609V25.2387H20.4453V23.4609H22.223Z" fill="#272736"/>
<path d="M22.223 16.3516V18.1293H20.4453V16.3516H22.223Z" fill="#3D6E70"/>
<path d="M22.223 14.5742V16.3516H20.4453V14.5742H22.223Z" fill="#272736"/>
<path d="M22.223 18.1328V19.9105H20.4453V18.1328H22.223Z" fill="#3D6E70"/>
<path d="M24.0004 18.1328V19.9105H22.223V18.1328H24.0004Z" fill="#272736"/>
<path d="M22.223 19.9105V21.6879H20.4453V19.9105H22.223Z" fill="#3D6E70"/>
<path d="M24.0004 19.9105V21.6879H22.223V19.9105H24.0004Z" fill="#272736"/>
<path d="M22.223 21.6836V23.4609H20.4453V21.6836H22.223Z" fill="#3D6E70"/>
<path d="M9.77773 16.3516L9.77773 18.1293H8L8 16.3516H9.77773Z" fill="#8FDE5D"/>
<path d="M9.77773 18.1328L9.77773 19.9105H8L8 18.1328H9.77773Z" fill="#8FDE5D"/>
<path d="M9.77773 19.9105V21.6879H8V19.9105H9.77773Z" fill="#3CA370"/>
<path d="M9.77773 21.6836L9.77773 23.4613H8L8 21.6836H9.77773Z" fill="#3D6E70"/>
<path d="M11.557 14.5746V16.3519H9.7793L9.7793 14.5742L11.557 14.5746Z" fill="#8FDE5D"/>
<path d="M11.557 16.3519V18.1293H9.7793V16.3519H11.557Z" fill="white"/>
<path d="M11.557 18.1328V19.9105H9.7793L9.7793 18.1328H11.557Z" fill="#CFFF70"/>
<path d="M11.557 19.9105V21.6879H9.7793V19.9105H11.557Z" fill="#3CA370"/>
<path d="M11.557 21.6836V23.4613H9.7793L9.7793 21.6836H11.557Z" fill="#3CA370"/>
<path d="M11.557 23.4613V25.2387H9.7793V23.4613H11.557Z" fill="#3D6E70"/>
</svg>
