<svg width="24" height="24" viewBox="0 0 24 24" fill="none" xmlns="http://www.w3.org/2000/svg">
<path d="M5.975 17.7754C5.64167 17.5921 5.38333 17.3464 5.2 17.0384C5.01667 16.7304 4.925 16.3844 4.925 16.0004V11.2004L2.525 9.87541C2.34167 9.77541 2.20833 9.65041 2.125 9.50041C2.04167 9.35041 2 9.18374 2 9.00041C2 8.81707 2.04167 8.65041 2.125 8.50041C2.20833 8.35041 2.34167 8.22541 2.525 8.12541L10.975 3.52541C11.125 3.44207 11.2793 3.37941 11.438 3.33741C11.5967 3.29541 11.759 3.27474 11.925 3.27541C12.091 3.27607 12.2537 3.29707 12.413 3.33841C12.5723 3.37974 12.7263 3.44207 12.875 3.52541L22.4 8.72541C22.5667 8.80874 22.696 8.92974 22.788 9.08841C22.88 9.24707 22.9257 9.41774 22.925 9.60041V16.0004C22.925 16.2837 22.829 16.5214 22.637 16.7134C22.445 16.9054 22.2077 17.0011 21.925 17.0004C21.6423 16.9997 21.405 16.9037 21.213 16.7124C21.021 16.5211 20.925 16.2837 20.925 16.0004V10.1004L18.925 11.2004V16.0004C18.925 16.3837 18.8333 16.7297 18.65 17.0384C18.4667 17.3471 18.2083 17.5927 17.875 17.7754L12.875 20.4754C12.725 20.5587 12.571 20.6214 12.413 20.6634C12.255 20.7054 12.0923 20.7261 11.925 20.7254C11.7577 20.7247 11.595 20.7041 11.437 20.6634C11.279 20.6227 11.125 20.5601 10.975 20.4754L5.975 17.7754ZM11.925 12.7004L18.775 9.00041L11.925 5.30041L5.075 9.00041L11.925 12.7004ZM11.925 18.7254L16.925 16.0254V12.2504L12.9 14.4754C12.75 14.5587 12.5917 14.6214 12.425 14.6634C12.2583 14.7054 12.0917 14.7261 11.925 14.7254C11.7583 14.7247 11.5917 14.7041 11.425 14.6634C11.2583 14.6227 11.1 14.5601 10.95 14.4754L6.925 12.2504V16.0254L11.925 18.7254Z" fill="#999999"/>
</svg>
