<svg width="74" height="28" viewBox="0 0 74 28" fill="none" xmlns="http://www.w3.org/2000/svg">
<path fill-rule="evenodd" clip-rule="evenodd" d="M11.0606 3.87563C9.02304 4.46918 7.21164 5.66308 5.86276 7.30156C4.51387 8.94005 3.69014 10.947 3.49902 13.0607H8.31822C8.59914 9.84428 9.5317 6.71865 11.0591 3.87412L11.0606 3.87563ZM8.31822 14.9432H3.49902C3.68974 17.057 4.51312 19.0642 5.86174 20.7029C7.21036 22.3417 9.0216 23.5359 11.0591 24.1298C9.5317 21.2853 8.59914 18.1597 8.31822 14.9432ZM13.4748 24.5319C11.6489 21.636 10.5294 18.3514 10.2067 14.9432H17.7895C17.4668 18.3514 16.3473 21.636 14.5214 24.5319C14.1728 24.5492 13.8234 24.5492 13.4748 24.5319ZM16.9386 24.1283C18.9759 23.5345 20.787 22.3405 22.1356 20.702C23.4842 19.0636 24.3077 17.0567 24.4987 14.9432H19.6795C19.3986 18.1597 18.466 21.2853 16.9386 24.1298V24.1283ZM19.6795 13.0607H24.4987C24.308 10.947 23.4846 8.93978 22.136 7.30102C20.7873 5.66226 18.9761 4.46802 16.9386 3.87412C18.466 6.71865 19.3986 9.84428 19.6795 13.0607ZM13.4748 3.47202C13.8239 3.45464 14.1738 3.45464 14.5229 3.47202C16.3483 6.36803 17.4673 9.65263 17.7895 13.0607H10.2083C10.5351 9.63156 11.657 6.34396 13.4748 3.47202Z" fill="#999999"/>
<path d="M36.2956 21L32.3177 6.85635H35.0456L37.6077 17.2707H37.739L40.4599 6.85635H42.9599L45.6948 17.2776H45.8122L48.3743 6.85635H51.1091L47.1243 21H44.6036L41.7721 11.0552H41.6616L38.8163 21H36.2956ZM56.2181 21.2072C53.0206 21.2072 51.0662 19.0801 51.0662 15.7583C51.0662 12.4848 53.0482 10.2541 56.08 10.2541C58.6836 10.2541 60.928 11.884 60.928 15.6133V16.3798H53.5316C53.5593 18.203 54.6297 19.2735 56.2457 19.2735C57.33 19.2735 58.0689 18.797 58.3935 18.1616H60.8245C60.3756 19.9986 58.6836 21.2072 56.2181 21.2072ZM53.5385 14.6948H58.5385C58.5316 13.2514 57.5579 12.1948 56.1214 12.1948C54.6228 12.1948 53.6145 13.3412 53.5385 14.6948ZM62.987 21V6.85635H65.4732V12.1395H65.5699C65.9566 11.3798 66.7301 10.2541 68.6017 10.2541C71.0602 10.2541 72.987 12.174 72.987 15.7099C72.987 19.1975 71.1086 21.1865 68.6086 21.1865C66.7854 21.1865 65.9705 20.1022 65.5699 19.3287H65.4249V21H62.987ZM65.4111 15.6961C65.4111 17.761 66.3227 19.1492 67.9249 19.1492C69.5754 19.1492 70.4525 17.692 70.4525 15.6961C70.4525 13.7141 69.5961 12.2983 67.9249 12.2983C66.3089 12.2983 65.4111 13.6312 65.4111 15.6961Z" fill="#999999"/>
</svg>
